<?xml version="1.0" encoding="UTF-8" standalone="no"?>
<!DOCTYPE svg PUBLIC "-//W3C//DTD SVG 1.1//EN"
 "http://www.w3.org/Graphics/SVG/1.1/DTD/svg11.dtd">
<!-- Generated by graphviz version 2.38.0 (20140413.2041)
 -->
<!-- Title: ICON Pages: 1 -->
<svg width="1048pt" height="565pt"
 viewBox="0.00 0.00 1048.00 565.34" xmlns="http://www.w3.org/2000/svg" xmlns:xlink="http://www.w3.org/1999/xlink">
<g id="graph0" class="graph" transform="scale(1 1) rotate(0) translate(4 561.34)">
<title>ICON</title>
<polygon fill="white" stroke="none" points="-4,4 -4,-561.34 1044,-561.34 1044,4 -4,4"/>
<g id="clust1" class="cluster"><title>clusterMain</title>
</g>
<g id="clust20" class="cluster"><title>clusterLegend</title>
<polygon fill="none" stroke="black" points="8,-8 8,-77.7401 1032,-77.7401 1032,-8 8,-8"/>
</g>
<!-- ICON -->
<g id="node1" class="node"><title>ICON</title>
<polygon fill="white" stroke="black" stroke-width="2" points="590.5,-541.34 515.5,-541.34 515.5,-505.34 590.5,-505.34 590.5,-541.34"/>
<text text-anchor="middle" x="553" y="-518.34" font-family="italic" font-size="20.00">ICON</text>
</g>
<!-- STDC++ -->
<g id="node2" class="node"><title>STDC++</title>
<ellipse fill="#79c547" stroke="black" cx="184" cy="-379.34" rx="53.8905" ry="18"/>
<text text-anchor="middle" x="184" y="-375.64" font-family="italic" font-size="14.00">STDC++</text>
</g>
<!-- ICON&#45;&gt;STDC++ -->
<g id="edge1" class="edge"><title>ICON&#45;&gt;STDC++</title>
<path fill="none" stroke="black" d="M515.361,-520.928C433.394,-517.214 241.867,-504.878 189,-469.34 181.725,-464.45 181.721,-460.673 179,-452.34"/>
<path fill="none" stroke="black" d="M179,-450.34C174.524,-436.632 175.256,-420.636 177.337,-407.398"/>
<polygon fill="black" stroke="black" points="180.795,-407.947 179.221,-397.47 173.918,-406.642 180.795,-407.947"/>
</g>
<!-- CUDA -->
<g id="node3" class="node"><title>CUDA</title>
<ellipse fill="#79c547" stroke="black" cx="72" cy="-379.34" rx="40.0939" ry="18"/>
<text text-anchor="middle" x="72" y="-375.64" font-family="italic" font-size="14.00">CUDA</text>
</g>
<!-- ICON&#45;&gt;CUDA -->
<g id="edge2" class="edge"><title>ICON&#45;&gt;CUDA</title>
<path fill="none" stroke="black" d="M515.366,-520.349C411.886,-514.546 128.642,-496.336 97,-469.34 79.3023,-454.241 73.631,-427.708 72.0409,-407.529"/>
<polygon fill="black" stroke="black" points="75.528,-407.181 71.5329,-397.369 68.5367,-407.531 75.528,-407.181"/>
</g>
<!-- CUB -->
<g id="node4" class="node"><title>CUB</title>
<polygon fill="#79c547" stroke="black" points="160,-469.34 106,-469.34 106,-433.34 160,-433.34 160,-469.34"/>
<text text-anchor="middle" x="133" y="-447.64" font-family="italic" font-size="14.00">CUB</text>
</g>
<!-- ICON&#45;&gt;CUB -->
<g id="edge3" class="edge"><title>ICON&#45;&gt;CUB</title>
<path fill="none" stroke="black" d="M515.246,-520.241C446.358,-515.714 296.115,-502.611 174,-469.34 172.56,-468.948 171.102,-468.517 169.639,-468.057"/>
<polygon fill="black" stroke="black" points="170.604,-464.686 160.009,-464.668 168.28,-471.289 170.604,-464.686"/>
</g>
<!-- MPI -->
<g id="node5" class="node"><title>MPI</title>
<ellipse fill="#79c547" stroke="black" cx="459" cy="-163.34" rx="30.5947" ry="18"/>
<text text-anchor="middle" x="459" y="-159.64" font-family="italic" font-size="14.00">MPI</text>
</g>
<!-- ICON&#45;&gt;MPI -->
<g id="edge4" class="edge"><title>ICON&#45;&gt;MPI</title>
<path fill="none" stroke="black" d="M515.368,-520.819C472.139,-517.303 401.009,-505.904 353,-469.34 338.264,-458.117 343.444,-447.905 332,-433.34 311.026,-406.648 289.963,-411.715 277,-380.34"/>
<path fill="none" stroke="black" d="M277,-378.34C261.654,-341.196 242.19,-324.856 261,-289.34 274.328,-264.176 292.634,-272.164 314,-253.34 321.56,-246.679 321.373,-242.924 329,-236.34"/>
<path fill="none" stroke="black" d="M329,-234.34C357.419,-209.018 396.608,-189.52 424.512,-177.609"/>
<polygon fill="black" stroke="black" points="425.985,-180.787 433.875,-173.716 423.297,-174.324 425.985,-180.787"/>
</g>
<!-- NetCDF&#45;Fortran -->
<g id="node6" class="node"><title>NetCDF&#45;Fortran</title>
<ellipse fill="#47a1f1" stroke="black" cx="653" cy="-379.34" rx="87.1846" ry="18"/>
<text text-anchor="middle" x="653" y="-375.64" font-family="italic" font-size="14.00">NetCDF&#45;Fortran</text>
</g>
<!-- ICON&#45;&gt;NetCDF&#45;Fortran -->
<g id="edge5" class="edge"><title>ICON&#45;&gt;NetCDF&#45;Fortran</title>
<path fill="none" stroke="black" d="M649,-450.34C649.998,-436.301 650.91,-420.664 651.611,-407.736"/>
<polygon fill="black" stroke="black" points="655.113,-407.78 652.147,-397.609 648.123,-407.41 655.113,-407.78"/>
</g>
<!-- RTE+RRTMGP -->
<g id="node7" class="node"><title>RTE+RRTMGP</title>
<polygon fill="#79c547" stroke="black" points="323.5,-469.34 198.5,-469.34 198.5,-433.34 323.5,-433.34 323.5,-469.34"/>
<text text-anchor="middle" x="261" y="-447.64" font-family="italic" font-size="14.00">RTE+RRTMGP</text>
</g>
<!-- ICON&#45;&gt;RTE+RRTMGP -->
<g id="edge6" class="edge"><title>ICON&#45;&gt;RTE+RRTMGP</title>
<path fill="none" stroke="black" d="M515.424,-513.332C469.63,-502.354 391.233,-483.56 333.537,-469.729"/>
<polygon fill="black" stroke="black" points="334.282,-466.309 323.741,-467.381 332.65,-473.116 334.282,-466.309"/>
</g>
<!-- ECRAD -->
<g id="node8" class="node"><title>ECRAD</title>
<polygon fill="#79c547" stroke="black" points="739.5,-469.34 668.5,-469.34 668.5,-433.34 739.5,-433.34 739.5,-469.34"/>
<text text-anchor="middle" x="704" y="-447.64" font-family="italic" font-size="14.00">ECRAD</text>
</g>
<!-- ICON&#45;&gt;ECRAD -->
<g id="edge7" class="edge"><title>ICON&#45;&gt;ECRAD</title>
<path fill="none" stroke="black" d="M589.939,-505.216C610.872,-495.512 637.21,-483.302 659.303,-473.061"/>
<polygon fill="black" stroke="black" points="660.882,-476.186 668.482,-468.805 657.938,-469.836 660.882,-476.186"/>
</g>
<!-- RTTOV -->
<g id="node9" class="node"><title>RTTOV</title>
<ellipse fill="#79c547" stroke="black" cx="585" cy="-451.34" rx="44.6926" ry="18"/>
<text text-anchor="middle" x="585" y="-447.64" font-family="italic" font-size="14.00">RTTOV</text>
</g>
<!-- ICON&#45;&gt;RTTOV -->
<g id="edge8" class="edge"><title>ICON&#45;&gt;RTTOV</title>
<path fill="none" stroke="black" d="M560.91,-505.037C564.553,-497.069 568.954,-487.44 572.994,-478.604"/>
<polygon fill="black" stroke="black" points="576.206,-479.994 577.181,-469.444 569.84,-477.084 576.206,-479.994"/>
</g>
<!-- SCT -->
<g id="node10" class="node"><title>SCT</title>
<polygon fill="#79c547" stroke="black" points="324,-325.34 270,-325.34 270,-289.34 324,-289.34 324,-325.34"/>
<text text-anchor="middle" x="297" y="-303.64" font-family="italic" font-size="14.00">SCT</text>
</g>
<!-- ICON&#45;&gt;SCT -->
<g id="edge9" class="edge"><title>ICON&#45;&gt;SCT</title>
<path fill="none" stroke="black" d="M277,-378.34C271.175,-364.24 275.289,-347.875 281.264,-334.515"/>
<polygon fill="black" stroke="black" points="284.484,-335.902 285.829,-325.393 278.224,-332.77 284.484,-335.902"/>
</g>
<!-- YAXT -->
<g id="node11" class="node"><title>YAXT</title>
<polygon fill="#79c547" stroke="black" points="877,-325.34 821,-325.34 821,-289.34 877,-289.34 877,-325.34"/>
<text text-anchor="middle" x="849" y="-303.64" font-family="italic" font-size="14.00">YAXT</text>
</g>
<!-- ICON&#45;&gt;YAXT -->
<g id="edge10" class="edge"><title>ICON&#45;&gt;YAXT</title>
<path fill="none" stroke="black" d="M590.79,-523.022C680.954,-523.795 904.902,-520.409 955,-469.34 982.875,-440.925 978.239,-417.878 965,-380.34"/>
<path fill="none" stroke="black" d="M965,-378.34C953.612,-345.321 916.406,-327.055 887.166,-317.537"/>
<polygon fill="black" stroke="black" points="887.795,-314.071 877.21,-314.525 885.768,-320.771 887.795,-314.071"/>
</g>
<!-- CDI -->
<g id="node12" class="node"><title>CDI</title>
<polygon fill="#47a1f1" stroke="black" points="528,-397.34 474,-397.34 474,-361.34 528,-361.34 528,-397.34"/>
<text text-anchor="middle" x="501" y="-375.64" font-family="italic" font-size="14.00">CDI</text>
</g>
<!-- ICON&#45;&gt;CDI -->
<g id="edge11" class="edge"><title>ICON&#45;&gt;CDI</title>
<path fill="none" stroke="black" d="M590.568,-510.99C616.573,-500.541 646.887,-482.071 649,-452.34"/>
<path fill="none" stroke="black" d="M649,-450.34C649.621,-441.596 645.688,-439.006 639,-433.34 623.361,-420.09 573.512,-402.741 538.232,-391.567"/>
<polygon fill="black" stroke="black" points="538.847,-388.092 528.258,-388.448 536.758,-394.773 538.847,-388.092"/>
</g>
<!-- SERIALBOX -->
<g id="node13" class="node"><title>SERIALBOX</title>
<ellipse fill="#79c547" stroke="black" cx="432" cy="-451.34" rx="69.5877" ry="18"/>
<text text-anchor="middle" x="432" y="-447.64" font-family="italic" font-size="14.00">SERIALBOX</text>
</g>
<!-- ICON&#45;&gt;SERIALBOX -->
<g id="edge12" class="edge"><title>ICON&#45;&gt;SERIALBOX</title>
<path fill="none" stroke="black" d="M523.4,-505.216C506.718,-495.565 485.751,-483.436 468.108,-473.229"/>
<polygon fill="black" stroke="black" points="469.634,-470.068 459.225,-468.09 466.129,-476.128 469.634,-470.068"/>
</g>
<!-- MTIME -->
<g id="node14" class="node"><title>MTIME</title>
<polygon fill="#47a1f1" stroke="black" points="829.5,-397.34 758.5,-397.34 758.5,-361.34 829.5,-361.34 829.5,-397.34"/>
<text text-anchor="middle" x="794" y="-375.64" font-family="italic" font-size="14.00">MTIME</text>
</g>
<!-- ICON&#45;&gt;MTIME -->
<g id="edge13" class="edge"><title>ICON&#45;&gt;MTIME</title>
<path fill="none" stroke="black" d="M590.794,-520.927C633.331,-517.496 702.428,-506.16 748,-469.34 753.405,-464.974 769.984,-431.384 781.682,-406.753"/>
<polygon fill="black" stroke="black" points="784.943,-408.045 786.045,-397.507 778.612,-405.057 784.943,-408.045"/>
</g>
<!-- BLAS -->
<g id="node15" class="node"><title>BLAS</title>
<ellipse fill="#47a1f1" stroke="black" cx="399" cy="-307.34" rx="37.0935" ry="18"/>
<text text-anchor="middle" x="399" y="-303.64" font-family="italic" font-size="14.00">BLAS</text>
</g>
<!-- ICON&#45;&gt;BLAS -->
<g id="edge14" class="edge"><title>ICON&#45;&gt;BLAS</title>
<path fill="none" stroke="black" d="M545.963,-505.297C537.832,-485.884 525.049,-456.322 521,-452.34"/>
<path fill="none" stroke="black" d="M521,-450.34C514.751,-444.193 518.154,-438.406 511,-433.34 442.995,-385.185 379.964,-461.671 327,-397.34 316.83,-384.988 319.781,-375.619 327,-361.34 334.756,-346.001 349.275,-334.014 363.255,-325.351"/>
<polygon fill="black" stroke="black" points="365.377,-328.167 372.287,-320.136 361.877,-322.105 365.377,-328.167"/>
</g>
<!-- LAPACK -->
<g id="node16" class="node"><title>LAPACK</title>
<ellipse fill="#47a1f1" stroke="black" cx="386" cy="-379.34" rx="50.0912" ry="18"/>
<text text-anchor="middle" x="386" y="-375.64" font-family="italic" font-size="14.00">LAPACK</text>
</g>
<!-- ICON&#45;&gt;LAPACK -->
<g id="edge15" class="edge"><title>ICON&#45;&gt;LAPACK</title>
<path fill="none" stroke="black" d="M521,-450.34C514.751,-444.193 517.59,-439.12 511,-433.34 489.568,-414.541 460.486,-401.675 435.767,-393.332"/>
<polygon fill="black" stroke="black" points="436.773,-389.979 426.182,-390.246 434.628,-396.642 436.773,-389.979"/>
</g>
<!-- YAC -->
<g id="node17" class="node"><title>YAC</title>
<polygon fill="#79c547" stroke="black" points="832,-469.34 778,-469.34 778,-433.34 832,-433.34 832,-469.34"/>
<text text-anchor="middle" x="805" y="-447.64" font-family="italic" font-size="14.00">YAC</text>
</g>
<!-- ICON&#45;&gt;YAC -->
<g id="edge16" class="edge"><title>ICON&#45;&gt;YAC</title>
<path fill="none" stroke="black" d="M590.829,-514.598C633.428,-505.475 704.476,-489.038 764,-469.34 765.417,-468.871 766.855,-468.376 768.302,-467.861"/>
<polygon fill="black" stroke="black" points="769.748,-471.056 777.864,-464.246 767.272,-464.508 769.748,-471.056"/>
</g>
<!-- ICON&#45;TIXI -->
<g id="node18" class="node"><title>ICON&#45;TIXI</title>
<polygon fill="#79c547" stroke="black" points="945.5,-469.34 850.5,-469.34 850.5,-433.34 945.5,-433.34 945.5,-469.34"/>
<text text-anchor="middle" x="898" y="-447.64" font-family="italic" font-size="14.00">ICON&#45;TIXI</text>
</g>
<!-- ICON&#45;&gt;ICON&#45;TIXI -->
<g id="edge17" class="edge"><title>ICON&#45;&gt;ICON&#45;TIXI</title>
<path fill="none" stroke="black" d="M590.552,-516.756C643.953,-508.525 745.025,-491.883 840.403,-469.344"/>
<polygon fill="black" stroke="black" points="841.295,-472.73 850.208,-467.001 839.668,-465.922 841.295,-472.73"/>
</g>
<!-- ECCODES -->
<g id="node19" class="node"><title>ECCODES</title>
<ellipse fill="#79c547" stroke="black" cx="172" cy="-307.34" rx="60.3893" ry="18"/>
<text text-anchor="middle" x="172" y="-303.64" font-family="italic" font-size="14.00">ECCODES</text>
</g>
<!-- ICON&#45;&gt;ECCODES -->
<g id="edge18" class="edge"><title>ICON&#45;&gt;ECCODES</title>
<path fill="none" stroke="black" d="M179,-450.34C176.279,-442.007 182.876,-439.612 189,-433.34 210.197,-411.633 232.251,-423.854 247,-397.34 254.778,-383.358 254.357,-375.548 247,-361.34 239.663,-347.171 226.6,-335.98 213.41,-327.605"/>
<polygon fill="black" stroke="black" points="215.172,-324.58 204.783,-322.504 211.61,-330.606 215.172,-324.58"/>
</g>
<!-- HDF5 -->
<g id="node20" class="node"><title>HDF5</title>
<ellipse fill="#79c547" stroke="black" cx="418" cy="-235.34" rx="38.1938" ry="18"/>
<text text-anchor="middle" x="418" y="-231.64" font-family="italic" font-size="14.00">HDF5</text>
</g>
<!-- ICON&#45;&gt;HDF5 -->
<g id="edge19" class="edge"><title>ICON&#45;&gt;HDF5</title>
<path fill="none" stroke="black" d="M179,-450.34C176.206,-442.032 182.319,-439.015 189,-433.34 222.779,-404.645 247.038,-424.582 282,-397.34 312.933,-373.238 312.113,-358.529 333,-325.34 342.749,-309.849 341.252,-303.376 353,-289.34 363.153,-277.211 376.393,-265.832 388.273,-256.751"/>
<polygon fill="black" stroke="black" points="390.668,-259.332 396.619,-250.566 386.501,-253.708 390.668,-259.332"/>
</g>
<!-- ZLIB -->
<g id="node21" class="node"><title>ZLIB</title>
<ellipse fill="#79c547" stroke="black" cx="737" cy="-163.34" rx="34.394" ry="18"/>
<text text-anchor="middle" x="737" y="-159.64" font-family="italic" font-size="14.00">ZLIB</text>
</g>
<!-- ICON&#45;&gt;ZLIB -->
<g id="edge20" class="edge"><title>ICON&#45;&gt;ZLIB</title>
<path fill="none" stroke="black" d="M965,-378.34C954.856,-348.929 959.08,-338.883 965,-308.34"/>
</g>
<!-- CUB&#45;&gt;STDC++ -->
<g id="edge21" class="edge"><title>CUB&#45;&gt;STDC++</title>
<path fill="none" stroke="black" d="M145.607,-433.037C151.75,-424.605 159.247,-414.315 165.981,-405.072"/>
<polygon fill="black" stroke="black" points="168.83,-407.106 171.889,-396.962 163.172,-402.984 168.83,-407.106"/>
</g>
<!-- CUB&#45;&gt;CUDA -->
<g id="edge22" class="edge"><title>CUB&#45;&gt;CUDA</title>
<path fill="none" stroke="black" d="M117.921,-433.037C110.314,-424.307 100.969,-413.584 92.7003,-404.095"/>
<polygon fill="black" stroke="black" points="95.2773,-401.724 86.0688,-396.485 90,-406.323 95.2773,-401.724"/>
</g>
<!-- NetCDF&#45;C -->
<g id="node22" class="node"><title>NetCDF&#45;C</title>
<ellipse fill="#d1e8fc" stroke="black" cx="616" cy="-307.34" rx="59.2899" ry="18"/>
<text text-anchor="middle" x="616" y="-303.64" font-family="italic" font-size="14.00">NetCDF&#45;C</text>
</g>
<!-- NetCDF&#45;Fortran&#45;&gt;NetCDF&#45;C -->
<g id="edge23" class="edge"><title>NetCDF&#45;Fortran&#45;&gt;NetCDF&#45;C</title>
<path fill="none" stroke="black" d="M644.043,-361.395C639.789,-353.347 634.608,-343.545 629.862,-334.566"/>
<polygon fill="black" stroke="black" points="632.899,-332.821 625.131,-325.615 626.71,-336.092 632.899,-332.821"/>
</g>
<!-- ECRAD&#45;&gt;NetCDF&#45;Fortran -->
<g id="edge24" class="edge"><title>ECRAD&#45;&gt;NetCDF&#45;Fortran</title>
<path fill="none" stroke="black" d="M691.393,-433.037C685.403,-424.814 678.124,-414.823 671.521,-405.761"/>
<polygon fill="black" stroke="black" points="674.179,-403.466 665.462,-397.444 668.522,-407.588 674.179,-403.466"/>
</g>
<!-- RTTOV&#45;&gt;NetCDF&#45;Fortran -->
<g id="edge25" class="edge"><title>RTTOV&#45;&gt;NetCDF&#45;Fortran</title>
<path fill="none" stroke="black" d="M600.771,-434.105C609.192,-425.436 619.731,-414.588 629.132,-404.91"/>
<polygon fill="black" stroke="black" points="631.908,-407.076 636.365,-397.464 626.887,-402.198 631.908,-407.076"/>
</g>
<!-- RTTOV&#45;&gt;LAPACK -->
<g id="edge26" class="edge"><title>RTTOV&#45;&gt;LAPACK</title>
<path fill="none" stroke="black" d="M552.139,-438.781C518.799,-427.053 466.984,-408.827 430.091,-395.849"/>
<polygon fill="black" stroke="black" points="431.176,-392.521 420.581,-392.504 428.853,-399.124 431.176,-392.521"/>
</g>
<!-- RTTOV&#45;&gt;HDF5 -->
<g id="edge27" class="edge"><title>RTTOV&#45;&gt;HDF5</title>
<path fill="none" stroke="black" d="M551.207,-439.396C519.801,-428.549 476.229,-411.543 465,-397.34 434.724,-359.047 460.686,-335.567 445,-289.34 441.866,-280.104 437.369,-270.468 432.941,-261.985"/>
<polygon fill="black" stroke="black" points="435.898,-260.096 428.049,-252.98 429.748,-263.438 435.898,-260.096"/>
</g>
<!-- SCT&#45;&gt;MPI -->
<g id="edge28" class="edge"><title>SCT&#45;&gt;MPI</title>
<path fill="none" stroke="black" d="M300.531,-289.182C304.682,-273.271 313.119,-250.049 329,-236.34"/>
</g>
<!-- SCT&#45;&gt;HDF5 -->
<g id="edge29" class="edge"><title>SCT&#45;&gt;HDF5</title>
<path fill="none" stroke="black" d="M324.155,-290.631C342.441,-280.052 366.637,-266.054 385.88,-254.922"/>
<polygon fill="black" stroke="black" points="387.704,-257.91 394.607,-249.873 384.199,-251.851 387.704,-257.91"/>
</g>
<!-- YAXT&#45;&gt;MPI -->
<g id="edge30" class="edge"><title>YAXT&#45;&gt;MPI</title>
<path fill="none" stroke="black" d="M832.626,-289.323C821.218,-276.092 807.157,-256.627 802,-236.34"/>
</g>
<!-- CDI&#45;&gt;MPI -->
<g id="edge31" class="edge"><title>CDI&#45;&gt;MPI</title>
<path fill="none" stroke="black" d="M501,-306.34C532.803,-172.725 835.835,-369.455 802,-236.34"/>
<path fill="none" stroke="black" d="M802,-234.34C794.484,-204.771 587.731,-178.521 498.917,-168.576"/>
<polygon fill="black" stroke="black" points="499.267,-165.093 488.942,-167.472 498.497,-172.051 499.267,-165.093"/>
</g>
<!-- CDI&#45;&gt;YAXT -->
<g id="edge32" class="edge"><title>CDI&#45;&gt;YAXT</title>
<path fill="none" stroke="black" d="M528.171,-369.404C537.274,-366.595 547.519,-363.632 557,-361.34 647.098,-339.564 754.771,-322.22 810.821,-313.833"/>
<polygon fill="black" stroke="black" points="811.617,-317.253 820.996,-312.324 810.591,-310.329 811.617,-317.253"/>
</g>
<!-- CDI&#45;&gt;ECCODES -->
<g id="edge33" class="edge"><title>CDI&#45;&gt;ECCODES</title>
<path fill="none" stroke="black" d="M473.813,-369.472C464.708,-366.667 454.467,-363.689 445,-361.34 434.657,-358.774 308.706,-334.534 231.546,-319.739"/>
<polygon fill="black" stroke="black" points="231.943,-316.251 221.463,-317.806 230.625,-323.126 231.943,-316.251"/>
</g>
<!-- CDI&#45;&gt;NetCDF&#45;C -->
<g id="edge34" class="edge"><title>CDI&#45;&gt;NetCDF&#45;C</title>
<path fill="none" stroke="black" d="M528.253,-361.751C544.317,-351.973 564.783,-339.516 581.908,-329.092"/>
<polygon fill="black" stroke="black" points="583.796,-332.04 590.518,-323.851 580.156,-326.061 583.796,-332.04"/>
</g>
<!-- PPM -->
<g id="node23" class="node"><title>PPM</title>
<polygon fill="#def1d1" stroke="black" points="528,-253.34 474,-253.34 474,-217.34 528,-217.34 528,-253.34"/>
<text text-anchor="middle" x="501" y="-231.64" font-family="italic" font-size="14.00">PPM</text>
</g>
<!-- CDI&#45;&gt;PPM -->
<g id="edge35" class="edge"><title>CDI&#45;&gt;PPM</title>
<path fill="none" stroke="black" d="M501,-306.34C504.276,-292.578 504.572,-276.858 503.922,-263.806"/>
<polygon fill="black" stroke="black" points="507.395,-263.3 503.197,-253.572 500.412,-263.794 507.395,-263.3"/>
</g>
<!-- AEC / SZIP -->
<g id="node24" class="node"><title>AEC / SZIP</title>
<ellipse fill="#def1d1" stroke="black" cx="328" cy="-163.34" rx="63.8893" ry="18"/>
<text text-anchor="middle" x="328" y="-159.64" font-family="italic" font-size="14.00">AEC / SZIP</text>
</g>
<!-- CDI&#45;&gt;AEC / SZIP -->
<g id="edge36" class="edge"><title>CDI&#45;&gt;AEC / SZIP</title>
<path fill="none" stroke="black" d="M498.803,-361.108C497.495,-346.779 496.807,-325.956 501,-308.34"/>
<path fill="none" stroke="black" d="M501,-306.34C522.031,-217.981 313.85,-327.038 309,-236.34"/>
</g>
<!-- SERIALBOX&#45;&gt;STDC++ -->
<g id="edge38" class="edge"><title>SERIALBOX&#45;&gt;STDC++</title>
<path fill="none" stroke="black" d="M386.801,-437.582C343.549,-425.374 278.456,-407.001 233.748,-394.382"/>
<polygon fill="black" stroke="black" points="234.547,-390.971 223.972,-391.623 232.645,-397.707 234.547,-390.971"/>
</g>
<!-- SERIALBOX&#45;&gt;NetCDF&#45;C -->
<g id="edge39" class="edge"><title>SERIALBOX&#45;&gt;NetCDF&#45;C</title>
<path fill="none" stroke="black" d="M472.399,-436.593C493.539,-427.869 518.744,-414.886 537,-397.34 550.196,-384.657 545.591,-375.652 557,-361.34 565.736,-350.381 576.853,-339.758 587.076,-330.936"/>
<polygon fill="black" stroke="black" points="589.606,-333.382 595.02,-324.275 585.109,-328.018 589.606,-333.382"/>
</g>
<!-- LAPACK&#45;&gt;BLAS -->
<g id="edge40" class="edge"><title>LAPACK&#45;&gt;BLAS</title>
<path fill="none" stroke="black" d="M389.213,-361.037C390.646,-353.323 392.368,-344.053 393.965,-335.453"/>
<polygon fill="black" stroke="black" points="397.439,-335.915 395.823,-325.444 390.556,-334.637 397.439,-335.915"/>
</g>
<!-- YAC&#45;&gt;MPI -->
<g id="edge41" class="edge"><title>YAC&#45;&gt;MPI</title>
<path fill="none" stroke="black" d="M849,-378.34C843.784,-350.09 822.353,-352.137 812,-325.34 797.655,-288.21 811.806,-274.918 802,-236.34"/>
</g>
<!-- YAC&#45;&gt;YAXT -->
<g id="edge42" class="edge"><title>YAC&#45;&gt;YAXT</title>
<path fill="none" stroke="black" d="M849,-378.34C846.431,-364.429 846.199,-348.695 846.709,-335.673"/>
<polygon fill="black" stroke="black" points="850.215,-335.651 847.277,-325.472 843.226,-335.262 850.215,-335.651"/>
</g>
<!-- YAC&#45;&gt;MTIME -->
<g id="edge43" class="edge"><title>YAC&#45;&gt;MTIME</title>
<path fill="none" stroke="black" d="M802.281,-433.037C801.069,-425.323 799.612,-416.053 798.261,-407.453"/>
<polygon fill="black" stroke="black" points="801.698,-406.78 796.688,-397.444 794.783,-407.867 801.698,-406.78"/>
</g>
<!-- YAC&#45;&gt;LAPACK -->
<g id="edge44" class="edge"><title>YAC&#45;&gt;LAPACK</title>
<path fill="none" stroke="black" d="M777.979,-441.297C768.575,-438.413 757.902,-435.432 748,-433.34 623.946,-407.134 589.98,-418.696 465,-397.34 455.86,-395.778 446.174,-393.89 436.832,-391.947"/>
<polygon fill="black" stroke="black" points="437.383,-388.486 426.874,-389.831 435.928,-395.333 437.383,-388.486"/>
</g>
<!-- YAC&#45;&gt;NetCDF&#45;C -->
<g id="edge45" class="edge"><title>YAC&#45;&gt;NetCDF&#45;C</title>
<path fill="none" stroke="black" d="M825.329,-433.263C838.561,-420.002 852.727,-400.525 849,-380.34"/>
<path fill="none" stroke="black" d="M849,-378.34C847.366,-369.49 845.348,-366.535 838,-361.34 793.087,-329.586 731.607,-316.685 684.733,-311.528"/>
<polygon fill="black" stroke="black" points="684.963,-308.034 674.663,-310.514 684.262,-314.998 684.963,-308.034"/>
</g>
<!-- XML2 -->
<g id="node25" class="node"><title>XML2</title>
<ellipse fill="#d1e8fc" stroke="black" cx="907" cy="-379.34" rx="38.9931" ry="18"/>
<text text-anchor="middle" x="907" y="-375.64" font-family="italic" font-size="14.00">XML2</text>
</g>
<!-- YAC&#45;&gt;XML2 -->
<g id="edge46" class="edge"><title>YAC&#45;&gt;XML2</title>
<path fill="none" stroke="black" d="M829.952,-433.216C844.348,-423.336 862.53,-410.859 877.615,-400.506"/>
<polygon fill="black" stroke="black" points="879.823,-403.236 886.088,-394.692 875.862,-397.464 879.823,-403.236"/>
</g>
<!-- ICON&#45;TIXI&#45;&gt;XML2 -->
<g id="edge47" class="edge"><title>ICON&#45;TIXI&#45;&gt;XML2</title>
<path fill="none" stroke="black" d="M900.225,-433.037C901.217,-425.323 902.408,-416.053 903.514,-407.453"/>
<polygon fill="black" stroke="black" points="906.997,-407.809 904.801,-397.444 900.054,-406.916 906.997,-407.809"/>
</g>
<!-- ECCODES&#45;&gt;AEC / SZIP -->
<g id="edge48" class="edge"><title>ECCODES&#45;&gt;AEC / SZIP</title>
<path fill="none" stroke="black" d="M213.19,-294.067C253.96,-280.65 310.166,-258.144 309,-236.34"/>
<path fill="none" stroke="black" d="M309,-234.34C308.215,-219.655 312.1,-203.802 316.558,-190.901"/>
<polygon fill="black" stroke="black" points="319.936,-191.859 320.177,-181.267 313.384,-189.397 319.936,-191.859"/>
</g>
<!-- HDF5&#45;&gt;MPI -->
<g id="edge49" class="edge"><title>HDF5&#45;&gt;MPI</title>
<path fill="none" stroke="black" d="M427.716,-217.751C432.618,-209.382 438.67,-199.05 444.141,-189.71"/>
<polygon fill="black" stroke="black" points="447.319,-191.208 449.353,-180.81 441.279,-187.67 447.319,-191.208"/>
</g>
<!-- HDF5&#45;&gt;ZLIB -->
<g id="edge50" class="edge"><title>HDF5&#45;&gt;ZLIB</title>
<path fill="none" stroke="black" d="M446.606,-223.198C452.626,-221.078 458.978,-219.005 465,-217.34 544.72,-195.298 640.037,-178.959 694.049,-170.603"/>
<polygon fill="black" stroke="black" points="694.606,-174.059 703.962,-169.088 693.548,-167.139 694.606,-174.059"/>
</g>
<!-- HDF5&#45;&gt;AEC / SZIP -->
<g id="edge51" class="edge"><title>HDF5&#45;&gt;AEC / SZIP</title>
<path fill="none" stroke="black" d="M398.913,-219.495C386.692,-209.99 370.604,-197.476 356.84,-186.771"/>
<polygon fill="black" stroke="black" points="358.669,-183.76 348.627,-180.383 354.371,-189.285 358.669,-183.76"/>
</g>
<!-- NetCDF&#45;C&#45;&gt;HDF5 -->
<g id="edge52" class="edge"><title>NetCDF&#45;C&#45;&gt;HDF5</title>
<path fill="none" stroke="black" d="M578.422,-293.262C547.85,-282.595 503.603,-267.096 465,-253.34 462.318,-252.384 459.551,-251.394 456.766,-250.395"/>
<polygon fill="black" stroke="black" points="457.913,-247.088 447.318,-246.993 455.542,-253.674 457.913,-247.088"/>
</g>
<!-- NetCDF&#45;C&#45;&gt;ZLIB -->
<g id="edge53" class="edge"><title>NetCDF&#45;C&#45;&gt;ZLIB</title>
<path fill="none" stroke="black" d="M671.541,-300.878C770.345,-290.405 966.264,-265.898 965,-236.34"/>
<path fill="none" stroke="black" d="M965,-234.34C963.376,-196.348 846.714,-176.839 780.925,-168.848"/>
<polygon fill="black" stroke="black" points="781.168,-165.352 770.828,-167.663 780.352,-172.304 781.168,-165.352"/>
</g>
<!-- PPM&#45;&gt;MPI -->
<g id="edge37" class="edge"><title>PPM&#45;&gt;MPI</title>
<path fill="none" stroke="black" d="M490.618,-217.037C485.59,-208.656 479.459,-198.438 473.939,-189.239"/>
<polygon fill="black" stroke="black" points="476.833,-187.259 468.687,-180.485 470.831,-190.86 476.833,-187.259"/>
</g>
<!-- XML2&#45;&gt;ZLIB -->
<g id="edge54" class="edge"><title>XML2&#45;&gt;ZLIB</title>
<path fill="none" stroke="black" d="M926.885,-363.72C941.865,-351.084 960.555,-331.271 965,-308.34"/>
<path fill="none" stroke="black" d="M965,-306.34C970.92,-275.797 966.329,-267.423 965,-236.34"/>
</g>
<!-- bottomNode -->
<!-- external -->
<g id="node27" class="node"><title>external</title>
<ellipse fill="white" stroke="black" cx="75" cy="-42.8701" rx="59.2941" ry="26.7407"/>
<text text-anchor="middle" x="75" y="-46.6701" font-family="italic" font-size="14.00">External</text>
<text text-anchor="middle" x="75" y="-31.6701" font-family="italic" font-size="14.00">packages</text>
</g>
<!-- bottomNode&#45;&gt;external -->
<!-- bundled -->
<g id="node28" class="node"><title>bundled</title>
<polygon fill="white" stroke="black" points="243.5,-69.3701 152.5,-69.3701 152.5,-16.3701 243.5,-16.3701 243.5,-69.3701"/>
<text text-anchor="middle" x="198" y="-54.1701" font-family="italic" font-size="14.00">Optionally</text>
<text text-anchor="middle" x="198" y="-39.1701" font-family="italic" font-size="14.00">bundled</text>
<text text-anchor="middle" x="198" y="-24.1701" font-family="italic" font-size="14.00">packages</text>
</g>
<!-- external&#45;&gt;bundled -->
<!-- mandatoryIcon -->
<g id="node29" class="node"><title>mandatoryIcon</title>
<polygon fill="#47a1f1" stroke="none" points="440.5,-61.8701 261.5,-61.8701 261.5,-23.8701 440.5,-23.8701 440.5,-61.8701"/>
<text text-anchor="middle" x="351" y="-46.6701" font-family="italic" font-size="14.00">Immediate mandatory</text>
<text text-anchor="middle" x="351" y="-31.6701" font-family="italic" font-size="14.00">dependencies of ICON</text>
</g>
<!-- bundled&#45;&gt;mandatoryIcon -->
<!-- optionalIcon -->
<g id="node30" class="node"><title>optionalIcon</title>
<polygon fill="#79c547" stroke="none" points="637.5,-61.8701 458.5,-61.8701 458.5,-23.8701 637.5,-23.8701 637.5,-61.8701"/>
<text text-anchor="middle" x="548" y="-46.6701" font-family="italic" font-size="14.00">Immediate optional</text>
<text text-anchor="middle" x="548" y="-31.6701" font-family="italic" font-size="14.00">dependencies of ICON</text>
</g>
<!-- mandatoryIcon&#45;&gt;optionalIcon -->
<!-- mandatoryBundled -->
<g id="node31" class="node"><title>mandatoryBundled</title>
<polygon fill="#d1e8fc" stroke="none" points="832,-69.3701 656,-69.3701 656,-16.3701 832,-16.3701 832,-69.3701"/>
<text text-anchor="middle" x="744" y="-54.1701" font-family="italic" font-size="14.00">Immediate mandatory</text>
<text text-anchor="middle" x="744" y="-39.1701" font-family="italic" font-size="14.00">dependencies of</text>
<text text-anchor="middle" x="744" y="-24.1701" font-family="italic" font-size="14.00">the bundled packages</text>
</g>
<!-- optionalIcon&#45;&gt;mandatoryBundled -->
<!-- optionalBundled -->
<g id="node32" class="node"><title>optionalBundled</title>
<polygon fill="#def1d1" stroke="none" points="1024,-69.3701 850,-69.3701 850,-16.3701 1024,-16.3701 1024,-69.3701"/>
<text text-anchor="middle" x="937" y="-54.1701" font-family="italic" font-size="14.00">Immediate optional</text>
<text text-anchor="middle" x="937" y="-39.1701" font-family="italic" font-size="14.00">dependencies of</text>
<text text-anchor="middle" x="937" y="-24.1701" font-family="italic" font-size="14.00">the bundled packages</text>
</g>
<!-- mandatoryBundled&#45;&gt;optionalBundled -->
</g>
</svg>
