<?xml version="1.0" encoding="UTF-8" standalone="no"?>
<!DOCTYPE svg PUBLIC "-//W3C//DTD SVG 1.1//EN"
 "http://www.w3.org/Graphics/SVG/1.1/DTD/svg11.dtd">
<!-- Generated by graphviz version 2.43.0 (0)
 -->
<!-- Title: ICON Pages: 1 -->
<svg width="1004pt" height="637pt"
 viewBox="0.00 0.00 1004.00 637.34" xmlns="http://www.w3.org/2000/svg" xmlns:xlink="http://www.w3.org/1999/xlink">
<g id="graph0" class="graph" transform="scale(1 1) rotate(0) translate(4 633.34)">
<title>ICON</title>
<polygon fill="white" stroke="transparent" points="-4,4 -4,-633.34 1000,-633.34 1000,4 -4,4"/>
<g id="clust1" class="cluster">
<title>clusterMain</title>
</g>
<g id="clust21" class="cluster">
<title>clusterLegend</title>
<polygon fill="none" stroke="black" points="78,-8 78,-77.74 907,-77.74 907,-8 78,-8"/>
</g>
<!-- ICON -->
<g id="node1" class="node">
<title>ICON</title>
<polygon fill="white" stroke="black" stroke-width="2" points="539.5,-613.34 474.5,-613.34 474.5,-577.34 539.5,-577.34 539.5,-613.34"/>
<text text-anchor="middle" x="507" y="-590.34" font-family="Times,serif" font-size="20.00">ICON</text>
</g>
<!-- STDC++ -->
<g id="node2" class="node">
<title>STDC++</title>
<ellipse fill="#79c547" stroke="black" cx="72" cy="-379.34" rx="44.39" ry="18"/>
<text text-anchor="middle" x="72" y="-375.64" font-family="Times,serif" font-size="14.00">STDC++</text>
</g>
<!-- ICON&#45;&gt;STDC++ -->
<g id="edge1" class="edge">
<title>ICON&#45;&gt;STDC++</title>
<path fill="none" stroke="black" d="M474.32,-593.06C371.37,-588.7 58.67,-572.95 27,-541.34 -1.17,-513.22 11.3,-491.73 17,-452.34"/>
<path fill="none" stroke="black" d="M17,-450.34C19.57,-431.83 31.98,-415.19 44.36,-402.78"/>
<polygon fill="black" stroke="black" points="47.09,-405.02 51.98,-395.63 42.29,-399.92 47.09,-405.02"/>
</g>
<!-- CUDA -->
<g id="node3" class="node">
<title>CUDA</title>
<ellipse fill="#79c547" stroke="black" cx="72" cy="-451.34" rx="36" ry="18"/>
<text text-anchor="middle" x="72" y="-447.64" font-family="Times,serif" font-size="14.00">CUDA</text>
</g>
<!-- ICON&#45;&gt;CUDA -->
<g id="edge2" class="edge">
<title>ICON&#45;&gt;CUDA</title>
<path fill="none" stroke="black" d="M474.16,-593.48C420.91,-590.48 314.76,-577.69 246,-524.34"/>
<path fill="none" stroke="black" d="M246,-522.34C240.27,-517.9 158.27,-485.75 108.92,-466.6"/>
<polygon fill="black" stroke="black" points="110.1,-463.3 99.51,-462.95 107.57,-469.83 110.1,-463.3"/>
</g>
<!-- ROCm -->
<g id="node4" class="node">
<title>ROCm</title>
<ellipse fill="#79c547" stroke="black" cx="72" cy="-523.34" rx="36.29" ry="18"/>
<text text-anchor="middle" x="72" y="-519.64" font-family="Times,serif" font-size="14.00">ROCm</text>
</g>
<!-- ICON&#45;&gt;ROCm -->
<g id="edge3" class="edge">
<title>ICON&#45;&gt;ROCm</title>
<path fill="none" stroke="black" d="M474.3,-589.08C397.12,-576.66 203.54,-545.51 116.1,-531.44"/>
<polygon fill="black" stroke="black" points="116.4,-527.94 105.97,-529.81 115.29,-534.85 116.4,-527.94"/>
</g>
<!-- MPI -->
<g id="node5" class="node">
<title>MPI</title>
<ellipse fill="#79c547" stroke="black" cx="445" cy="-163.34" rx="27" ry="18"/>
<text text-anchor="middle" x="445" y="-159.64" font-family="Times,serif" font-size="14.00">MPI</text>
</g>
<!-- ICON&#45;&gt;MPI -->
<g id="edge4" class="edge">
<title>ICON&#45;&gt;MPI</title>
<path fill="none" stroke="black" d="M246,-522.34C221.42,-503.27 243.54,-483.35 246,-452.34"/>
<path fill="none" stroke="black" d="M246,-450.34C253.65,-353.89 229.68,-315.02 286,-236.34"/>
<path fill="none" stroke="black" d="M286,-234.34C300.83,-212.69 368.99,-188.12 411.11,-174.61"/>
<polygon fill="black" stroke="black" points="412.21,-177.93 420.7,-171.58 410.11,-171.26 412.21,-177.93"/>
</g>
<!-- ZLIB -->
<g id="node6" class="node">
<title>ZLIB</title>
<ellipse fill="#79c547" stroke="black" cx="725" cy="-163.34" rx="30.59" ry="18"/>
<text text-anchor="middle" x="725" y="-159.64" font-family="Times,serif" font-size="14.00">ZLIB</text>
</g>
<!-- ICON&#45;&gt;ZLIB -->
<g id="edge5" class="edge">
<title>ICON&#45;&gt;ZLIB</title>
<path fill="none" stroke="black" d="M959,-450.34C962.13,-322.89 819.39,-220.97 755.37,-181.74"/>
<polygon fill="black" stroke="black" points="756.89,-178.57 746.52,-176.41 753.28,-184.57 756.89,-178.57"/>
</g>
<!-- HDF5 -->
<g id="node7" class="node">
<title>HDF5</title>
<ellipse fill="#79c547" stroke="black" cx="419" cy="-235.34" rx="32.49" ry="18"/>
<text text-anchor="middle" x="419" y="-231.64" font-family="Times,serif" font-size="14.00">HDF5</text>
</g>
<!-- ICON&#45;&gt;HDF5 -->
<g id="edge6" class="edge">
<title>ICON&#45;&gt;HDF5</title>
<path fill="none" stroke="black" d="M474.12,-581.94C456.33,-573.39 435.83,-560.14 425,-541.34 372.96,-451.03 397.39,-319.3 411.47,-263.23"/>
<polygon fill="black" stroke="black" points="414.91,-263.92 414.04,-253.36 408.13,-262.15 414.91,-263.92"/>
</g>
<!-- NetCDF&#45;Fortran -->
<g id="node8" class="node">
<title>NetCDF&#45;Fortran</title>
<ellipse fill="#47a1f1" stroke="black" cx="559" cy="-379.34" rx="69.59" ry="18"/>
<text text-anchor="middle" x="559" y="-375.64" font-family="Times,serif" font-size="14.00">NetCDF&#45;Fortran</text>
</g>
<!-- ICON&#45;&gt;NetCDF&#45;Fortran -->
<g id="edge7" class="edge">
<title>ICON&#45;&gt;NetCDF&#45;Fortran</title>
<path fill="none" stroke="black" d="M506.14,-577.24C505.84,-558.78 507.19,-528.88 517,-505.34 528.25,-478.35 559.35,-481.39 556,-452.34"/>
<path fill="none" stroke="black" d="M556,-450.34C554.23,-436.29 554.69,-420.55 555.72,-407.55"/>
<polygon fill="black" stroke="black" points="559.22,-407.66 556.68,-397.38 552.25,-407.01 559.22,-407.66"/>
</g>
<!-- RTE+RRTMGP -->
<g id="node9" class="node">
<title>RTE+RRTMGP</title>
<polygon fill="#79c547" stroke="black" points="395.5,-541.34 288.5,-541.34 288.5,-505.34 395.5,-505.34 395.5,-541.34"/>
<text text-anchor="middle" x="342" y="-519.64" font-family="Times,serif" font-size="14.00">RTE+RRTMGP</text>
</g>
<!-- ICON&#45;&gt;RTE+RRTMGP -->
<g id="edge8" class="edge">
<title>ICON&#45;&gt;RTE+RRTMGP</title>
<path fill="none" stroke="black" d="M474.4,-580.51C450.71,-570.46 418.22,-556.68 391.36,-545.28"/>
<polygon fill="black" stroke="black" points="392.69,-542.04 382.12,-541.36 389.96,-548.49 392.69,-542.04"/>
</g>
<!-- ECRAD -->
<g id="node10" class="node">
<title>ECRAD</title>
<polygon fill="#79c547" stroke="black" points="686,-541.34 624,-541.34 624,-505.34 686,-505.34 686,-541.34"/>
<text text-anchor="middle" x="655" y="-519.64" font-family="Times,serif" font-size="14.00">ECRAD</text>
</g>
<!-- ICON&#45;&gt;ECRAD -->
<g id="edge9" class="edge">
<title>ICON&#45;&gt;ECRAD</title>
<path fill="none" stroke="black" d="M539.85,-578.8C561.85,-568.4 590.98,-554.62 614.43,-543.53"/>
<polygon fill="black" stroke="black" points="616.22,-546.55 623.77,-539.11 613.23,-540.22 616.22,-546.55"/>
</g>
<!-- BLAS -->
<g id="node11" class="node">
<title>BLAS</title>
<ellipse fill="#47a1f1" stroke="black" cx="814" cy="-379.34" rx="33.29" ry="18"/>
<text text-anchor="middle" x="814" y="-375.64" font-family="Times,serif" font-size="14.00">BLAS</text>
</g>
<!-- ICON&#45;&gt;BLAS -->
<g id="edge10" class="edge">
<title>ICON&#45;&gt;BLAS</title>
<path fill="none" stroke="black" d="M879,-522.34C883.79,-514.72 883.55,-511.62 890,-505.34 912.01,-483.91 927.45,-491.24 949,-469.34 955.15,-463.09 958.78,-461.1 959,-452.34"/>
<path fill="none" stroke="black" d="M959,-450.34C960.13,-404.42 900.06,-388.61 856.9,-383.17"/>
<polygon fill="black" stroke="black" points="857.21,-379.69 846.88,-382.06 856.43,-386.64 857.21,-379.69"/>
</g>
<!-- LAPACK -->
<g id="node12" class="node">
<title>LAPACK</title>
<ellipse fill="#47a1f1" stroke="black" cx="713" cy="-451.34" rx="46.29" ry="18"/>
<text text-anchor="middle" x="713" y="-447.64" font-family="Times,serif" font-size="14.00">LAPACK</text>
</g>
<!-- ICON&#45;&gt;LAPACK -->
<g id="edge11" class="edge">
<title>ICON&#45;&gt;LAPACK</title>
<path fill="none" stroke="black" d="M539.6,-593.94C623.53,-592.08 842.96,-581.73 879,-524.34"/>
<path fill="none" stroke="black" d="M879,-522.34C886.13,-510.99 809.25,-483.44 757.69,-466.49"/>
<polygon fill="black" stroke="black" points="758.66,-463.12 748.07,-463.35 756.49,-469.78 758.66,-463.12"/>
</g>
<!-- RTTOV -->
<g id="node13" class="node">
<title>RTTOV</title>
<ellipse fill="#79c547" stroke="black" cx="566" cy="-523.34" rx="40.09" ry="18"/>
<text text-anchor="middle" x="566" y="-519.64" font-family="Times,serif" font-size="14.00">RTTOV</text>
</g>
<!-- ICON&#45;&gt;RTTOV -->
<g id="edge12" class="edge">
<title>ICON&#45;&gt;RTTOV</title>
<path fill="none" stroke="black" d="M521.58,-577.04C528.87,-568.39 537.8,-557.8 545.74,-548.38"/>
<polygon fill="black" stroke="black" points="548.62,-550.39 552.39,-540.48 543.27,-545.88 548.62,-550.39"/>
</g>
<!-- SCT -->
<g id="node14" class="node">
<title>SCT</title>
<polygon fill="#79c547" stroke="black" points="339,-325.34 285,-325.34 285,-289.34 339,-289.34 339,-325.34"/>
<text text-anchor="middle" x="312" y="-303.64" font-family="Times,serif" font-size="14.00">SCT</text>
</g>
<!-- ICON&#45;&gt;SCT -->
<g id="edge13" class="edge">
<title>ICON&#45;&gt;SCT</title>
<path fill="none" stroke="black" d="M246,-450.34C251.94,-406.78 276.71,-361.59 294.15,-334.21"/>
<polygon fill="black" stroke="black" points="297.22,-335.92 299.75,-325.63 291.35,-332.1 297.22,-335.92"/>
</g>
<!-- YAXT -->
<g id="node15" class="node">
<title>YAXT</title>
<polygon fill="#79c547" stroke="black" points="629,-469.34 575,-469.34 575,-433.34 629,-433.34 629,-469.34"/>
<text text-anchor="middle" x="602" y="-447.64" font-family="Times,serif" font-size="14.00">YAXT</text>
</g>
<!-- ICON&#45;&gt;YAXT -->
<g id="edge14" class="edge">
<title>ICON&#45;&gt;YAXT</title>
<path fill="none" stroke="black" d="M539.57,-589.9C588.25,-582.53 676.27,-566.08 695,-541.34 704.66,-528.58 703.04,-519.17 695,-505.34 688.52,-494.18 661.7,-479.54 638.52,-468.47"/>
<polygon fill="black" stroke="black" points="639.75,-465.18 629.21,-464.11 636.79,-471.52 639.75,-465.18"/>
</g>
<!-- ECCODES -->
<g id="node16" class="node">
<title>ECCODES</title>
<ellipse fill="#79c547" stroke="black" cx="176" cy="-451.34" rx="50.89" ry="18"/>
<text text-anchor="middle" x="176" y="-447.64" font-family="Times,serif" font-size="14.00">ECCODES</text>
</g>
<!-- ICON&#45;&gt;ECCODES -->
<g id="edge15" class="edge">
<title>ICON&#45;&gt;ECCODES</title>
<path fill="none" stroke="black" d="M246,-522.34C228.24,-508.56 210.36,-490.59 197.11,-476.31"/>
<polygon fill="black" stroke="black" points="199.59,-473.83 190.26,-468.8 194.42,-478.55 199.59,-473.83"/>
</g>
<!-- CDI -->
<g id="node17" class="node">
<title>CDI</title>
<polygon fill="#47a1f1" stroke="black" points="488,-541.34 434,-541.34 434,-505.34 488,-505.34 488,-541.34"/>
<text text-anchor="middle" x="461" y="-519.64" font-family="Times,serif" font-size="14.00">CDI</text>
</g>
<!-- ICON&#45;&gt;CDI -->
<g id="edge16" class="edge">
<title>ICON&#45;&gt;CDI</title>
<path fill="none" stroke="black" d="M495.63,-577.04C490.28,-568.9 483.8,-559.03 477.89,-550.04"/>
<polygon fill="black" stroke="black" points="480.66,-547.88 472.24,-541.44 474.81,-551.72 480.66,-547.88"/>
</g>
<!-- SERIALBOX -->
<g id="node18" class="node">
<title>SERIALBOX</title>
<ellipse fill="#79c547" stroke="black" cx="325" cy="-451.34" rx="59.59" ry="18"/>
<text text-anchor="middle" x="325" y="-447.64" font-family="Times,serif" font-size="14.00">SERIALBOX</text>
</g>
<!-- ICON&#45;&gt;SERIALBOX -->
<g id="edge17" class="edge">
<title>ICON&#45;&gt;SERIALBOX</title>
<path fill="none" stroke="black" d="M246,-522.34C224.84,-505.92 253.6,-485.43 282.17,-470.87"/>
<polygon fill="black" stroke="black" points="283.94,-473.9 291.38,-466.36 280.86,-467.61 283.94,-473.9"/>
</g>
<!-- MTIME -->
<g id="node19" class="node">
<title>MTIME</title>
<polygon fill="#47a1f1" stroke="black" points="939.5,-469.34 876.5,-469.34 876.5,-433.34 939.5,-433.34 939.5,-469.34"/>
<text text-anchor="middle" x="908" y="-447.64" font-family="Times,serif" font-size="14.00">MTIME</text>
</g>
<!-- ICON&#45;&gt;MTIME -->
<g id="edge18" class="edge">
<title>ICON&#45;&gt;MTIME</title>
<path fill="none" stroke="black" d="M879,-522.34C887.42,-508.94 894.33,-492.67 899.29,-479.19"/>
<polygon fill="black" stroke="black" points="902.68,-480.11 902.7,-469.52 896.07,-477.79 902.68,-480.11"/>
</g>
<!-- YAC -->
<g id="node20" class="node">
<title>YAC</title>
<polygon fill="#79c547" stroke="black" points="778,-541.34 724,-541.34 724,-505.34 778,-505.34 778,-541.34"/>
<text text-anchor="middle" x="751" y="-519.64" font-family="Times,serif" font-size="14.00">YAC</text>
</g>
<!-- ICON&#45;&gt;YAC -->
<g id="edge19" class="edge">
<title>ICON&#45;&gt;YAC</title>
<path fill="none" stroke="black" d="M539.75,-587.25C580.22,-578.16 650.96,-561.18 710,-541.34 711.42,-540.86 712.85,-540.36 714.3,-539.84"/>
<polygon fill="black" stroke="black" points="715.75,-543.04 723.85,-536.21 713.26,-536.49 715.75,-543.04"/>
</g>
<!-- ICON&#45;TIXI -->
<g id="node21" class="node">
<title>ICON&#45;TIXI</title>
<polygon fill="#79c547" stroke="black" points="979.5,-541.34 898.5,-541.34 898.5,-505.34 979.5,-505.34 979.5,-541.34"/>
<text text-anchor="middle" x="939" y="-519.64" font-family="Times,serif" font-size="14.00">ICON&#45;TIXI</text>
</g>
<!-- ICON&#45;&gt;ICON&#45;TIXI -->
<g id="edge20" class="edge">
<title>ICON&#45;&gt;ICON&#45;TIXI</title>
<path fill="none" stroke="black" d="M539.59,-591.53C605.31,-585.48 758.21,-569.43 884,-541.34 885.46,-541.01 886.94,-540.67 888.43,-540.3"/>
<polygon fill="black" stroke="black" points="889.56,-543.63 898.35,-537.7 887.79,-536.85 889.56,-543.63"/>
</g>
<!-- CUDA&#45;&gt;STDC++ -->
<g id="edge21" class="edge">
<title>CUDA&#45;&gt;STDC++</title>
<path fill="none" stroke="black" d="M72,-433.04C72,-425.32 72,-416.05 72,-407.45"/>
<polygon fill="black" stroke="black" points="75.5,-407.44 72,-397.44 68.5,-407.44 75.5,-407.44"/>
</g>
<!-- ROCm&#45;&gt;STDC++ -->
<g id="edge22" class="edge">
<title>ROCm&#45;&gt;STDC++</title>
<path fill="none" stroke="black" d="M50.48,-508.58C33.66,-495.91 13.63,-475.59 17,-452.34"/>
</g>
<!-- ROCm&#45;&gt;CUDA -->
<g id="edge23" class="edge">
<title>ROCm&#45;&gt;CUDA</title>
<path fill="none" stroke="black" d="M72,-505.04C72,-497.32 72,-488.05 72,-479.45"/>
<polygon fill="black" stroke="black" points="75.5,-479.44 72,-469.44 68.5,-479.44 75.5,-479.44"/>
</g>
<!-- HDF5&#45;&gt;MPI -->
<g id="edge24" class="edge">
<title>HDF5&#45;&gt;MPI</title>
<path fill="none" stroke="black" d="M425.29,-217.4C428.26,-209.4 431.88,-199.67 435.19,-190.74"/>
<polygon fill="black" stroke="black" points="438.56,-191.72 438.76,-181.13 432,-189.28 438.56,-191.72"/>
</g>
<!-- HDF5&#45;&gt;ZLIB -->
<g id="edge25" class="edge">
<title>HDF5&#45;&gt;ZLIB</title>
<path fill="none" stroke="black" d="M448.62,-227.56C504.34,-214.82 624.71,-187.28 686.58,-173.13"/>
<polygon fill="black" stroke="black" points="687.73,-176.46 696.7,-170.81 686.17,-169.63 687.73,-176.46"/>
</g>
<!-- AEC / SZIP -->
<g id="node22" class="node">
<title>AEC / SZIP</title>
<ellipse fill="#def1d1" stroke="black" cx="306" cy="-163.34" rx="53.89" ry="18"/>
<text text-anchor="middle" x="306" y="-159.64" font-family="Times,serif" font-size="14.00">AEC / SZIP</text>
</g>
<!-- HDF5&#45;&gt;AEC / SZIP -->
<g id="edge26" class="edge">
<title>HDF5&#45;&gt;AEC / SZIP</title>
<path fill="none" stroke="black" d="M398.01,-221.34C381.48,-211.1 358.13,-196.63 339.09,-184.84"/>
<polygon fill="black" stroke="black" points="340.76,-181.75 330.41,-179.46 337.07,-187.7 340.76,-181.75"/>
</g>
<!-- NetCDF&#45;C -->
<g id="node23" class="node">
<title>NetCDF&#45;C</title>
<ellipse fill="#d1e8fc" stroke="black" cx="559" cy="-307.34" rx="49.29" ry="18"/>
<text text-anchor="middle" x="559" y="-303.64" font-family="Times,serif" font-size="14.00">NetCDF&#45;C</text>
</g>
<!-- NetCDF&#45;Fortran&#45;&gt;NetCDF&#45;C -->
<g id="edge27" class="edge">
<title>NetCDF&#45;Fortran&#45;&gt;NetCDF&#45;C</title>
<path fill="none" stroke="black" d="M559,-361.04C559,-353.32 559,-344.05 559,-335.45"/>
<polygon fill="black" stroke="black" points="562.5,-335.44 559,-325.44 555.5,-335.44 562.5,-335.44"/>
</g>
<!-- ECRAD&#45;&gt;NetCDF&#45;Fortran -->
<g id="edge28" class="edge">
<title>ECRAD&#45;&gt;NetCDF&#45;Fortran</title>
<path fill="none" stroke="black" d="M623.95,-508.72C605.53,-499.53 582.61,-486.04 566,-469.34 559.82,-463.13 557,-461.05 556,-452.34"/>
</g>
<!-- LAPACK&#45;&gt;BLAS -->
<g id="edge29" class="edge">
<title>LAPACK&#45;&gt;BLAS</title>
<path fill="none" stroke="black" d="M734.92,-435.15C749.8,-424.84 769.62,-411.1 785.69,-399.96"/>
<polygon fill="black" stroke="black" points="787.96,-402.65 794.18,-394.08 783.97,-396.9 787.96,-402.65"/>
</g>
<!-- RTTOV&#45;&gt;HDF5 -->
<g id="edge30" class="edge">
<title>RTTOV&#45;&gt;HDF5</title>
<path fill="none" stroke="black" d="M534.62,-511.76C514.37,-503.35 489.08,-489.6 474,-469.34 427.35,-406.69 419.55,-310.45 418.7,-263.71"/>
<polygon fill="black" stroke="black" points="422.2,-263.43 418.62,-253.46 415.2,-263.49 422.2,-263.43"/>
</g>
<!-- RTTOV&#45;&gt;NetCDF&#45;Fortran -->
<g id="edge31" class="edge">
<title>RTTOV&#45;&gt;NetCDF&#45;Fortran</title>
<path fill="none" stroke="black" d="M563.27,-505.11C561.1,-490.97 558.08,-470.39 556,-452.34"/>
</g>
<!-- RTTOV&#45;&gt;LAPACK -->
<g id="edge32" class="edge">
<title>RTTOV&#45;&gt;LAPACK</title>
<path fill="none" stroke="black" d="M592.62,-509.66C615.83,-498.61 649.75,-482.46 675.67,-470.12"/>
<polygon fill="black" stroke="black" points="677.3,-473.22 684.82,-465.76 674.29,-466.9 677.3,-473.22"/>
</g>
<!-- SCT&#45;&gt;MPI -->
<g id="edge33" class="edge">
<title>SCT&#45;&gt;MPI</title>
<path fill="none" stroke="black" d="M297.15,-289.3C286,-274.32 274.45,-252.47 286,-236.34"/>
</g>
<!-- SCT&#45;&gt;HDF5 -->
<g id="edge34" class="edge">
<title>SCT&#45;&gt;HDF5</title>
<path fill="none" stroke="black" d="M338.18,-289.22C353.94,-278.9 374.03,-265.76 390.24,-255.15"/>
<polygon fill="black" stroke="black" points="392.34,-257.96 398.79,-249.56 388.51,-252.11 392.34,-257.96"/>
</g>
<!-- YAXT&#45;&gt;MPI -->
<g id="edge35" class="edge">
<title>YAXT&#45;&gt;MPI</title>
<path fill="none" stroke="black" d="M627.58,-433.32C643.44,-420.9 661.91,-402.4 668,-380.34"/>
<path fill="none" stroke="black" d="M668,-378.34C696.36,-275.55 546.31,-203.39 477.75,-176.25"/>
<polygon fill="black" stroke="black" points="478.85,-172.92 468.26,-172.57 476.32,-179.44 478.85,-172.92"/>
</g>
<!-- ECCODES&#45;&gt;AEC / SZIP -->
<g id="edge36" class="edge">
<title>ECCODES&#45;&gt;AEC / SZIP</title>
<path fill="none" stroke="black" d="M182.52,-433.29C193.88,-403.75 218.29,-341.26 241,-289.34 251.43,-265.48 256.12,-260.44 266,-236.34"/>
<path fill="none" stroke="black" d="M266,-234.34C271.93,-218.88 280.92,-202.76 288.87,-189.9"/>
<polygon fill="black" stroke="black" points="292.02,-191.47 294.43,-181.16 286.11,-187.72 292.02,-191.47"/>
</g>
<!-- CDI&#45;&gt;MPI -->
<g id="edge37" class="edge">
<title>CDI&#45;&gt;MPI</title>
<path fill="none" stroke="black" d="M457.24,-505.27C454.02,-491.04 449.09,-470.26 444,-452.34"/>
<path fill="none" stroke="black" d="M444,-450.34C437.16,-426.27 429.29,-421.99 425,-397.34 422.26,-381.58 422.25,-377.1 425,-361.34 435.15,-303.17 469.45,-295.38 470,-236.34"/>
<path fill="none" stroke="black" d="M470,-234.34C468.85,-218.96 463.33,-202.68 457.76,-189.69"/>
<polygon fill="black" stroke="black" points="460.89,-188.13 453.57,-180.48 454.52,-191.03 460.89,-188.13"/>
</g>
<!-- CDI&#45;&gt;YAXT -->
<g id="edge38" class="edge">
<title>CDI&#45;&gt;YAXT</title>
<path fill="none" stroke="black" d="M488.19,-508.84C510.23,-497.9 541.49,-482.38 565.68,-470.37"/>
<polygon fill="black" stroke="black" points="567.5,-473.38 574.9,-465.8 564.38,-467.11 567.5,-473.38"/>
</g>
<!-- CDI&#45;&gt;ECCODES -->
<g id="edge39" class="edge">
<title>CDI&#45;&gt;ECCODES</title>
<path fill="none" stroke="black" d="M433.78,-513.61C424.67,-510.81 414.44,-507.8 405,-505.34 332.8,-486.49 313.56,-486.78 241,-469.34 235.75,-468.08 230.28,-466.72 224.84,-465.34"/>
<polygon fill="black" stroke="black" points="225.68,-461.94 215.12,-462.84 223.94,-468.72 225.68,-461.94"/>
</g>
<!-- CDI&#45;&gt;AEC / SZIP -->
<g id="edge40" class="edge">
<title>CDI&#45;&gt;AEC / SZIP</title>
<path fill="none" stroke="black" d="M449.52,-505.21C436.83,-486.74 415.33,-456.82 394,-433.34 323.79,-356.05 228.61,-333.83 266,-236.34"/>
</g>
<!-- CDI&#45;&gt;NetCDF&#45;C -->
<g id="edge41" class="edge">
<title>CDI&#45;&gt;NetCDF&#45;C</title>
<path fill="none" stroke="black" d="M444,-450.34C435.33,-419.82 406.96,-402.15 430,-380.34"/>
</g>
<!-- PPM -->
<g id="node24" class="node">
<title>PPM</title>
<polygon fill="#def1d1" stroke="black" points="537,-469.34 483,-469.34 483,-433.34 537,-433.34 537,-469.34"/>
<text text-anchor="middle" x="510" y="-447.64" font-family="Times,serif" font-size="14.00">PPM</text>
</g>
<!-- CDI&#45;&gt;PPM -->
<g id="edge42" class="edge">
<title>CDI&#45;&gt;PPM</title>
<path fill="none" stroke="black" d="M473.11,-505.04C478.87,-496.81 485.86,-486.82 492.21,-477.76"/>
<polygon fill="black" stroke="black" points="495.16,-479.64 498.03,-469.44 489.42,-475.63 495.16,-479.64"/>
</g>
<!-- SERIALBOX&#45;&gt;STDC++ -->
<g id="edge43" class="edge">
<title>SERIALBOX&#45;&gt;STDC++</title>
<path fill="none" stroke="black" d="M282.65,-438.62C236.92,-425.97 164.32,-405.88 117.42,-392.91"/>
<polygon fill="black" stroke="black" points="118.1,-389.46 107.53,-390.17 116.23,-396.21 118.1,-389.46"/>
</g>
<!-- SERIALBOX&#45;&gt;NetCDF&#45;C -->
<g id="edge44" class="edge">
<title>SERIALBOX&#45;&gt;NetCDF&#45;C</title>
<path fill="none" stroke="black" d="M352.72,-435.38C375.04,-422.55 406.46,-402.63 430,-380.34"/>
<path fill="none" stroke="black" d="M430,-378.34C454.91,-354.75 489.29,-336.62 516.3,-324.72"/>
<polygon fill="black" stroke="black" points="517.7,-327.93 525.52,-320.77 514.95,-321.49 517.7,-327.93"/>
</g>
<!-- YAC&#45;&gt;MPI -->
<g id="edge45" class="edge">
<title>YAC&#45;&gt;MPI</title>
<path fill="none" stroke="black" d="M648,-450.34C634.46,-420.96 661.57,-412.05 668,-380.34"/>
</g>
<!-- YAC&#45;&gt;LAPACK -->
<g id="edge46" class="edge">
<title>YAC&#45;&gt;LAPACK</title>
<path fill="none" stroke="black" d="M741.61,-505.04C737.24,-496.98 731.94,-487.23 727.1,-478.32"/>
<polygon fill="black" stroke="black" points="730.13,-476.56 722.29,-469.44 723.98,-479.9 730.13,-476.56"/>
</g>
<!-- YAC&#45;&gt;YAXT -->
<g id="edge47" class="edge">
<title>YAC&#45;&gt;YAXT</title>
<path fill="none" stroke="black" d="M723.67,-509.5C699.73,-498.25 664.74,-481.82 638.42,-469.45"/>
<polygon fill="black" stroke="black" points="639.69,-466.18 629.16,-465.1 636.72,-472.52 639.69,-466.18"/>
</g>
<!-- YAC&#45;&gt;MTIME -->
<g id="edge48" class="edge">
<title>YAC&#45;&gt;MTIME</title>
<path fill="none" stroke="black" d="M778.35,-510.15C802.9,-499.2 839.26,-482.99 867.24,-470.51"/>
<polygon fill="black" stroke="black" points="868.67,-473.71 876.38,-466.44 865.82,-467.32 868.67,-473.71"/>
</g>
<!-- YAC&#45;&gt;NetCDF&#45;C -->
<g id="edge49" class="edge">
<title>YAC&#45;&gt;NetCDF&#45;C</title>
<path fill="none" stroke="black" d="M723.7,-511.39C703.72,-502.35 676.92,-488 658,-469.34 651.76,-463.18 651.51,-460.37 648,-452.34"/>
<path fill="none" stroke="black" d="M648,-450.34C632.08,-413.86 658.67,-395.36 638,-361.34 628.91,-346.38 613.8,-334.72 599.22,-326.19"/>
<polygon fill="black" stroke="black" points="600.72,-323.02 590.27,-321.29 597.36,-329.16 600.72,-323.02"/>
</g>
<!-- FYAML -->
<g id="node25" class="node">
<title>FYAML</title>
<ellipse fill="#d1e8fc" stroke="black" cx="818" cy="-451.34" rx="40.89" ry="18"/>
<text text-anchor="middle" x="818" y="-447.64" font-family="Times,serif" font-size="14.00">FYAML</text>
</g>
<!-- YAC&#45;&gt;FYAML -->
<g id="edge50" class="edge">
<title>YAC&#45;&gt;FYAML</title>
<path fill="none" stroke="black" d="M767.56,-505.04C776,-496.22 786.39,-485.37 795.54,-475.81"/>
<polygon fill="black" stroke="black" points="798.16,-478.13 802.55,-468.48 793.1,-473.29 798.16,-478.13"/>
</g>
<!-- XML2 -->
<g id="node26" class="node">
<title>XML2</title>
<ellipse fill="#d1e8fc" stroke="black" cx="945" cy="-235.34" rx="35.19" ry="18"/>
<text text-anchor="middle" x="945" y="-231.64" font-family="Times,serif" font-size="14.00">XML2</text>
</g>
<!-- ICON&#45;TIXI&#45;&gt;XML2 -->
<g id="edge51" class="edge">
<title>ICON&#45;TIXI&#45;&gt;XML2</title>
<path fill="none" stroke="black" d="M949.63,-504.9C955.1,-494.88 961.2,-481.85 964,-469.34 980.43,-395.98 963.14,-306.8 952.32,-263.1"/>
<polygon fill="black" stroke="black" points="955.67,-262.07 949.8,-253.25 948.89,-263.8 955.67,-262.07"/>
</g>
<!-- NetCDF&#45;C&#45;&gt;ZLIB -->
<g id="edge52" class="edge">
<title>NetCDF&#45;C&#45;&gt;ZLIB</title>
<path fill="none" stroke="black" d="M577.4,-290.6C607.28,-265.04 666.4,-214.47 700.04,-185.69"/>
<polygon fill="black" stroke="black" points="702.69,-188.03 708.02,-178.87 698.14,-182.71 702.69,-188.03"/>
</g>
<!-- NetCDF&#45;C&#45;&gt;HDF5 -->
<g id="edge53" class="edge">
<title>NetCDF&#45;C&#45;&gt;HDF5</title>
<path fill="none" stroke="black" d="M531.01,-292.34C508.04,-280.86 475.5,-264.59 451.41,-252.55"/>
<polygon fill="black" stroke="black" points="452.82,-249.33 442.31,-247.99 449.69,-255.6 452.82,-249.33"/>
</g>
<!-- PPM&#45;&gt;MPI -->
<g id="edge54" class="edge">
<title>PPM&#45;&gt;MPI</title>
<path fill="none" stroke="black" d="M497.58,-433.1C491.12,-423.15 483.79,-410.11 480,-397.34 459.6,-328.61 470,-308.03 470,-236.34"/>
</g>
<!-- PPM&#45;&gt;NetCDF&#45;Fortran -->
<g id="edge55" class="edge">
<title>PPM&#45;&gt;NetCDF&#45;Fortran</title>
<path fill="none" stroke="black" d="M522.11,-433.04C527.87,-424.81 534.86,-414.82 541.21,-405.76"/>
<polygon fill="black" stroke="black" points="544.16,-407.64 547.03,-397.44 538.42,-403.63 544.16,-407.64"/>
</g>
<!-- XML2&#45;&gt;ZLIB -->
<g id="edge56" class="edge">
<title>XML2&#45;&gt;ZLIB</title>
<path fill="none" stroke="black" d="M916.81,-224.38C910.01,-222.03 902.76,-219.56 896,-217.34 849.77,-202.16 796.14,-185.73 761.44,-175.25"/>
<polygon fill="black" stroke="black" points="762.33,-171.86 751.75,-172.33 760.31,-178.56 762.33,-171.86"/>
</g>
<!-- bottomNode -->
<!-- external -->
<g id="node28" class="node">
<title>external</title>
<ellipse fill="white" stroke="black" cx="133" cy="-42.87" rx="46.84" ry="26.74"/>
<text text-anchor="middle" x="133" y="-46.67" font-family="Times,serif" font-size="14.00">External</text>
<text text-anchor="middle" x="133" y="-31.67" font-family="Times,serif" font-size="14.00">packages</text>
</g>
<!-- bottomNode&#45;&gt;external -->
<!-- bundled -->
<g id="node29" class="node">
<title>bundled</title>
<polygon fill="white" stroke="black" points="272,-69.37 198,-69.37 198,-16.37 272,-16.37 272,-69.37"/>
<text text-anchor="middle" x="235" y="-54.17" font-family="Times,serif" font-size="14.00">Optionally</text>
<text text-anchor="middle" x="235" y="-39.17" font-family="Times,serif" font-size="14.00">bundled</text>
<text text-anchor="middle" x="235" y="-24.17" font-family="Times,serif" font-size="14.00">packages</text>
</g>
<!-- external&#45;&gt;bundled -->
<!-- mandatoryIcon -->
<g id="node30" class="node">
<title>mandatoryIcon</title>
<polygon fill="#47a1f1" stroke="transparent" points="431.5,-61.87 290.5,-61.87 290.5,-23.87 431.5,-23.87 431.5,-61.87"/>
<text text-anchor="middle" x="361" y="-46.67" font-family="Times,serif" font-size="14.00">Immediate mandatory</text>
<text text-anchor="middle" x="361" y="-31.67" font-family="Times,serif" font-size="14.00">dependencies of ICON</text>
</g>
<!-- bundled&#45;&gt;mandatoryIcon -->
<!-- optionalIcon -->
<g id="node31" class="node">
<title>optionalIcon</title>
<polygon fill="#79c547" stroke="transparent" points="590.5,-61.87 449.5,-61.87 449.5,-23.87 590.5,-23.87 590.5,-61.87"/>
<text text-anchor="middle" x="520" y="-46.67" font-family="Times,serif" font-size="14.00">Immediate optional</text>
<text text-anchor="middle" x="520" y="-31.67" font-family="Times,serif" font-size="14.00">dependencies of ICON</text>
</g>
<!-- mandatoryIcon&#45;&gt;optionalIcon -->
<!-- mandatoryBundled -->
<g id="node32" class="node">
<title>mandatoryBundled</title>
<polygon fill="#d1e8fc" stroke="transparent" points="747,-69.37 609,-69.37 609,-16.37 747,-16.37 747,-69.37"/>
<text text-anchor="middle" x="678" y="-54.17" font-family="Times,serif" font-size="14.00">Immediate mandatory</text>
<text text-anchor="middle" x="678" y="-39.17" font-family="Times,serif" font-size="14.00">dependencies of</text>
<text text-anchor="middle" x="678" y="-24.17" font-family="Times,serif" font-size="14.00">the bundled packages</text>
</g>
<!-- optionalIcon&#45;&gt;mandatoryBundled -->
<!-- optionalBundled -->
<g id="node33" class="node">
<title>optionalBundled</title>
<polygon fill="#def1d1" stroke="transparent" points="899,-69.37 765,-69.37 765,-16.37 899,-16.37 899,-69.37"/>
<text text-anchor="middle" x="832" y="-54.17" font-family="Times,serif" font-size="14.00">Immediate optional</text>
<text text-anchor="middle" x="832" y="-39.17" font-family="Times,serif" font-size="14.00">dependencies of</text>
<text text-anchor="middle" x="832" y="-24.17" font-family="Times,serif" font-size="14.00">the bundled packages</text>
</g>
<!-- mandatoryBundled&#45;&gt;optionalBundled -->
</g>
</svg>
