<?xml version="1.0" encoding="UTF-8" standalone="no"?>
<!DOCTYPE svg PUBLIC "-//W3C//DTD SVG 1.1//EN"
 "http://www.w3.org/Graphics/SVG/1.1/DTD/svg11.dtd">
<!-- Generated by graphviz version 2.43.0 (0)
 -->
<!-- Title: ICON Pages: 1 -->
<svg width="1240pt" height="565pt"
 viewBox="0.00 0.00 1240.00 565.34" xmlns="http://www.w3.org/2000/svg" xmlns:xlink="http://www.w3.org/1999/xlink">
<g id="graph0" class="graph" transform="scale(1 1) rotate(0) translate(4 561.34)">
<title>ICON</title>
<polygon fill="white" stroke="transparent" points="-4,4 -4,-561.34 1236,-561.34 1236,4 -4,4"/>
<g id="clust1" class="cluster">
<title>clusterMain</title>
</g>
<g id="clust20" class="cluster">
<title>clusterLegend</title>
<polygon fill="none" stroke="black" points="209,-8 209,-77.74 1224,-77.74 1224,-8 209,-8"/>
</g>
<!-- ICON -->
<g id="node1" class="node">
<title>ICON</title>
<polygon fill="white" stroke="black" stroke-width="2" points="518,-541.34 444,-541.34 444,-505.34 518,-505.34 518,-541.34"/>
<text text-anchor="middle" x="481" y="-518.34" font-family="italic" font-size="20.00">ICON</text>
</g>
<!-- STDC++ -->
<g id="node2" class="node">
<title>STDC++</title>
<ellipse fill="#79c547" stroke="black" cx="165" cy="-379.34" rx="52.79" ry="18"/>
<text text-anchor="middle" x="165" y="-375.64" font-family="italic" font-size="14.00">STDC++</text>
</g>
<!-- ICON&#45;&gt;STDC++ -->
<g id="edge1" class="edge">
<title>ICON&#45;&gt;STDC++</title>
<path fill="none" stroke="black" d="M443.9,-520.34C367.83,-515.62 197.35,-501.66 150,-469.34 142.76,-464.4 142.84,-460.63 140,-452.34"/>
<path fill="none" stroke="black" d="M140,-450.34C134.95,-435.6 140.22,-419.2 147.2,-405.98"/>
<polygon fill="black" stroke="black" points="150.44,-407.39 152.47,-396.99 144.4,-403.85 150.44,-407.39"/>
</g>
<!-- CUDA -->
<g id="node3" class="node">
<title>CUDA</title>
<ellipse fill="#79c547" stroke="black" cx="55" cy="-379.34" rx="38.99" ry="18"/>
<text text-anchor="middle" x="55" y="-375.64" font-family="italic" font-size="14.00">CUDA</text>
</g>
<!-- ICON&#45;&gt;CUDA -->
<g id="edge2" class="edge">
<title>ICON&#45;&gt;CUDA</title>
<path fill="none" stroke="black" d="M443.79,-520.56C343.64,-515.39 74.1,-498.83 48,-469.34 33.13,-452.54 37.32,-426.28 43.76,-406.63"/>
<polygon fill="black" stroke="black" points="47.12,-407.64 47.25,-397.04 40.54,-405.24 47.12,-407.64"/>
</g>
<!-- CUB -->
<g id="node4" class="node">
<title>CUB</title>
<ellipse fill="#79c547" stroke="black" cx="89" cy="-451.34" rx="32.49" ry="18"/>
<text text-anchor="middle" x="89" y="-447.64" font-family="italic" font-size="14.00">CUB</text>
</g>
<!-- ICON&#45;&gt;CUB -->
<g id="edge3" class="edge">
<title>ICON&#45;&gt;CUB</title>
<path fill="none" stroke="black" d="M443.89,-519.14C380,-513.08 245.46,-497.9 135,-469.34 131.41,-468.41 127.71,-467.31 124.04,-466.11"/>
<polygon fill="black" stroke="black" points="125.09,-462.77 114.5,-462.8 122.8,-469.39 125.09,-462.77"/>
</g>
<!-- MPI -->
<g id="node5" class="node">
<title>MPI</title>
<ellipse fill="#79c547" stroke="black" cx="358" cy="-163.34" rx="29.8" ry="18"/>
<text text-anchor="middle" x="358" y="-159.64" font-family="italic" font-size="14.00">MPI</text>
</g>
<!-- ICON&#45;&gt;MPI -->
<g id="edge4" class="edge">
<title>ICON&#45;&gt;MPI</title>
<path fill="none" stroke="black" d="M237,-378.34C248.94,-307.65 206.89,-276.77 247,-217.34 256.15,-203.78 294.09,-187.47 323.1,-176.56"/>
<polygon fill="black" stroke="black" points="324.36,-179.82 332.53,-173.08 321.94,-173.26 324.36,-179.82"/>
</g>
<!-- NetCDF&#45;Fortran -->
<g id="node6" class="node">
<title>NetCDF&#45;Fortran</title>
<ellipse fill="#47a1f1" stroke="black" cx="454" cy="-379.34" rx="86.38" ry="18"/>
<text text-anchor="middle" x="454" y="-375.64" font-family="italic" font-size="14.00">NetCDF&#45;Fortran</text>
</g>
<!-- ICON&#45;&gt;NetCDF&#45;Fortran -->
<g id="edge5" class="edge">
<title>ICON&#45;&gt;NetCDF&#45;Fortran</title>
<path fill="none" stroke="black" d="M454,-450.34C444.92,-438.39 444.6,-421.67 446.71,-407.57"/>
<polygon fill="black" stroke="black" points="450.21,-407.91 448.68,-397.43 443.33,-406.57 450.21,-407.91"/>
</g>
<!-- RTE+RRTMGP -->
<g id="node7" class="node">
<title>RTE+RRTMGP</title>
<polygon fill="#79c547" stroke="black" points="283,-469.34 159,-469.34 159,-433.34 283,-433.34 283,-469.34"/>
<text text-anchor="middle" x="221" y="-447.64" font-family="italic" font-size="14.00">RTE+RRTMGP</text>
</g>
<!-- ICON&#45;&gt;RTE+RRTMGP -->
<g id="edge6" class="edge">
<title>ICON&#45;&gt;RTE+RRTMGP</title>
<path fill="none" stroke="black" d="M443.75,-512.31C404.54,-501.75 341.83,-484.87 292.93,-471.71"/>
<polygon fill="black" stroke="black" points="293.6,-468.26 283.03,-469.04 291.78,-475.02 293.6,-468.26"/>
</g>
<!-- ECRAD -->
<g id="node8" class="node">
<title>ECRAD</title>
<polygon fill="#79c547" stroke="black" points="542.5,-469.34 473.5,-469.34 473.5,-433.34 542.5,-433.34 542.5,-469.34"/>
<text text-anchor="middle" x="508" y="-447.64" font-family="italic" font-size="14.00">ECRAD</text>
</g>
<!-- ICON&#45;&gt;ECRAD -->
<g id="edge7" class="edge">
<title>ICON&#45;&gt;ECRAD</title>
<path fill="none" stroke="black" d="M487.67,-505.04C490.71,-497.15 494.38,-487.64 497.76,-478.89"/>
<polygon fill="black" stroke="black" points="501.07,-480.03 501.4,-469.44 494.54,-477.51 501.07,-480.03"/>
</g>
<!-- RTTOV -->
<g id="node9" class="node">
<title>RTTOV</title>
<ellipse fill="#79c547" stroke="black" cx="604" cy="-451.34" rx="43.59" ry="18"/>
<text text-anchor="middle" x="604" y="-447.64" font-family="italic" font-size="14.00">RTTOV</text>
</g>
<!-- ICON&#45;&gt;RTTOV -->
<g id="edge8" class="edge">
<title>ICON&#45;&gt;RTTOV</title>
<path fill="none" stroke="black" d="M511.09,-505.22C529.06,-494.99 551.92,-481.98 570.47,-471.42"/>
<polygon fill="black" stroke="black" points="572.22,-474.45 579.18,-466.46 568.76,-468.37 572.22,-474.45"/>
</g>
<!-- SCT -->
<g id="node10" class="node">
<title>SCT</title>
<polygon fill="#79c547" stroke="black" points="356,-325.34 302,-325.34 302,-289.34 356,-289.34 356,-325.34"/>
<text text-anchor="middle" x="329" y="-303.64" font-family="italic" font-size="14.00">SCT</text>
</g>
<!-- ICON&#45;&gt;SCT -->
<g id="edge9" class="edge">
<title>ICON&#45;&gt;SCT</title>
<path fill="none" stroke="black" d="M454,-450.34C448.7,-443.36 450.59,-439.12 444,-433.34 413.15,-406.29 395.8,-415.48 359,-397.34 345.25,-390.56 334.53,-394.63 329,-380.34"/>
<path fill="none" stroke="black" d="M329,-378.34C323.77,-364.84 323.41,-348.74 324.52,-335.39"/>
<polygon fill="black" stroke="black" points="328,-335.7 325.66,-325.37 321.05,-334.91 328,-335.7"/>
</g>
<!-- YAXT -->
<g id="node11" class="node">
<title>YAXT</title>
<polygon fill="#79c547" stroke="black" points="853,-325.34 799,-325.34 799,-289.34 853,-289.34 853,-325.34"/>
<text text-anchor="middle" x="826" y="-303.64" font-family="italic" font-size="14.00">YAXT</text>
</g>
<!-- ICON&#45;&gt;YAXT -->
<g id="edge10" class="edge">
<title>ICON&#45;&gt;YAXT</title>
<path fill="none" stroke="black" d="M518.2,-523.05C610.48,-523.98 846.42,-521.13 901,-469.34 930.15,-441.68 928.18,-418.94 917,-380.34"/>
<path fill="none" stroke="black" d="M917,-378.34C910.34,-351.96 884.91,-333.81 862.62,-322.61"/>
<polygon fill="black" stroke="black" points="863.87,-319.33 853.33,-318.24 860.88,-325.66 863.87,-319.33"/>
</g>
<!-- CDI -->
<g id="node12" class="node">
<title>CDI</title>
<polygon fill="#47a1f1" stroke="black" points="310,-397.34 256,-397.34 256,-361.34 310,-361.34 310,-397.34"/>
<text text-anchor="middle" x="283" y="-375.64" font-family="italic" font-size="14.00">CDI</text>
</g>
<!-- ICON&#45;&gt;CDI -->
<g id="edge11" class="edge">
<title>ICON&#45;&gt;CDI</title>
<path fill="none" stroke="black" d="M477.26,-505.17C473.34,-490.11 466.05,-468.21 454,-452.34"/>
<path fill="none" stroke="black" d="M454,-450.34C448.7,-443.36 450.9,-438.75 444,-433.34 400.19,-398.97 376.45,-416.03 324,-397.34 322.59,-396.84 321.17,-396.32 319.73,-395.78"/>
<polygon fill="black" stroke="black" points="320.79,-392.43 310.2,-392.07 318.25,-398.96 320.79,-392.43"/>
</g>
<!-- SERIALBOX -->
<g id="node13" class="node">
<title>SERIALBOX</title>
<ellipse fill="#79c547" stroke="black" cx="368" cy="-451.34" rx="66.89" ry="18"/>
<text text-anchor="middle" x="368" y="-447.64" font-family="italic" font-size="14.00">SERIALBOX</text>
</g>
<!-- ICON&#45;&gt;SERIALBOX -->
<g id="edge12" class="edge">
<title>ICON&#45;&gt;SERIALBOX</title>
<path fill="none" stroke="black" d="M453.36,-505.22C437.92,-495.65 418.56,-483.66 402.18,-473.51"/>
<polygon fill="black" stroke="black" points="403.77,-470.38 393.43,-468.09 400.08,-476.33 403.77,-470.38"/>
</g>
<!-- MTIME -->
<g id="node14" class="node">
<title>MTIME</title>
<polygon fill="#47a1f1" stroke="black" points="784,-397.34 714,-397.34 714,-361.34 784,-361.34 784,-397.34"/>
<text text-anchor="middle" x="749" y="-375.64" font-family="italic" font-size="14.00">MTIME</text>
</g>
<!-- ICON&#45;&gt;MTIME -->
<g id="edge13" class="edge">
<title>ICON&#45;&gt;MTIME</title>
<path fill="none" stroke="black" d="M695,-450.34C705.31,-434.97 717.89,-418.55 728.31,-405.47"/>
<polygon fill="black" stroke="black" points="731.26,-407.4 734.8,-397.41 725.8,-403.01 731.26,-407.4"/>
</g>
<!-- BLAS -->
<g id="node15" class="node">
<title>BLAS</title>
<ellipse fill="#47a1f1" stroke="black" cx="661" cy="-307.34" rx="36.29" ry="18"/>
<text text-anchor="middle" x="661" y="-303.64" font-family="italic" font-size="14.00">BLAS</text>
</g>
<!-- ICON&#45;&gt;BLAS -->
<g id="edge14" class="edge">
<title>ICON&#45;&gt;BLAS</title>
<path fill="none" stroke="black" d="M695,-450.34C719.06,-414.47 696.03,-363.45 677.94,-333.33"/>
<polygon fill="black" stroke="black" points="680.81,-331.32 672.54,-324.7 674.87,-335.03 680.81,-331.32"/>
</g>
<!-- LAPACK -->
<g id="node16" class="node">
<title>LAPACK</title>
<ellipse fill="#47a1f1" stroke="black" cx="627" cy="-379.34" rx="48.99" ry="18"/>
<text text-anchor="middle" x="627" y="-375.64" font-family="italic" font-size="14.00">LAPACK</text>
</g>
<!-- ICON&#45;&gt;LAPACK -->
<g id="edge15" class="edge">
<title>ICON&#45;&gt;LAPACK</title>
<path fill="none" stroke="black" d="M518.12,-522.89C568.42,-521.33 656.35,-509.97 695,-452.34"/>
<path fill="none" stroke="black" d="M695,-450.34C708.08,-430.84 687.06,-411.93 665.04,-398.7"/>
<polygon fill="black" stroke="black" points="666.72,-395.63 656.29,-393.74 663.26,-401.71 666.72,-395.63"/>
</g>
<!-- YAC -->
<g id="node17" class="node">
<title>YAC</title>
<polygon fill="#79c547" stroke="black" points="776,-469.34 722,-469.34 722,-433.34 776,-433.34 776,-469.34"/>
<text text-anchor="middle" x="749" y="-447.64" font-family="italic" font-size="14.00">YAC</text>
</g>
<!-- ICON&#45;&gt;YAC -->
<g id="edge16" class="edge">
<title>ICON&#45;&gt;YAC</title>
<path fill="none" stroke="black" d="M518.1,-514.51C561.89,-505 636.76,-487.92 700,-469.34 704.03,-468.16 708.23,-466.84 712.38,-465.47"/>
<polygon fill="black" stroke="black" points="713.58,-468.76 721.94,-462.25 711.34,-462.13 713.58,-468.76"/>
</g>
<!-- ICON&#45;TIXI -->
<g id="node18" class="node">
<title>ICON&#45;TIXI</title>
<polygon fill="#79c547" stroke="black" points="891.5,-469.34 802.5,-469.34 802.5,-433.34 891.5,-433.34 891.5,-469.34"/>
<text text-anchor="middle" x="847" y="-447.64" font-family="italic" font-size="14.00">ICON&#45;TIXI</text>
</g>
<!-- ICON&#45;&gt;ICON&#45;TIXI -->
<g id="edge17" class="edge">
<title>ICON&#45;&gt;ICON&#45;TIXI</title>
<path fill="none" stroke="black" d="M518.19,-517.02C575.72,-508.53 689.59,-490.69 785,-469.34 787.48,-468.79 790.01,-468.2 792.55,-467.58"/>
<polygon fill="black" stroke="black" points="793.58,-470.93 802.42,-465.11 791.87,-464.14 793.58,-470.93"/>
</g>
<!-- ECCODES -->
<g id="node19" class="node">
<title>ECCODES</title>
<ellipse fill="#79c547" stroke="black" cx="139" cy="-307.34" rx="59.29" ry="18"/>
<text text-anchor="middle" x="139" y="-303.64" font-family="italic" font-size="14.00">ECCODES</text>
</g>
<!-- ICON&#45;&gt;ECCODES -->
<g id="edge18" class="edge">
<title>ICON&#45;&gt;ECCODES</title>
<path fill="none" stroke="black" d="M140,-450.34C122.78,-400.04 228.14,-432.76 237,-380.34"/>
<path fill="none" stroke="black" d="M237,-378.34C241.45,-351.99 217.03,-334.5 191.46,-323.6"/>
<polygon fill="black" stroke="black" points="192.63,-320.3 182.04,-319.87 190.05,-326.81 192.63,-320.3"/>
</g>
<!-- HDF5 -->
<g id="node20" class="node">
<title>HDF5</title>
<ellipse fill="#79c547" stroke="black" cx="386" cy="-235.34" rx="38.19" ry="18"/>
<text text-anchor="middle" x="386" y="-231.64" font-family="italic" font-size="14.00">HDF5</text>
</g>
<!-- ICON&#45;&gt;HDF5 -->
<g id="edge19" class="edge">
<title>ICON&#45;&gt;HDF5</title>
<path fill="none" stroke="black" d="M329,-378.34C318.72,-351.79 353.54,-351.41 365,-325.34 373.76,-305.42 379.16,-281.31 382.29,-263.21"/>
<polygon fill="black" stroke="black" points="385.74,-263.76 383.87,-253.33 378.83,-262.65 385.74,-263.76"/>
</g>
<!-- ZLIB -->
<g id="node21" class="node">
<title>ZLIB</title>
<ellipse fill="#79c547" stroke="black" cx="800" cy="-163.34" rx="33.29" ry="18"/>
<text text-anchor="middle" x="800" y="-159.64" font-family="italic" font-size="14.00">ZLIB</text>
</g>
<!-- ICON&#45;&gt;ZLIB -->
<g id="edge20" class="edge">
<title>ICON&#45;&gt;ZLIB</title>
<path fill="none" stroke="black" d="M917,-378.34C909.39,-348.17 916.34,-339.44 917,-308.34"/>
</g>
<!-- CUB&#45;&gt;STDC++ -->
<g id="edge21" class="edge">
<title>CUB&#45;&gt;STDC++</title>
<path fill="none" stroke="black" d="M105.12,-435.49C115.24,-426.17 128.51,-413.95 139.99,-403.38"/>
<polygon fill="black" stroke="black" points="142.6,-405.73 147.58,-396.38 137.86,-400.58 142.6,-405.73"/>
</g>
<!-- CUB&#45;&gt;CUDA -->
<g id="edge22" class="edge">
<title>CUB&#45;&gt;CUDA</title>
<path fill="none" stroke="black" d="M80.94,-433.75C76.98,-425.59 72.11,-415.56 67.66,-406.41"/>
<polygon fill="black" stroke="black" points="70.75,-404.76 63.24,-397.3 64.46,-407.82 70.75,-404.76"/>
</g>
<!-- NetCDF&#45;C -->
<g id="node22" class="node">
<title>NetCDF&#45;C</title>
<ellipse fill="#d1e8fc" stroke="black" cx="453" cy="-307.34" rx="57.69" ry="18"/>
<text text-anchor="middle" x="453" y="-303.64" font-family="italic" font-size="14.00">NetCDF&#45;C</text>
</g>
<!-- NetCDF&#45;Fortran&#45;&gt;NetCDF&#45;C -->
<g id="edge23" class="edge">
<title>NetCDF&#45;Fortran&#45;&gt;NetCDF&#45;C</title>
<path fill="none" stroke="black" d="M453.75,-361.04C453.64,-353.32 453.51,-344.05 453.39,-335.45"/>
<polygon fill="black" stroke="black" points="456.89,-335.39 453.24,-325.44 449.89,-335.49 456.89,-335.39"/>
</g>
<!-- ECRAD&#45;&gt;NetCDF&#45;Fortran -->
<g id="edge24" class="edge">
<title>ECRAD&#45;&gt;NetCDF&#45;Fortran</title>
<path fill="none" stroke="black" d="M494.65,-433.04C488.24,-424.73 480.44,-414.62 473.39,-405.48"/>
<polygon fill="black" stroke="black" points="476.07,-403.22 467.19,-397.44 470.53,-407.5 476.07,-403.22"/>
</g>
<!-- RTTOV&#45;&gt;NetCDF&#45;Fortran -->
<g id="edge25" class="edge">
<title>RTTOV&#45;&gt;NetCDF&#45;Fortran</title>
<path fill="none" stroke="black" d="M576.14,-437.34C553.8,-426.91 522.09,-412.11 496.57,-400.21"/>
<polygon fill="black" stroke="black" points="498.02,-397.02 487.48,-395.97 495.06,-403.37 498.02,-397.02"/>
</g>
<!-- RTTOV&#45;&gt;LAPACK -->
<g id="edge26" class="edge">
<title>RTTOV&#45;&gt;LAPACK</title>
<path fill="none" stroke="black" d="M609.57,-433.4C612.16,-425.52 615.3,-415.96 618.2,-407.13"/>
<polygon fill="black" stroke="black" points="621.53,-408.21 621.32,-397.62 614.88,-406.02 621.53,-408.21"/>
</g>
<!-- RTTOV&#45;&gt;HDF5 -->
<g id="edge27" class="edge">
<title>RTTOV&#45;&gt;HDF5</title>
<path fill="none" stroke="black" d="M591.95,-433.58C584.85,-423.36 575.93,-409.89 569,-397.34 543.51,-351.2 558.18,-325.68 520,-289.34 495.52,-266.04 459.57,-252.57 431.07,-245.05"/>
<polygon fill="black" stroke="black" points="431.88,-241.64 421.33,-242.63 430.19,-248.44 431.88,-241.64"/>
</g>
<!-- SCT&#45;&gt;MPI -->
<g id="edge28" class="edge">
<title>SCT&#45;&gt;MPI</title>
<path fill="none" stroke="black" d="M325.82,-289.09C323.88,-274.57 322.82,-253.49 329,-236.34"/>
</g>
<!-- SCT&#45;&gt;HDF5 -->
<g id="edge29" class="edge">
<title>SCT&#45;&gt;HDF5</title>
<path fill="none" stroke="black" d="M343.09,-289.04C350.13,-280.39 358.76,-269.8 366.43,-260.38"/>
<polygon fill="black" stroke="black" points="369.25,-262.45 372.85,-252.48 363.83,-258.03 369.25,-262.45"/>
</g>
<!-- YAXT&#45;&gt;MPI -->
<g id="edge30" class="edge">
<title>YAXT&#45;&gt;MPI</title>
<path fill="none" stroke="black" d="M823.21,-289.1C818.89,-268.45 808.48,-234.51 785,-217.34 723.96,-172.71 492.42,-165.52 398.23,-164.47"/>
<polygon fill="black" stroke="black" points="398,-160.97 387.96,-164.37 397.93,-167.97 398,-160.97"/>
</g>
<!-- CDI&#45;&gt;MPI -->
<g id="edge31" class="edge">
<title>CDI&#45;&gt;MPI</title>
<path fill="none" stroke="black" d="M283,-306.34C288.73,-269.56 316.37,-271.36 329,-236.34"/>
<path fill="none" stroke="black" d="M329,-234.34C334.33,-219.55 341.01,-203.31 346.61,-190.2"/>
<polygon fill="black" stroke="black" points="349.89,-191.43 350.64,-180.86 343.47,-188.65 349.89,-191.43"/>
</g>
<!-- CDI&#45;&gt;YAXT -->
<g id="edge32" class="edge">
<title>CDI&#45;&gt;YAXT</title>
<path fill="none" stroke="black" d="M310.41,-365.66C314.88,-363.98 319.51,-362.45 324,-361.34 489.5,-320.22 536.64,-345.31 706,-325.34 733.85,-322.06 765.23,-317.58 788.91,-314.05"/>
<polygon fill="black" stroke="black" points="789.51,-317.5 798.88,-312.55 788.47,-310.58 789.51,-317.5"/>
</g>
<!-- CDI&#45;&gt;ECCODES -->
<g id="edge33" class="edge">
<title>CDI&#45;&gt;ECCODES</title>
<path fill="none" stroke="black" d="M255.91,-365.17C233.95,-354.5 202.71,-339.31 178.04,-327.32"/>
<polygon fill="black" stroke="black" points="179.47,-324.12 168.95,-322.9 176.41,-330.42 179.47,-324.12"/>
</g>
<!-- CDI&#45;&gt;NetCDF&#45;C -->
<g id="edge34" class="edge">
<title>CDI&#45;&gt;NetCDF&#45;C</title>
<path fill="none" stroke="black" d="M310.34,-366.99C314.9,-365.1 319.58,-363.16 324,-361.34 352.78,-349.46 385.19,-336.15 410.32,-325.83"/>
<polygon fill="black" stroke="black" points="411.65,-329.07 419.58,-322.04 409,-322.59 411.65,-329.07"/>
</g>
<!-- PPM -->
<g id="node23" class="node">
<title>PPM</title>
<polygon fill="#def1d1" stroke="black" points="310,-253.34 256,-253.34 256,-217.34 310,-217.34 310,-253.34"/>
<text text-anchor="middle" x="283" y="-231.64" font-family="italic" font-size="14.00">PPM</text>
</g>
<!-- CDI&#45;&gt;PPM -->
<g id="edge35" class="edge">
<title>CDI&#45;&gt;PPM</title>
<path fill="none" stroke="black" d="M281.54,-361.25C280.67,-347.01 280.21,-326.23 283,-308.34"/>
<path fill="none" stroke="black" d="M283,-306.34C285.18,-292.36 285.38,-276.62 284.94,-263.61"/>
<polygon fill="black" stroke="black" points="288.43,-263.25 284.46,-253.43 281.44,-263.58 288.43,-263.25"/>
</g>
<!-- AEC / SZIP -->
<g id="node24" class="node">
<title>AEC / SZIP</title>
<ellipse fill="#def1d1" stroke="black" cx="233" cy="-163.34" rx="61.99" ry="18"/>
<text text-anchor="middle" x="233" y="-159.64" font-family="italic" font-size="14.00">AEC / SZIP</text>
</g>
<!-- CDI&#45;&gt;AEC / SZIP -->
<g id="edge36" class="edge">
<title>CDI&#45;&gt;AEC / SZIP</title>
<path fill="none" stroke="black" d="M265.3,-361.22C240.35,-334.91 199.68,-282.69 217,-236.34"/>
</g>
<!-- SERIALBOX&#45;&gt;STDC++ -->
<g id="edge38" class="edge">
<title>SERIALBOX&#45;&gt;STDC++</title>
<path fill="none" stroke="black" d="M328.38,-436.68C294.52,-425 245.81,-408.21 210.4,-395.99"/>
<polygon fill="black" stroke="black" points="211.38,-392.63 200.78,-392.68 209.09,-399.25 211.38,-392.63"/>
</g>
<!-- SERIALBOX&#45;&gt;NetCDF&#45;C -->
<g id="edge39" class="edge">
<title>SERIALBOX&#45;&gt;NetCDF&#45;C</title>
<path fill="none" stroke="black" d="M360.62,-433.33C353.64,-414.41 346,-383.6 359,-361.34 368.81,-344.55 386.11,-332.66 403.22,-324.46"/>
<polygon fill="black" stroke="black" points="404.94,-327.53 412.66,-320.28 402.1,-321.13 404.94,-327.53"/>
</g>
<!-- LAPACK&#45;&gt;BLAS -->
<g id="edge40" class="edge">
<title>LAPACK&#45;&gt;BLAS</title>
<path fill="none" stroke="black" d="M635.23,-361.4C639.2,-353.23 644.04,-343.25 648.46,-334.16"/>
<polygon fill="black" stroke="black" points="651.62,-335.65 652.85,-325.13 645.33,-332.6 651.62,-335.65"/>
</g>
<!-- YAC&#45;&gt;MPI -->
<g id="edge41" class="edge">
<title>YAC&#45;&gt;MPI</title>
<path fill="none" stroke="black" d="M803,-378.34C770.07,-204.48 500.94,-171.86 397.92,-165.75"/>
<polygon fill="black" stroke="black" points="398.08,-162.25 387.91,-165.21 397.7,-169.24 398.08,-162.25"/>
</g>
<!-- YAC&#45;&gt;YAXT -->
<g id="edge42" class="edge">
<title>YAC&#45;&gt;YAXT</title>
<path fill="none" stroke="black" d="M803,-378.34C800.21,-363.62 804.79,-347.71 810.58,-334.79"/>
<polygon fill="black" stroke="black" points="813.85,-336.07 815.14,-325.56 807.57,-332.97 813.85,-336.07"/>
</g>
<!-- YAC&#45;&gt;MTIME -->
<g id="edge43" class="edge">
<title>YAC&#45;&gt;MTIME</title>
<path fill="none" stroke="black" d="M749,-433.04C749,-425.32 749,-416.05 749,-407.45"/>
<polygon fill="black" stroke="black" points="752.5,-407.44 749,-397.44 745.5,-407.44 752.5,-407.44"/>
</g>
<!-- YAC&#45;&gt;LAPACK -->
<g id="edge44" class="edge">
<title>YAC&#45;&gt;LAPACK</title>
<path fill="none" stroke="black" d="M721.92,-434.8C703.99,-424.51 680.31,-410.93 661.09,-399.9"/>
<polygon fill="black" stroke="black" points="662.75,-396.82 652.33,-394.88 659.27,-402.89 662.75,-396.82"/>
</g>
<!-- YAC&#45;&gt;NetCDF&#45;C -->
<g id="edge45" class="edge">
<title>YAC&#45;&gt;NetCDF&#45;C</title>
<path fill="none" stroke="black" d="M774.68,-433.25C790.47,-420.41 807,-401.45 803,-380.34"/>
<path fill="none" stroke="black" d="M803,-378.34C801.37,-369.73 800.25,-366.27 793,-361.34 770.56,-346.09 608.71,-325.79 516.64,-315.29"/>
<polygon fill="black" stroke="black" points="516.92,-311.8 506.59,-314.15 516.13,-318.75 516.92,-311.8"/>
</g>
<!-- XML2 -->
<g id="node25" class="node">
<title>XML2</title>
<ellipse fill="#d1e8fc" stroke="black" cx="860" cy="-379.34" rx="38.19" ry="18"/>
<text text-anchor="middle" x="860" y="-375.64" font-family="italic" font-size="14.00">XML2</text>
</g>
<!-- YAC&#45;&gt;XML2 -->
<g id="edge46" class="edge">
<title>YAC&#45;&gt;XML2</title>
<path fill="none" stroke="black" d="M776.15,-433.22C792.18,-423.11 812.53,-410.28 829.16,-399.79"/>
<polygon fill="black" stroke="black" points="831.37,-402.53 837.97,-394.24 827.64,-396.61 831.37,-402.53"/>
</g>
<!-- ICON&#45;TIXI&#45;&gt;XML2 -->
<g id="edge47" class="edge">
<title>ICON&#45;TIXI&#45;&gt;XML2</title>
<path fill="none" stroke="black" d="M850.21,-433.04C851.65,-425.32 853.37,-416.05 854.96,-407.45"/>
<polygon fill="black" stroke="black" points="858.44,-407.92 856.82,-397.44 851.56,-406.64 858.44,-407.92"/>
</g>
<!-- ECCODES&#45;&gt;AEC / SZIP -->
<g id="edge48" class="edge">
<title>ECCODES&#45;&gt;AEC / SZIP</title>
<path fill="none" stroke="black" d="M166.64,-291.2C185.27,-279.17 208.02,-260.37 217,-236.34"/>
<path fill="none" stroke="black" d="M217,-234.34C222.16,-220.52 225.97,-204.51 228.58,-191.3"/>
<polygon fill="black" stroke="black" points="232.03,-191.87 230.41,-181.4 225.15,-190.59 232.03,-191.87"/>
</g>
<!-- HDF5&#45;&gt;MPI -->
<g id="edge49" class="edge">
<title>HDF5&#45;&gt;MPI</title>
<path fill="none" stroke="black" d="M379.22,-217.4C375.99,-209.31 372.05,-199.46 368.44,-190.45"/>
<polygon fill="black" stroke="black" points="371.68,-189.11 364.72,-181.13 365.18,-191.71 371.68,-189.11"/>
</g>
<!-- HDF5&#45;&gt;ZLIB -->
<g id="edge50" class="edge">
<title>HDF5&#45;&gt;ZLIB</title>
<path fill="none" stroke="black" d="M421.66,-228.31C498.05,-215.39 677.18,-185.11 758.52,-171.35"/>
<polygon fill="black" stroke="black" points="759.59,-174.72 768.86,-169.6 758.42,-167.82 759.59,-174.72"/>
</g>
<!-- HDF5&#45;&gt;AEC / SZIP -->
<g id="edge51" class="edge">
<title>HDF5&#45;&gt;AEC / SZIP</title>
<path fill="none" stroke="black" d="M359.35,-222.15C335.76,-211.35 300.97,-195.44 273.87,-183.04"/>
<polygon fill="black" stroke="black" points="275.18,-179.79 264.63,-178.81 272.27,-186.16 275.18,-179.79"/>
</g>
<!-- NetCDF&#45;C&#45;&gt;HDF5 -->
<g id="edge52" class="edge">
<title>NetCDF&#45;C&#45;&gt;HDF5</title>
<path fill="none" stroke="black" d="M437.12,-289.75C428.57,-280.82 417.88,-269.65 408.49,-259.84"/>
<polygon fill="black" stroke="black" points="410.75,-257.13 401.3,-252.33 405.69,-261.97 410.75,-257.13"/>
</g>
<!-- NetCDF&#45;C&#45;&gt;ZLIB -->
<g id="edge53" class="edge">
<title>NetCDF&#45;C&#45;&gt;ZLIB</title>
<path fill="none" stroke="black" d="M486.59,-292.6C552.4,-265.66 697.76,-206.18 764.83,-178.73"/>
<polygon fill="black" stroke="black" points="766.21,-181.95 774.14,-174.92 763.56,-175.47 766.21,-181.95"/>
</g>
<!-- PPM&#45;&gt;MPI -->
<g id="edge37" class="edge">
<title>PPM&#45;&gt;MPI</title>
<path fill="none" stroke="black" d="M301.54,-217.04C311.59,-207.65 324.11,-195.97 334.81,-185.99"/>
<polygon fill="black" stroke="black" points="337.29,-188.46 342.21,-179.08 332.51,-183.34 337.29,-188.46"/>
</g>
<!-- XML2&#45;&gt;ZLIB -->
<g id="edge54" class="edge">
<title>XML2&#45;&gt;ZLIB</title>
<path fill="none" stroke="black" d="M879.55,-363.64C894.28,-350.96 912.65,-331.12 917,-308.34"/>
<path fill="none" stroke="black" d="M917,-306.34C927.42,-251.73 869.59,-205.74 831.5,-181.89"/>
<polygon fill="black" stroke="black" points="833.13,-178.78 822.76,-176.59 829.49,-184.77 833.13,-178.78"/>
</g>
<!-- bottomNode -->
<!-- external -->
<g id="node27" class="node">
<title>external</title>
<ellipse fill="white" stroke="black" cx="276" cy="-42.87" rx="58.88" ry="26.74"/>
<text text-anchor="middle" x="276" y="-46.67" font-family="italic" font-size="14.00">External</text>
<text text-anchor="middle" x="276" y="-31.67" font-family="italic" font-size="14.00">packages</text>
</g>
<!-- bottomNode&#45;&gt;external -->
<!-- bundled -->
<g id="node28" class="node">
<title>bundled</title>
<polygon fill="white" stroke="black" points="443,-69.37 353,-69.37 353,-16.37 443,-16.37 443,-69.37"/>
<text text-anchor="middle" x="398" y="-54.17" font-family="italic" font-size="14.00">Optionally</text>
<text text-anchor="middle" x="398" y="-39.17" font-family="italic" font-size="14.00">bundled</text>
<text text-anchor="middle" x="398" y="-24.17" font-family="italic" font-size="14.00">packages</text>
</g>
<!-- external&#45;&gt;bundled -->
<!-- mandatoryIcon -->
<g id="node29" class="node">
<title>mandatoryIcon</title>
<polygon fill="#47a1f1" stroke="transparent" points="637,-61.87 461,-61.87 461,-23.87 637,-23.87 637,-61.87"/>
<text text-anchor="middle" x="549" y="-46.67" font-family="italic" font-size="14.00">Immediate mandatory</text>
<text text-anchor="middle" x="549" y="-31.67" font-family="italic" font-size="14.00">dependencies of ICON</text>
</g>
<!-- bundled&#45;&gt;mandatoryIcon -->
<!-- optionalIcon -->
<g id="node30" class="node">
<title>optionalIcon</title>
<polygon fill="#79c547" stroke="transparent" points="831,-61.87 655,-61.87 655,-23.87 831,-23.87 831,-61.87"/>
<text text-anchor="middle" x="743" y="-46.67" font-family="italic" font-size="14.00">Immediate optional</text>
<text text-anchor="middle" x="743" y="-31.67" font-family="italic" font-size="14.00">dependencies of ICON</text>
</g>
<!-- mandatoryIcon&#45;&gt;optionalIcon -->
<!-- mandatoryBundled -->
<g id="node31" class="node">
<title>mandatoryBundled</title>
<polygon fill="#d1e8fc" stroke="transparent" points="1024.5,-69.37 849.5,-69.37 849.5,-16.37 1024.5,-16.37 1024.5,-69.37"/>
<text text-anchor="middle" x="937" y="-54.17" font-family="italic" font-size="14.00">Immediate mandatory</text>
<text text-anchor="middle" x="937" y="-39.17" font-family="italic" font-size="14.00">dependencies of</text>
<text text-anchor="middle" x="937" y="-24.17" font-family="italic" font-size="14.00">the bundled packages</text>
</g>
<!-- optionalIcon&#45;&gt;mandatoryBundled -->
<!-- optionalBundled -->
<g id="node32" class="node">
<title>optionalBundled</title>
<polygon fill="#def1d1" stroke="transparent" points="1215.5,-69.37 1042.5,-69.37 1042.5,-16.37 1215.5,-16.37 1215.5,-69.37"/>
<text text-anchor="middle" x="1129" y="-54.17" font-family="italic" font-size="14.00">Immediate optional</text>
<text text-anchor="middle" x="1129" y="-39.17" font-family="italic" font-size="14.00">dependencies of</text>
<text text-anchor="middle" x="1129" y="-24.17" font-family="italic" font-size="14.00">the bundled packages</text>
</g>
<!-- mandatoryBundled&#45;&gt;optionalBundled -->
</g>
</svg>
