<?xml version="1.0" encoding="UTF-8" standalone="no"?>
<!DOCTYPE svg PUBLIC "-//W3C//DTD SVG 1.1//EN"
 "http://www.w3.org/Graphics/SVG/1.1/DTD/svg11.dtd">
<!-- Generated by graphviz version 2.43.0 (0)
 -->
<!-- Title: ICON Pages: 1 -->
<svg width="1046pt" height="637pt"
 viewBox="0.00 0.00 1046.00 637.34" xmlns="http://www.w3.org/2000/svg" xmlns:xlink="http://www.w3.org/1999/xlink">
<g id="graph0" class="graph" transform="scale(1 1) rotate(0) translate(4 633.34)">
<title>ICON</title>
<polygon fill="white" stroke="transparent" points="-4,4 -4,-633.34 1042,-633.34 1042,4 -4,4"/>
<g id="clust1" class="cluster">
<title>clusterMain</title>
</g>
<g id="clust21" class="cluster">
<title>clusterLegend</title>
<polygon fill="none" stroke="black" points="99,-8 99,-77.74 928,-77.74 928,-8 99,-8"/>
</g>
<!-- ICON -->
<g id="node1" class="node">
<title>ICON</title>
<polygon fill="white" stroke="black" stroke-width="2" points="570.5,-613.34 505.5,-613.34 505.5,-577.34 570.5,-577.34 570.5,-613.34"/>
<text text-anchor="middle" x="538" y="-590.34" font-family="Times,serif" font-size="20.00">ICON</text>
</g>
<!-- STDC++ -->
<g id="node2" class="node">
<title>STDC++</title>
<ellipse fill="#79c547" stroke="black" cx="107" cy="-379.34" rx="44.39" ry="18"/>
<text text-anchor="middle" x="107" y="-375.64" font-family="Times,serif" font-size="14.00">STDC++</text>
</g>
<!-- ICON&#45;&gt;STDC++ -->
<g id="edge1" class="edge">
<title>ICON&#45;&gt;STDC++</title>
<path fill="none" stroke="black" d="M505.27,-591.74C437.75,-585.85 285.73,-569.77 243,-541.34 235.51,-536.35 236.37,-532.21 232,-524.34"/>
<path fill="none" stroke="black" d="M232,-522.34C201.11,-466.66 129.28,-511.99 107,-452.34"/>
</g>
<!-- CUDA -->
<g id="node3" class="node">
<title>CUDA</title>
<ellipse fill="#79c547" stroke="black" cx="52" cy="-451.34" rx="36" ry="18"/>
<text text-anchor="middle" x="52" y="-447.64" font-family="Times,serif" font-size="14.00">CUDA</text>
</g>
<!-- ICON&#45;&gt;CUDA -->
<g id="edge2" class="edge">
<title>ICON&#45;&gt;CUDA</title>
<path fill="none" stroke="black" d="M505.24,-593.02C402.77,-588.58 93.36,-572.67 62,-541.34 46.15,-525.5 44.97,-499.3 46.98,-479.41"/>
<polygon fill="black" stroke="black" points="50.46,-479.77 48.3,-469.4 43.52,-478.86 50.46,-479.77"/>
</g>
<!-- ROCm -->
<g id="node4" class="node">
<title>ROCm</title>
<ellipse fill="#79c547" stroke="black" cx="107" cy="-523.34" rx="36.29" ry="18"/>
<text text-anchor="middle" x="107" y="-519.64" font-family="Times,serif" font-size="14.00">ROCm</text>
</g>
<!-- ICON&#45;&gt;ROCm -->
<g id="edge3" class="edge">
<title>ICON&#45;&gt;ROCm</title>
<path fill="none" stroke="black" d="M505.25,-589.02C428.7,-576.59 238,-545.62 151.24,-531.52"/>
<polygon fill="black" stroke="black" points="151.62,-528.04 141.19,-529.89 150.49,-534.95 151.62,-528.04"/>
</g>
<!-- MPI -->
<g id="node5" class="node">
<title>MPI</title>
<ellipse fill="#79c547" stroke="black" cx="604" cy="-163.34" rx="27" ry="18"/>
<text text-anchor="middle" x="604" y="-159.64" font-family="Times,serif" font-size="14.00">MPI</text>
</g>
<!-- ICON&#45;&gt;MPI -->
<g id="edge4" class="edge">
<title>ICON&#45;&gt;MPI</title>
<path fill="none" stroke="black" d="M760,-522.34C768.55,-519.53 763.47,-510.27 771,-505.34 853.91,-451.1 926.85,-544.84 991,-469.34 1001.36,-457.15 993.28,-449.18 991,-433.34 987.74,-410.76 949.36,-252.24 933,-236.34"/>
<path fill="none" stroke="black" d="M933,-234.34C893.5,-192.15 718.39,-173.35 641,-167"/>
<polygon fill="black" stroke="black" points="641,-163.49 630.75,-166.18 640.44,-170.46 641,-163.49"/>
</g>
<!-- ZLIB -->
<g id="node6" class="node">
<title>ZLIB</title>
<ellipse fill="#79c547" stroke="black" cx="933" cy="-163.34" rx="30.59" ry="18"/>
<text text-anchor="middle" x="933" y="-159.64" font-family="Times,serif" font-size="14.00">ZLIB</text>
</g>
<!-- ICON&#45;&gt;ZLIB -->
<g id="edge5" class="edge">
<title>ICON&#45;&gt;ZLIB</title>
<path fill="none" stroke="black" d="M933,-234.34C922.44,-223.06 922.37,-205.72 924.97,-191.12"/>
<polygon fill="black" stroke="black" points="928.45,-191.62 927.23,-181.1 921.62,-190.08 928.45,-191.62"/>
</g>
<!-- HDF5 -->
<g id="node7" class="node">
<title>HDF5</title>
<ellipse fill="#79c547" stroke="black" cx="521" cy="-235.34" rx="32.49" ry="18"/>
<text text-anchor="middle" x="521" y="-231.64" font-family="Times,serif" font-size="14.00">HDF5</text>
</g>
<!-- ICON&#45;&gt;HDF5 -->
<g id="edge6" class="edge">
<title>ICON&#45;&gt;HDF5</title>
<path fill="none" stroke="black" d="M232,-522.34C227.63,-514.47 235.65,-510.53 243,-505.34 299.72,-465.31 341.41,-513.47 395,-469.34 455.65,-419.4 435.49,-379.87 468,-308.34"/>
<path fill="none" stroke="black" d="M468,-306.34C476.04,-289.26 488.71,-272.32 499.64,-259.38"/>
<polygon fill="black" stroke="black" points="502.58,-261.34 506.51,-251.5 497.3,-256.74 502.58,-261.34"/>
</g>
<!-- NetCDF&#45;Fortran -->
<g id="node8" class="node">
<title>NetCDF&#45;Fortran</title>
<ellipse fill="#47a1f1" stroke="black" cx="707" cy="-379.34" rx="69.59" ry="18"/>
<text text-anchor="middle" x="707" y="-375.64" font-family="Times,serif" font-size="14.00">NetCDF&#45;Fortran</text>
</g>
<!-- ICON&#45;&gt;NetCDF&#45;Fortran -->
<g id="edge7" class="edge">
<title>ICON&#45;&gt;NetCDF&#45;Fortran</title>
<path fill="none" stroke="black" d="M568,-522.34C573.55,-515.55 571.11,-510.76 578,-505.34 621.43,-471.18 653.57,-503.5 697,-469.34 703.89,-463.92 702.77,-460.02 707,-452.34"/>
<path fill="none" stroke="black" d="M707,-450.34C714.08,-437.49 714.48,-421.19 712.93,-407.56"/>
<polygon fill="black" stroke="black" points="716.34,-406.66 711.36,-397.31 709.42,-407.72 716.34,-406.66"/>
</g>
<!-- RTE+RRTMGP -->
<g id="node9" class="node">
<title>RTE+RRTMGP</title>
<polygon fill="#79c547" stroke="black" points="358.5,-541.34 251.5,-541.34 251.5,-505.34 358.5,-505.34 358.5,-541.34"/>
<text text-anchor="middle" x="305" y="-519.64" font-family="Times,serif" font-size="14.00">RTE+RRTMGP</text>
</g>
<!-- ICON&#45;&gt;RTE+RRTMGP -->
<g id="edge8" class="edge">
<title>ICON&#45;&gt;RTE+RRTMGP</title>
<path fill="none" stroke="black" d="M505.11,-584.46C469.77,-573.84 412.75,-556.71 368.59,-543.45"/>
<polygon fill="black" stroke="black" points="369.39,-540.03 358.81,-540.51 367.38,-546.74 369.39,-540.03"/>
</g>
<!-- ECRAD -->
<g id="node10" class="node">
<title>ECRAD</title>
<polygon fill="#79c547" stroke="black" points="649,-541.34 587,-541.34 587,-505.34 649,-505.34 649,-541.34"/>
<text text-anchor="middle" x="618" y="-519.64" font-family="Times,serif" font-size="14.00">ECRAD</text>
</g>
<!-- ICON&#45;&gt;ECRAD -->
<g id="edge9" class="edge">
<title>ICON&#45;&gt;ECRAD</title>
<path fill="none" stroke="black" d="M557.78,-577.04C567.75,-568.31 580.01,-557.58 590.86,-548.09"/>
<polygon fill="black" stroke="black" points="593.23,-550.66 598.45,-541.44 588.62,-545.4 593.23,-550.66"/>
</g>
<!-- BLAS -->
<g id="node11" class="node">
<title>BLAS</title>
<ellipse fill="#47a1f1" stroke="black" cx="586" cy="-379.34" rx="33.29" ry="18"/>
<text text-anchor="middle" x="586" y="-375.64" font-family="Times,serif" font-size="14.00">BLAS</text>
</g>
<!-- ICON&#45;&gt;BLAS -->
<g id="edge10" class="edge">
<title>ICON&#45;&gt;BLAS</title>
<path fill="none" stroke="black" d="M505.15,-581.12C488.4,-572.49 469.58,-559.43 460,-541.34 452.51,-527.2 451.11,-518.64 460,-505.34 483.25,-470.55 517.37,-498.89 547,-469.34 559.27,-457.1 555.09,-449.24 562,-433.34 565.86,-424.46 570.2,-414.79 574.11,-406.17"/>
<polygon fill="black" stroke="black" points="577.33,-407.54 578.3,-396.99 570.97,-404.64 577.33,-407.54"/>
</g>
<!-- LAPACK -->
<g id="node12" class="node">
<title>LAPACK</title>
<ellipse fill="#47a1f1" stroke="black" cx="642" cy="-451.34" rx="46.29" ry="18"/>
<text text-anchor="middle" x="642" y="-447.64" font-family="Times,serif" font-size="14.00">LAPACK</text>
</g>
<!-- ICON&#45;&gt;LAPACK -->
<g id="edge11" class="edge">
<title>ICON&#45;&gt;LAPACK</title>
<path fill="none" stroke="black" d="M544.06,-577.29C550.63,-559.42 561.09,-532.78 568,-524.34"/>
<path fill="none" stroke="black" d="M568,-522.34C573.55,-515.55 572.32,-512.01 578,-505.34 587.94,-493.67 600.64,-482.56 612.11,-473.56"/>
<polygon fill="black" stroke="black" points="614.36,-476.24 620.19,-467.39 610.12,-470.68 614.36,-476.24"/>
</g>
<!-- RTTOV -->
<g id="node13" class="node">
<title>RTTOV</title>
<ellipse fill="#79c547" stroke="black" cx="509" cy="-523.34" rx="40.09" ry="18"/>
<text text-anchor="middle" x="509" y="-519.64" font-family="Times,serif" font-size="14.00">RTTOV</text>
</g>
<!-- ICON&#45;&gt;RTTOV -->
<g id="edge12" class="edge">
<title>ICON&#45;&gt;RTTOV</title>
<path fill="none" stroke="black" d="M530.83,-577.04C527.57,-569.15 523.63,-559.64 520,-550.89"/>
<polygon fill="black" stroke="black" points="523.15,-549.34 516.09,-541.44 516.68,-552.02 523.15,-549.34"/>
</g>
<!-- SCT -->
<g id="node14" class="node">
<title>SCT</title>
<polygon fill="#79c547" stroke="black" points="429,-325.34 375,-325.34 375,-289.34 429,-289.34 429,-325.34"/>
<text text-anchor="middle" x="402" y="-303.64" font-family="Times,serif" font-size="14.00">SCT</text>
</g>
<!-- ICON&#45;&gt;SCT -->
<g id="edge13" class="edge">
<title>ICON&#45;&gt;SCT</title>
<path fill="none" stroke="black" d="M232,-522.34C222.03,-504.38 242.65,-448.04 257,-433.34 294.99,-394.4 335.41,-435.69 374,-397.34 390.38,-381.06 397.2,-355.3 400.03,-335.68"/>
<polygon fill="black" stroke="black" points="403.53,-335.84 401.22,-325.5 396.58,-335.03 403.53,-335.84"/>
</g>
<!-- YAXT -->
<g id="node15" class="node">
<title>YAXT</title>
<polygon fill="#79c547" stroke="black" points="780,-469.34 726,-469.34 726,-433.34 780,-433.34 780,-469.34"/>
<text text-anchor="middle" x="753" y="-447.64" font-family="Times,serif" font-size="14.00">YAXT</text>
</g>
<!-- ICON&#45;&gt;YAXT -->
<g id="edge14" class="edge">
<title>ICON&#45;&gt;YAXT</title>
<path fill="none" stroke="black" d="M570.76,-586.13C596.89,-578.23 633.1,-564.06 658,-541.34 671.52,-529 665.78,-518.96 678,-505.34 689.18,-492.88 703.81,-481.73 717.17,-472.9"/>
<polygon fill="black" stroke="black" points="719.17,-475.78 725.72,-467.45 715.41,-469.87 719.17,-475.78"/>
</g>
<!-- ECCODES -->
<g id="node16" class="node">
<title>ECCODES</title>
<ellipse fill="#79c547" stroke="black" cx="177" cy="-451.34" rx="50.89" ry="18"/>
<text text-anchor="middle" x="177" y="-447.64" font-family="Times,serif" font-size="14.00">ECCODES</text>
</g>
<!-- ICON&#45;&gt;ECCODES -->
<g id="edge15" class="edge">
<title>ICON&#45;&gt;ECCODES</title>
<path fill="none" stroke="black" d="M232,-522.34C222.81,-505.78 209.81,-489.03 198.76,-476.07"/>
<polygon fill="black" stroke="black" points="201.39,-473.76 192.18,-468.52 196.12,-478.36 201.39,-473.76"/>
</g>
<!-- CDI -->
<g id="node17" class="node">
<title>CDI</title>
<polygon fill="#47a1f1" stroke="black" points="431,-541.34 377,-541.34 377,-505.34 431,-505.34 431,-541.34"/>
<text text-anchor="middle" x="404" y="-519.64" font-family="Times,serif" font-size="14.00">CDI</text>
</g>
<!-- ICON&#45;&gt;CDI -->
<g id="edge16" class="edge">
<title>ICON&#45;&gt;CDI</title>
<path fill="none" stroke="black" d="M505.22,-577.22C485.47,-566.9 460.29,-553.74 439.98,-543.14"/>
<polygon fill="black" stroke="black" points="441.52,-539.99 431.04,-538.46 438.28,-546.2 441.52,-539.99"/>
</g>
<!-- SERIALBOX -->
<g id="node18" class="node">
<title>SERIALBOX</title>
<ellipse fill="#79c547" stroke="black" cx="326" cy="-451.34" rx="59.59" ry="18"/>
<text text-anchor="middle" x="326" y="-447.64" font-family="Times,serif" font-size="14.00">SERIALBOX</text>
</g>
<!-- ICON&#45;&gt;SERIALBOX -->
<g id="edge17" class="edge">
<title>ICON&#45;&gt;SERIALBOX</title>
<path fill="none" stroke="black" d="M232,-522.34C218.56,-498.12 245.99,-479.87 274.62,-468.08"/>
<polygon fill="black" stroke="black" points="276.26,-471.2 284.32,-464.33 273.73,-464.67 276.26,-471.2"/>
</g>
<!-- MTIME -->
<g id="node19" class="node">
<title>MTIME</title>
<polygon fill="#47a1f1" stroke="black" points="981.5,-469.34 918.5,-469.34 918.5,-433.34 981.5,-433.34 981.5,-469.34"/>
<text text-anchor="middle" x="950" y="-447.64" font-family="Times,serif" font-size="14.00">MTIME</text>
</g>
<!-- ICON&#45;&gt;MTIME -->
<g id="edge18" class="edge">
<title>ICON&#45;&gt;MTIME</title>
<path fill="none" stroke="black" d="M570.74,-593.8C615.46,-591.49 696.22,-581.55 750,-541.34 757.02,-536.09 751.67,-527.08 760,-524.34"/>
<path fill="none" stroke="black" d="M760,-522.34C768.55,-519.53 763.73,-510.65 771,-505.34 820.47,-469.24 845.67,-487.97 904,-469.34 905.62,-468.82 907.26,-468.28 908.92,-467.73"/>
<polygon fill="black" stroke="black" points="910.15,-471.01 918.46,-464.42 907.86,-464.39 910.15,-471.01"/>
</g>
<!-- YAC -->
<g id="node20" class="node">
<title>YAC</title>
<polygon fill="#79c547" stroke="black" points="741,-541.34 687,-541.34 687,-505.34 741,-505.34 741,-541.34"/>
<text text-anchor="middle" x="714" y="-519.64" font-family="Times,serif" font-size="14.00">YAC</text>
</g>
<!-- ICON&#45;&gt;YAC -->
<g id="edge19" class="edge">
<title>ICON&#45;&gt;YAC</title>
<path fill="none" stroke="black" d="M570.53,-581.77C597.92,-571.14 638.09,-555.43 673,-541.34 674.38,-540.78 675.79,-540.21 677.22,-539.63"/>
<polygon fill="black" stroke="black" points="678.76,-542.78 686.68,-535.75 676.1,-536.31 678.76,-542.78"/>
</g>
<!-- ICON&#45;TIXI -->
<g id="node21" class="node">
<title>ICON&#45;TIXI</title>
<polygon fill="#79c547" stroke="black" points="860.5,-541.34 779.5,-541.34 779.5,-505.34 860.5,-505.34 860.5,-541.34"/>
<text text-anchor="middle" x="820" y="-519.64" font-family="Times,serif" font-size="14.00">ICON&#45;TIXI</text>
</g>
<!-- ICON&#45;&gt;ICON&#45;TIXI -->
<g id="edge20" class="edge">
<title>ICON&#45;&gt;ICON&#45;TIXI</title>
<path fill="none" stroke="black" d="M570.51,-587.5C614.74,-578.03 696.25,-559.97 765,-541.34 766.45,-540.95 767.91,-540.54 769.39,-540.13"/>
<polygon fill="black" stroke="black" points="770.61,-543.42 779.25,-537.29 768.67,-536.7 770.61,-543.42"/>
</g>
<!-- FORTRAN&#45;SUPPORT -->
<g id="node22" class="node">
<title>FORTRAN&#45;SUPPORT</title>
<polygon fill="#47a1f1" stroke="black" points="1021.5,-541.34 878.5,-541.34 878.5,-505.34 1021.5,-505.34 1021.5,-541.34"/>
<text text-anchor="middle" x="950" y="-519.64" font-family="Times,serif" font-size="14.00">FORTRAN&#45;SUPPORT</text>
</g>
<!-- ICON&#45;&gt;FORTRAN&#45;SUPPORT -->
<g id="edge21" class="edge">
<title>ICON&#45;&gt;FORTRAN&#45;SUPPORT</title>
<path fill="none" stroke="black" d="M570.61,-589.7C628.53,-581.33 753.35,-562.76 868.07,-541.66"/>
<polygon fill="black" stroke="black" points="868.88,-545.07 878.08,-539.8 867.61,-538.18 868.88,-545.07"/>
</g>
<!-- CUDA&#45;&gt;STDC++ -->
<g id="edge22" class="edge">
<title>CUDA&#45;&gt;STDC++</title>
<path fill="none" stroke="black" d="M64.48,-434.46C71.41,-425.63 80.18,-414.47 87.96,-404.58"/>
<polygon fill="black" stroke="black" points="90.76,-406.67 94.19,-396.65 85.26,-402.35 90.76,-406.67"/>
</g>
<!-- ROCm&#45;&gt;STDC++ -->
<g id="edge23" class="edge">
<title>ROCm&#45;&gt;STDC++</title>
<path fill="none" stroke="black" d="M110.24,-505.35C112.27,-490.8 113.42,-469.53 107,-452.34"/>
<path fill="none" stroke="black" d="M107,-450.34C101.93,-436.78 101.58,-420.67 102.66,-407.34"/>
<polygon fill="black" stroke="black" points="106.14,-407.66 103.76,-397.33 99.18,-406.89 106.14,-407.66"/>
</g>
<!-- ROCm&#45;&gt;CUDA -->
<g id="edge24" class="edge">
<title>ROCm&#45;&gt;CUDA</title>
<path fill="none" stroke="black" d="M94.24,-506.1C87.3,-497.27 78.58,-486.17 70.87,-476.35"/>
<polygon fill="black" stroke="black" points="73.62,-474.19 64.69,-468.49 68.11,-478.51 73.62,-474.19"/>
</g>
<!-- HDF5&#45;&gt;MPI -->
<g id="edge25" class="edge">
<title>HDF5&#45;&gt;MPI</title>
<path fill="none" stroke="black" d="M538.2,-219.84C550.31,-209.62 566.68,-195.81 580.07,-184.52"/>
<polygon fill="black" stroke="black" points="582.56,-187 587.95,-177.88 578.05,-181.65 582.56,-187"/>
</g>
<!-- HDF5&#45;&gt;ZLIB -->
<g id="edge26" class="edge">
<title>HDF5&#45;&gt;ZLIB</title>
<path fill="none" stroke="black" d="M551.63,-229.14C625.25,-216.63 812.07,-184.89 893.76,-171.01"/>
<polygon fill="black" stroke="black" points="894.83,-174.38 904.1,-169.25 893.66,-167.47 894.83,-174.38"/>
</g>
<!-- AEC / SZIP -->
<g id="node23" class="node">
<title>AEC / SZIP</title>
<ellipse fill="#def1d1" stroke="black" cx="431" cy="-163.34" rx="53.89" ry="18"/>
<text text-anchor="middle" x="431" y="-159.64" font-family="Times,serif" font-size="14.00">AEC / SZIP</text>
</g>
<!-- HDF5&#45;&gt;AEC / SZIP -->
<g id="edge27" class="edge">
<title>HDF5&#45;&gt;AEC / SZIP</title>
<path fill="none" stroke="black" d="M502.79,-220.17C490.34,-210.49 473.58,-197.46 459.39,-186.42"/>
<polygon fill="black" stroke="black" points="461.43,-183.57 451.38,-180.19 457.13,-189.1 461.43,-183.57"/>
</g>
<!-- NetCDF&#45;C -->
<g id="node24" class="node">
<title>NetCDF&#45;C</title>
<ellipse fill="#d1e8fc" stroke="black" cx="536" cy="-307.34" rx="49.29" ry="18"/>
<text text-anchor="middle" x="536" y="-303.64" font-family="Times,serif" font-size="14.00">NetCDF&#45;C</text>
</g>
<!-- NetCDF&#45;Fortran&#45;&gt;NetCDF&#45;C -->
<g id="edge28" class="edge">
<title>NetCDF&#45;Fortran&#45;&gt;NetCDF&#45;C</title>
<path fill="none" stroke="black" d="M671.57,-363.84C644.06,-352.57 605.87,-336.94 577.03,-325.14"/>
<polygon fill="black" stroke="black" points="578.22,-321.84 567.64,-321.29 575.57,-328.32 578.22,-321.84"/>
</g>
<!-- ECRAD&#45;&gt;NetCDF&#45;Fortran -->
<g id="edge29" class="edge">
<title>ECRAD&#45;&gt;NetCDF&#45;Fortran</title>
<path fill="none" stroke="black" d="M649.3,-505.8C664.89,-496.52 683.29,-483.88 697,-469.34 703.01,-462.96 702.77,-460.02 707,-452.34"/>
</g>
<!-- LAPACK&#45;&gt;BLAS -->
<g id="edge30" class="edge">
<title>LAPACK&#45;&gt;BLAS</title>
<path fill="none" stroke="black" d="M628.73,-433.75C621.72,-425 613,-414.09 605.27,-404.42"/>
<polygon fill="black" stroke="black" points="607.77,-401.95 598.79,-396.33 602.3,-406.32 607.77,-401.95"/>
</g>
<!-- RTTOV&#45;&gt;HDF5 -->
<g id="edge31" class="edge">
<title>RTTOV&#45;&gt;HDF5</title>
<path fill="none" stroke="black" d="M495.52,-506.31C487.99,-496.34 479.29,-482.89 475,-469.34 453.36,-401.06 446.13,-376.54 468,-308.34"/>
</g>
<!-- RTTOV&#45;&gt;NetCDF&#45;Fortran -->
<g id="edge32" class="edge">
<title>RTTOV&#45;&gt;NetCDF&#45;Fortran</title>
<path fill="none" stroke="black" d="M526.02,-506.82C536.82,-496.61 550.82,-482.72 562,-469.34 574.49,-454.39 571.97,-445.74 587,-433.34 606.28,-417.43 631.09,-405.42 653.14,-396.89"/>
<polygon fill="black" stroke="black" points="654.56,-400.1 662.72,-393.33 652.12,-393.53 654.56,-400.1"/>
</g>
<!-- RTTOV&#45;&gt;LAPACK -->
<g id="edge33" class="edge">
<title>RTTOV&#45;&gt;LAPACK</title>
<path fill="none" stroke="black" d="M534.02,-509.17C554.52,-498.38 583.78,-482.98 606.67,-470.93"/>
<polygon fill="black" stroke="black" points="608.51,-473.92 615.73,-466.17 605.25,-467.73 608.51,-473.92"/>
</g>
<!-- SCT&#45;&gt;MPI -->
<g id="edge34" class="edge">
<title>SCT&#45;&gt;MPI</title>
<path fill="none" stroke="black" d="M411.36,-289.27C419.89,-274.47 433.36,-252.9 448,-236.34"/>
<path fill="none" stroke="black" d="M448,-234.34C479.58,-198.61 532.95,-180.16 568.34,-171.37"/>
<polygon fill="black" stroke="black" points="569.31,-174.73 578.25,-169.04 567.71,-167.92 569.31,-174.73"/>
</g>
<!-- SCT&#45;&gt;HDF5 -->
<g id="edge35" class="edge">
<title>SCT&#45;&gt;HDF5</title>
<path fill="none" stroke="black" d="M429,-290.46C447.27,-279.71 471.44,-265.5 490.41,-254.33"/>
<polygon fill="black" stroke="black" points="492.42,-257.21 499.27,-249.12 488.87,-251.18 492.42,-257.21"/>
</g>
<!-- YAXT&#45;&gt;MPI -->
<g id="edge36" class="edge">
<title>YAXT&#45;&gt;MPI</title>
<path fill="none" stroke="black" d="M780.05,-437.51C822.17,-417.51 898.69,-381.09 899,-380.34"/>
<path fill="none" stroke="black" d="M899,-378.34C949.26,-258.18 727.95,-192.89 639.31,-171.93"/>
<polygon fill="black" stroke="black" points="639.97,-168.48 629.43,-169.64 638.39,-175.31 639.97,-168.48"/>
</g>
<!-- ECCODES&#45;&gt;AEC / SZIP -->
<g id="edge37" class="edge">
<title>ECCODES&#45;&gt;AEC / SZIP</title>
<path fill="none" stroke="black" d="M213.4,-438.68C268.35,-420.85 366.41,-388.08 369,-380.34"/>
<path fill="none" stroke="black" d="M369,-378.34C376.5,-355.97 366.67,-348.92 366,-325.34 365.55,-309.35 362.2,-304.88 366,-289.34 375.06,-252.26 397.23,-213.93 413.16,-189.66"/>
<polygon fill="black" stroke="black" points="416.25,-191.33 418.92,-181.08 410.44,-187.43 416.25,-191.33"/>
</g>
<!-- CDI&#45;&gt;MPI -->
<g id="edge38" class="edge">
<title>CDI&#45;&gt;MPI</title>
<path fill="none" stroke="black" d="M417.81,-505.16C427.66,-491.69 440.01,-472 445,-452.34"/>
<path fill="none" stroke="black" d="M445,-450.34C450.85,-427.29 432.25,-254.16 448,-236.34"/>
</g>
<!-- CDI&#45;&gt;YAXT -->
<g id="edge39" class="edge">
<title>CDI&#45;&gt;YAXT</title>
<path fill="none" stroke="black" d="M431.12,-513.19C440.22,-510.37 450.48,-507.45 460,-505.34 570.45,-480.84 602.89,-499.24 712,-469.34 713.44,-468.95 714.9,-468.51 716.36,-468.05"/>
<polygon fill="black" stroke="black" points="717.72,-471.28 725.99,-464.66 715.39,-464.68 717.72,-471.28"/>
</g>
<!-- CDI&#45;&gt;ECCODES -->
<g id="edge40" class="edge">
<title>CDI&#45;&gt;ECCODES</title>
<path fill="none" stroke="black" d="M376.69,-508.85C373.78,-507.6 370.85,-506.4 368,-505.34 321.81,-488.17 267.53,-473.62 228.66,-464.14"/>
<polygon fill="black" stroke="black" points="229.17,-460.66 218.63,-461.72 227.53,-467.47 229.17,-460.66"/>
</g>
<!-- CDI&#45;&gt;AEC / SZIP -->
<g id="edge41" class="edge">
<title>CDI&#45;&gt;AEC / SZIP</title>
<path fill="none" stroke="black" d="M404.05,-505.27C403.7,-487.11 401.96,-457.68 395,-433.34 387.79,-408.11 359.15,-404.66 369,-380.34"/>
</g>
<!-- CDI&#45;&gt;NetCDF&#45;C -->
<g id="edge42" class="edge">
<title>CDI&#45;&gt;NetCDF&#45;C</title>
<path fill="none" stroke="black" d="M445,-450.34C455.35,-403.44 489.8,-358.34 513.21,-331.99"/>
<polygon fill="black" stroke="black" points="515.95,-334.19 520.09,-324.44 510.77,-329.48 515.95,-334.19"/>
</g>
<!-- PPM -->
<g id="node25" class="node">
<title>PPM</title>
<polygon fill="#def1d1" stroke="black" points="538,-469.34 484,-469.34 484,-433.34 538,-433.34 538,-469.34"/>
<text text-anchor="middle" x="511" y="-447.64" font-family="Times,serif" font-size="14.00">PPM</text>
</g>
<!-- CDI&#45;&gt;PPM -->
<g id="edge43" class="edge">
<title>CDI&#45;&gt;PPM</title>
<path fill="none" stroke="black" d="M430.18,-505.22C444.04,-496.15 461.24,-484.89 476.21,-475.1"/>
<polygon fill="black" stroke="black" points="478.27,-477.93 484.72,-469.53 474.44,-472.08 478.27,-477.93"/>
</g>
<!-- SERIALBOX&#45;&gt;STDC++ -->
<g id="edge44" class="edge">
<title>SERIALBOX&#45;&gt;STDC++</title>
<path fill="none" stroke="black" d="M286.59,-437.74C248.22,-425.48 190.04,-406.88 150.37,-394.2"/>
<polygon fill="black" stroke="black" points="151.3,-390.82 140.71,-391.11 149.17,-397.49 151.3,-390.82"/>
</g>
<!-- SERIALBOX&#45;&gt;NetCDF&#45;C -->
<g id="edge45" class="edge">
<title>SERIALBOX&#45;&gt;NetCDF&#45;C</title>
<path fill="none" stroke="black" d="M349.28,-434.6C387.26,-408.92 462.59,-357.98 505.04,-329.27"/>
<polygon fill="black" stroke="black" points="507.25,-332 513.57,-323.5 503.33,-326.21 507.25,-332"/>
</g>
<!-- YAC&#45;&gt;MPI -->
<g id="edge46" class="edge">
<title>YAC&#45;&gt;MPI</title>
<path fill="none" stroke="black" d="M899,-450.34C909.71,-421.13 887.6,-409.29 899,-380.34"/>
</g>
<!-- YAC&#45;&gt;LAPACK -->
<g id="edge47" class="edge">
<title>YAC&#45;&gt;LAPACK</title>
<path fill="none" stroke="black" d="M696.2,-505.04C687.04,-496.13 675.75,-485.15 665.85,-475.53"/>
<polygon fill="black" stroke="black" points="668.22,-472.95 658.61,-468.48 663.34,-477.96 668.22,-472.95"/>
</g>
<!-- YAC&#45;&gt;YAXT -->
<g id="edge48" class="edge">
<title>YAC&#45;&gt;YAXT</title>
<path fill="none" stroke="black" d="M723.64,-505.04C728.13,-496.98 733.56,-487.23 738.52,-478.32"/>
<polygon fill="black" stroke="black" points="741.66,-479.88 743.47,-469.44 735.55,-476.48 741.66,-479.88"/>
</g>
<!-- YAC&#45;&gt;MTIME -->
<g id="edge49" class="edge">
<title>YAC&#45;&gt;MTIME</title>
<path fill="none" stroke="black" d="M741.12,-510.4C745.71,-508.58 750.46,-506.82 755,-505.34 819.77,-484.23 838.83,-489.18 904,-469.34 905.62,-468.85 907.27,-468.33 908.94,-467.79"/>
<polygon fill="black" stroke="black" points="910.15,-471.07 918.49,-464.54 907.9,-464.44 910.15,-471.07"/>
</g>
<!-- YAC&#45;&gt;NetCDF&#45;C -->
<g id="edge50" class="edge">
<title>YAC&#45;&gt;NetCDF&#45;C</title>
<path fill="none" stroke="black" d="M741.16,-510.5C745.74,-508.67 750.48,-506.88 755,-505.34 813.38,-485.49 839.94,-506.7 889,-469.34 895.97,-464.03 894.56,-459.9 899,-452.34"/>
<path fill="none" stroke="black" d="M899,-450.34C909.93,-431.72 916.07,-417.79 786,-361.34 723.23,-334.1 645.36,-320.44 593.37,-313.89"/>
<polygon fill="black" stroke="black" points="593.67,-310.4 583.32,-312.68 592.83,-317.35 593.67,-310.4"/>
</g>
<!-- FYAML -->
<g id="node26" class="node">
<title>FYAML</title>
<ellipse fill="#d1e8fc" stroke="black" cx="839" cy="-451.34" rx="40.89" ry="18"/>
<text text-anchor="middle" x="839" y="-447.64" font-family="Times,serif" font-size="14.00">FYAML</text>
</g>
<!-- YAC&#45;&gt;FYAML -->
<g id="edge51" class="edge">
<title>YAC&#45;&gt;FYAML</title>
<path fill="none" stroke="black" d="M741.12,-507.15C760.05,-496.55 785.44,-482.34 805.61,-471.04"/>
<polygon fill="black" stroke="black" points="807.46,-474.02 814.47,-466.08 804.04,-467.91 807.46,-474.02"/>
</g>
<!-- XML2 -->
<g id="node27" class="node">
<title>XML2</title>
<ellipse fill="#d1e8fc" stroke="black" cx="987" cy="-235.34" rx="35.19" ry="18"/>
<text text-anchor="middle" x="987" y="-231.64" font-family="Times,serif" font-size="14.00">XML2</text>
</g>
<!-- ICON&#45;TIXI&#45;&gt;XML2 -->
<g id="edge52" class="edge">
<title>ICON&#45;TIXI&#45;&gt;XML2</title>
<path fill="none" stroke="black" d="M860.58,-508.28C863.76,-507.26 866.93,-506.27 870,-505.34 929.86,-487.27 967.86,-518.89 1006,-469.34 1053.16,-408.07 1019.6,-308.94 999.35,-262.25"/>
<polygon fill="black" stroke="black" points="1002.42,-260.55 995.14,-252.85 996.03,-263.41 1002.42,-260.55"/>
</g>
<!-- NetCDF&#45;C&#45;&gt;ZLIB -->
<g id="edge53" class="edge">
<title>NetCDF&#45;C&#45;&gt;ZLIB</title>
<path fill="none" stroke="black" d="M570.19,-294.11C644.98,-267.36 822.44,-203.88 897.98,-176.87"/>
<polygon fill="black" stroke="black" points="899.28,-180.12 907.52,-173.45 896.93,-173.53 899.28,-180.12"/>
</g>
<!-- NetCDF&#45;C&#45;&gt;HDF5 -->
<g id="edge54" class="edge">
<title>NetCDF&#45;C&#45;&gt;HDF5</title>
<path fill="none" stroke="black" d="M532.29,-289.04C530.64,-281.32 528.65,-272.05 526.81,-263.45"/>
<polygon fill="black" stroke="black" points="530.18,-262.49 524.67,-253.44 523.34,-263.96 530.18,-262.49"/>
</g>
<!-- PPM&#45;&gt;MPI -->
<g id="edge55" class="edge">
<title>PPM&#45;&gt;MPI</title>
<path fill="none" stroke="black" d="M514.22,-433.14C518.47,-414.06 527.42,-383.1 544,-361.34 560.59,-339.56 580.77,-349.31 594,-325.34 617.2,-283.31 613.81,-225.36 609.04,-191.67"/>
<polygon fill="black" stroke="black" points="612.48,-190.98 607.48,-181.64 605.56,-192.06 612.48,-190.98"/>
</g>
<!-- PPM&#45;&gt;NetCDF&#45;Fortran -->
<g id="edge56" class="edge">
<title>PPM&#45;&gt;NetCDF&#45;Fortran</title>
<path fill="none" stroke="black" d="M538.25,-440.61C569.15,-429.57 620.14,-411.36 658,-397.84"/>
<polygon fill="black" stroke="black" points="659.57,-401 667.81,-394.34 657.21,-394.4 659.57,-401"/>
</g>
<!-- XML2&#45;&gt;ZLIB -->
<g id="edge57" class="edge">
<title>XML2&#45;&gt;ZLIB</title>
<path fill="none" stroke="black" d="M974.75,-218.46C967.84,-209.51 959.08,-198.15 951.37,-188.16"/>
<polygon fill="black" stroke="black" points="954.08,-185.94 945.2,-180.16 948.54,-190.22 954.08,-185.94"/>
</g>
<!-- bottomNode -->
<!-- external -->
<g id="node29" class="node">
<title>external</title>
<ellipse fill="white" stroke="black" cx="154" cy="-42.87" rx="46.84" ry="26.74"/>
<text text-anchor="middle" x="154" y="-46.67" font-family="Times,serif" font-size="14.00">External</text>
<text text-anchor="middle" x="154" y="-31.67" font-family="Times,serif" font-size="14.00">packages</text>
</g>
<!-- bottomNode&#45;&gt;external -->
<!-- bundled -->
<g id="node30" class="node">
<title>bundled</title>
<polygon fill="white" stroke="black" points="293,-69.37 219,-69.37 219,-16.37 293,-16.37 293,-69.37"/>
<text text-anchor="middle" x="256" y="-54.17" font-family="Times,serif" font-size="14.00">Optionally</text>
<text text-anchor="middle" x="256" y="-39.17" font-family="Times,serif" font-size="14.00">bundled</text>
<text text-anchor="middle" x="256" y="-24.17" font-family="Times,serif" font-size="14.00">packages</text>
</g>
<!-- external&#45;&gt;bundled -->
<!-- mandatoryIcon -->
<g id="node31" class="node">
<title>mandatoryIcon</title>
<polygon fill="#47a1f1" stroke="transparent" points="452.5,-61.87 311.5,-61.87 311.5,-23.87 452.5,-23.87 452.5,-61.87"/>
<text text-anchor="middle" x="382" y="-46.67" font-family="Times,serif" font-size="14.00">Immediate mandatory</text>
<text text-anchor="middle" x="382" y="-31.67" font-family="Times,serif" font-size="14.00">dependencies of ICON</text>
</g>
<!-- bundled&#45;&gt;mandatoryIcon -->
<!-- optionalIcon -->
<g id="node32" class="node">
<title>optionalIcon</title>
<polygon fill="#79c547" stroke="transparent" points="611.5,-61.87 470.5,-61.87 470.5,-23.87 611.5,-23.87 611.5,-61.87"/>
<text text-anchor="middle" x="541" y="-46.67" font-family="Times,serif" font-size="14.00">Immediate optional</text>
<text text-anchor="middle" x="541" y="-31.67" font-family="Times,serif" font-size="14.00">dependencies of ICON</text>
</g>
<!-- mandatoryIcon&#45;&gt;optionalIcon -->
<!-- mandatoryBundled -->
<g id="node33" class="node">
<title>mandatoryBundled</title>
<polygon fill="#d1e8fc" stroke="transparent" points="768,-69.37 630,-69.37 630,-16.37 768,-16.37 768,-69.37"/>
<text text-anchor="middle" x="699" y="-54.17" font-family="Times,serif" font-size="14.00">Immediate mandatory</text>
<text text-anchor="middle" x="699" y="-39.17" font-family="Times,serif" font-size="14.00">dependencies of</text>
<text text-anchor="middle" x="699" y="-24.17" font-family="Times,serif" font-size="14.00">the bundled packages</text>
</g>
<!-- optionalIcon&#45;&gt;mandatoryBundled -->
<!-- optionalBundled -->
<g id="node34" class="node">
<title>optionalBundled</title>
<polygon fill="#def1d1" stroke="transparent" points="920,-69.37 786,-69.37 786,-16.37 920,-16.37 920,-69.37"/>
<text text-anchor="middle" x="853" y="-54.17" font-family="Times,serif" font-size="14.00">Immediate optional</text>
<text text-anchor="middle" x="853" y="-39.17" font-family="Times,serif" font-size="14.00">dependencies of</text>
<text text-anchor="middle" x="853" y="-24.17" font-family="Times,serif" font-size="14.00">the bundled packages</text>
</g>
<!-- mandatoryBundled&#45;&gt;optionalBundled -->
</g>
</svg>
