<?xml version="1.0" encoding="UTF-8" standalone="no"?>
<!DOCTYPE svg PUBLIC "-//W3C//DTD SVG 1.1//EN"
 "http://www.w3.org/Graphics/SVG/1.1/DTD/svg11.dtd">
<!-- Generated by graphviz version 2.40.1 (20161225.0304)
 -->
<!-- Title: ICON Pages: 1 -->
<svg width="983pt" height="637pt"
 viewBox="0.00 0.00 983.00 637.34" xmlns="http://www.w3.org/2000/svg" xmlns:xlink="http://www.w3.org/1999/xlink">
<g id="graph0" class="graph" transform="scale(1 1) rotate(0) translate(4 633.3401)">
<title>ICON</title>
<polygon fill="#ffffff" stroke="transparent" points="-4,4 -4,-633.3401 979,-633.3401 979,4 -4,4"/>
<g id="clust1" class="cluster">
<title>clusterMain</title>
</g>
<g id="clust21" class="cluster">
<title>clusterLegend</title>
<polygon fill="none" stroke="#000000" points="67,-8 67,-77.7401 897,-77.7401 897,-8 67,-8"/>
</g>
<!-- ICON -->
<g id="node1" class="node">
<title>ICON</title>
<polygon fill="#ffffff" stroke="#000000" stroke-width="2" points="494.5,-613.3401 429.5,-613.3401 429.5,-577.3401 494.5,-577.3401 494.5,-613.3401"/>
<text text-anchor="middle" x="462" y="-590.3401" font-family="Times,serif" font-size="20.00" fill="#000000">ICON</text>
</g>
<!-- STDC++ -->
<g id="node2" class="node">
<title>STDC++</title>
<ellipse fill="#79c547" stroke="#000000" cx="71" cy="-379.3401" rx="44.393" ry="18"/>
<text text-anchor="middle" x="71" y="-375.6401" font-family="Times,serif" font-size="14.00" fill="#000000">STDC++</text>
</g>
<!-- ICON&#45;&gt;STDC++ -->
<g id="edge1" class="edge">
<title>ICON&#45;&gt;STDC++</title>
<path fill="none" stroke="#000000" d="M429.359,-593.5887C333.0836,-588.1105 55.2359,-569.9411 27,-541.3401 -1.2749,-512.6995 11.4107,-491.1963 17,-451.3401"/>
<path fill="none" stroke="#000000" d="M17,-451.3401C19.5171,-432.5689 31.7565,-415.4321 43.9473,-402.5901"/>
<polygon fill="#000000" stroke="#000000" points="46.4132,-405.0739 51.0455,-395.5454 41.4822,-400.1054 46.4132,-405.0739"/>
</g>
<!-- CUDA -->
<g id="node3" class="node">
<title>CUDA</title>
<ellipse fill="#79c547" stroke="#000000" cx="71" cy="-451.3401" rx="35.194" ry="18"/>
<text text-anchor="middle" x="71" y="-447.6401" font-family="Times,serif" font-size="14.00" fill="#000000">CUDA</text>
</g>
<!-- ICON&#45;&gt;CUDA -->
<g id="edge2" class="edge">
<title>ICON&#45;&gt;CUDA</title>
<path fill="none" stroke="#000000" d="M429.1519,-591.6773C368.4649,-584.3883 241.7069,-566.5667 206,-541.3401 198.3427,-535.9303 200.2414,-531.1138 195,-523.3401"/>
<path fill="none" stroke="#000000" d="M195,-523.3401C184.012,-507.0433 139.3981,-483.4559 106.8232,-467.7732"/>
<polygon fill="#000000" stroke="#000000" points="108.1064,-464.5078 97.5724,-463.3746 105.1005,-470.8296 108.1064,-464.5078"/>
</g>
<!-- ROCm -->
<g id="node4" class="node">
<title>ROCm</title>
<ellipse fill="#79c547" stroke="#000000" cx="72" cy="-523.3401" rx="36.2938" ry="18"/>
<text text-anchor="middle" x="72" y="-519.6401" font-family="Times,serif" font-size="14.00" fill="#000000">ROCm</text>
</g>
<!-- ICON&#45;&gt;ROCm -->
<g id="edge3" class="edge">
<title>ICON&#45;&gt;ROCm</title>
<path fill="none" stroke="#000000" d="M429.4196,-589.3253C359.6004,-576.4356 195.4834,-546.137 116.2877,-531.5163"/>
<polygon fill="#000000" stroke="#000000" points="116.6195,-528.0185 106.1503,-529.6448 115.3486,-534.9022 116.6195,-528.0185"/>
</g>
<!-- MPI -->
<g id="node5" class="node">
<title>MPI</title>
<ellipse fill="#79c547" stroke="#000000" cx="444" cy="-163.3401" rx="27" ry="18"/>
<text text-anchor="middle" x="444" y="-159.6401" font-family="Times,serif" font-size="14.00" fill="#000000">MPI</text>
</g>
<!-- ICON&#45;&gt;MPI -->
<g id="edge4" class="edge">
<title>ICON&#45;&gt;MPI</title>
<path fill="none" stroke="#000000" d="M195,-523.3401C189.7586,-515.5665 200.6034,-513.0068 206,-505.3401 223.0404,-481.1313 233.033,-478.4184 245,-451.3401"/>
<path fill="none" stroke="#000000" d="M245,-451.3401C284.4655,-362.0399 228.1726,-314.7296 285,-235.3401"/>
<path fill="none" stroke="#000000" d="M285,-235.3401C299.3309,-213.2874 367.3305,-188.0376 409.6285,-174.0655"/>
<polygon fill="#000000" stroke="#000000" points="410.8386,-177.3524 419.265,-170.93 408.6727,-170.6959 410.8386,-177.3524"/>
</g>
<!-- ZLIB -->
<g id="node6" class="node">
<title>ZLIB</title>
<ellipse fill="#79c547" stroke="#000000" cx="709" cy="-163.3401" rx="30.5947" ry="18"/>
<text text-anchor="middle" x="709" y="-159.6401" font-family="Times,serif" font-size="14.00" fill="#000000">ZLIB</text>
</g>
<!-- ICON&#45;&gt;ZLIB -->
<g id="edge5" class="edge">
<title>ICON&#45;&gt;ZLIB</title>
<path fill="none" stroke="#000000" d="M958,-451.3401C963.7506,-415.4044 934.5881,-412.2256 919,-379.3401"/>
<path fill="none" stroke="#000000" d="M919,-379.3401C913.3283,-367.3749 785.1823,-239.1381 731.9076,-186.1001"/>
<polygon fill="#000000" stroke="#000000" points="734.1717,-183.4154 724.6142,-178.8432 729.2344,-188.3776 734.1717,-183.4154"/>
</g>
<!-- HDF5 -->
<g id="node7" class="node">
<title>HDF5</title>
<ellipse fill="#79c547" stroke="#000000" cx="418" cy="-235.3401" rx="32.4942" ry="18"/>
<text text-anchor="middle" x="418" y="-231.6401" font-family="Times,serif" font-size="14.00" fill="#000000">HDF5</text>
</g>
<!-- ICON&#45;&gt;HDF5 -->
<g id="edge6" class="edge">
<title>ICON&#45;&gt;HDF5</title>
<path fill="none" stroke="#000000" d="M429.4363,-589.2495C403.2268,-582.4478 368.0482,-568.5924 351,-541.3401 342.5145,-527.7756 344.3143,-519.8763 351,-505.3401 361.2732,-483.0039 381.6069,-491.1264 393,-469.3401 415.3586,-426.5851 398.8914,-409.3172 404,-361.3401 407.5684,-327.8273 411.8769,-289.3256 414.7633,-263.7933"/>
<polygon fill="#000000" stroke="#000000" points="418.2591,-264.0277 415.907,-253.6973 411.3036,-263.2397 418.2591,-264.0277"/>
</g>
<!-- NetCDF&#45;Fortran -->
<g id="node8" class="node">
<title>NetCDF&#45;Fortran</title>
<ellipse fill="#47a1f1" stroke="#000000" cx="558" cy="-379.3401" rx="69.5877" ry="18"/>
<text text-anchor="middle" x="558" y="-375.6401" font-family="Times,serif" font-size="14.00" fill="#000000">NetCDF&#45;Fortran</text>
</g>
<!-- ICON&#45;&gt;NetCDF&#45;Fortran -->
<g id="edge7" class="edge">
<title>ICON&#45;&gt;NetCDF&#45;Fortran</title>
<path fill="none" stroke="#000000" d="M450.5414,-577.1075C439.9254,-557.6429 427.8735,-526.7199 443,-505.3401 470.7662,-466.0954 508.2773,-500.3652 545,-469.3401 551.9908,-463.434 551.9645,-459.9737 555,-451.3401"/>
<path fill="none" stroke="#000000" d="M555,-451.3401C559.7201,-437.5133 560.7581,-421.3184 560.4911,-407.7933"/>
<polygon fill="#000000" stroke="#000000" points="563.9796,-407.4513 560.0427,-397.6151 556.9864,-407.7595 563.9796,-407.4513"/>
</g>
<!-- RTE+RRTMGP -->
<g id="node9" class="node">
<title>RTE+RRTMGP</title>
<polygon fill="#79c547" stroke="#000000" points="321.5,-541.3401 214.5,-541.3401 214.5,-505.3401 321.5,-505.3401 321.5,-541.3401"/>
<text text-anchor="middle" x="268" y="-519.6401" font-family="Times,serif" font-size="14.00" fill="#000000">RTE+RRTMGP</text>
</g>
<!-- ICON&#45;&gt;RTE+RRTMGP -->
<g id="edge8" class="edge">
<title>ICON&#45;&gt;RTE+RRTMGP</title>
<path fill="none" stroke="#000000" d="M429.0905,-583.1263C401.0491,-572.7191 360.0731,-557.5116 326.4663,-545.0389"/>
<polygon fill="#000000" stroke="#000000" points="327.3419,-541.6307 316.7489,-541.4325 324.9063,-548.1933 327.3419,-541.6307"/>
</g>
<!-- ECRAD -->
<g id="node10" class="node">
<title>ECRAD</title>
<polygon fill="#79c547" stroke="#000000" points="612,-541.3401 550,-541.3401 550,-505.3401 612,-505.3401 612,-541.3401"/>
<text text-anchor="middle" x="581" y="-519.6401" font-family="Times,serif" font-size="14.00" fill="#000000">ECRAD</text>
</g>
<!-- ICON&#45;&gt;ECRAD -->
<g id="edge9" class="edge">
<title>ICON&#45;&gt;ECRAD</title>
<path fill="none" stroke="#000000" d="M492.0287,-577.1715C507.2496,-567.9622 525.9128,-556.6702 542.2083,-546.8107"/>
<polygon fill="#000000" stroke="#000000" points="544.2369,-549.6742 550.9809,-541.5029 540.6132,-543.6851 544.2369,-549.6742"/>
</g>
<!-- BLAS -->
<g id="node11" class="node">
<title>BLAS</title>
<ellipse fill="#47a1f1" stroke="#000000" cx="793" cy="-379.3401" rx="33.2948" ry="18"/>
<text text-anchor="middle" x="793" y="-375.6401" font-family="Times,serif" font-size="14.00" fill="#000000">BLAS</text>
</g>
<!-- ICON&#45;&gt;BLAS -->
<g id="edge10" class="edge">
<title>ICON&#45;&gt;BLAS</title>
<path fill="none" stroke="#000000" d="M723,-523.3401C731.7118,-519.8752 726.2328,-510.591 734,-505.3401 818.8399,-447.986 941.818,-552.4611 958,-451.3401"/>
<path fill="none" stroke="#000000" d="M958,-451.3401C962.3085,-424.4165 884.0974,-400.7472 833.8495,-388.4029"/>
<polygon fill="#000000" stroke="#000000" points="834.4392,-384.9452 823.8985,-386.0155 832.806,-391.752 834.4392,-384.9452"/>
</g>
<!-- LAPACK -->
<g id="node12" class="node">
<title>LAPACK</title>
<ellipse fill="#47a1f1" stroke="#000000" cx="711" cy="-451.3401" rx="45.4919" ry="18"/>
<text text-anchor="middle" x="711" y="-447.6401" font-family="Times,serif" font-size="14.00" fill="#000000">LAPACK</text>
</g>
<!-- ICON&#45;&gt;LAPACK -->
<g id="edge11" class="edge">
<title>ICON&#45;&gt;LAPACK</title>
<path fill="none" stroke="#000000" d="M494.7729,-591.6799C554.6234,-584.4545 678.6219,-566.819 713,-541.3401 720.3525,-535.8909 714.4962,-526.7223 723,-523.3401"/>
<path fill="none" stroke="#000000" d="M723,-523.3401C739.4927,-516.7806 734.3464,-495.8463 726.3024,-478.2302"/>
<polygon fill="#000000" stroke="#000000" points="729.2454,-476.2883 721.6544,-468.8972 722.9794,-479.4089 729.2454,-476.2883"/>
</g>
<!-- RTTOV -->
<g id="node13" class="node">
<title>RTTOV</title>
<ellipse fill="#79c547" stroke="#000000" cx="492" cy="-523.3401" rx="39.7935" ry="18"/>
<text text-anchor="middle" x="492" y="-519.6401" font-family="Times,serif" font-size="14.00" fill="#000000">RTTOV</text>
</g>
<!-- ICON&#45;&gt;RTTOV -->
<g id="edge12" class="edge">
<title>ICON&#45;&gt;RTTOV</title>
<path fill="none" stroke="#000000" d="M469.5703,-577.1715C472.9355,-569.0948 476.9683,-559.4162 480.6805,-550.5069"/>
<polygon fill="#000000" stroke="#000000" points="483.9206,-551.8305 484.5361,-541.2535 477.4591,-549.1381 483.9206,-551.8305"/>
</g>
<!-- SCT -->
<g id="node14" class="node">
<title>SCT</title>
<polygon fill="#79c547" stroke="#000000" points="338,-325.3401 284,-325.3401 284,-289.3401 338,-289.3401 338,-325.3401"/>
<text text-anchor="middle" x="311" y="-303.6401" font-family="Times,serif" font-size="14.00" fill="#000000">SCT</text>
</g>
<!-- ICON&#45;&gt;SCT -->
<g id="edge13" class="edge">
<title>ICON&#45;&gt;SCT</title>
<path fill="none" stroke="#000000" d="M245,-451.3401C263.924,-411.0351 285.3111,-364.1117 298.4759,-335.064"/>
<polygon fill="#000000" stroke="#000000" points="301.8359,-336.1285 302.7721,-325.5751 295.4591,-333.2414 301.8359,-336.1285"/>
</g>
<!-- YAXT -->
<g id="node15" class="node">
<title>YAXT</title>
<polygon fill="#79c547" stroke="#000000" points="628,-469.3401 574,-469.3401 574,-433.3401 628,-433.3401 628,-469.3401"/>
<text text-anchor="middle" x="601" y="-447.6401" font-family="Times,serif" font-size="14.00" fill="#000000">YAXT</text>
</g>
<!-- ICON&#45;&gt;YAXT -->
<g id="edge14" class="edge">
<title>ICON&#45;&gt;YAXT</title>
<path fill="none" stroke="#000000" d="M494.5,-588.9253C536.5092,-579.8974 606.0585,-562.1943 621,-541.3401 634.0788,-523.0857 626.8155,-497.8086 617.5783,-478.6888"/>
<polygon fill="#000000" stroke="#000000" points="620.5538,-476.8259 612.816,-469.5887 614.3518,-480.0716 620.5538,-476.8259"/>
</g>
<!-- ECCODES -->
<g id="node16" class="node">
<title>ECCODES</title>
<ellipse fill="#79c547" stroke="#000000" cx="175" cy="-451.3401" rx="50.8918" ry="18"/>
<text text-anchor="middle" x="175" y="-447.6401" font-family="Times,serif" font-size="14.00" fill="#000000">ECCODES</text>
</g>
<!-- ICON&#45;&gt;ECCODES -->
<g id="edge15" class="edge">
<title>ICON&#45;&gt;ECCODES</title>
<path fill="none" stroke="#000000" d="M195,-523.3401C186.273,-510.3968 181.3314,-493.7141 178.5446,-479.6668"/>
<polygon fill="#000000" stroke="#000000" points="181.9484,-478.8076 176.8067,-469.5441 175.0494,-479.9921 181.9484,-478.8076"/>
</g>
<!-- CDI -->
<g id="node17" class="node">
<title>CDI</title>
<polygon fill="#47a1f1" stroke="#000000" points="414,-541.3401 360,-541.3401 360,-505.3401 414,-505.3401 414,-541.3401"/>
<text text-anchor="middle" x="387" y="-519.6401" font-family="Times,serif" font-size="14.00" fill="#000000">CDI</text>
</g>
<!-- ICON&#45;&gt;CDI -->
<g id="edge16" class="edge">
<title>ICON&#45;&gt;CDI</title>
<path fill="none" stroke="#000000" d="M443.0743,-577.1715C434.0143,-568.4739 423.0191,-557.9185 413.1735,-548.4666"/>
<polygon fill="#000000" stroke="#000000" points="415.5574,-545.9034 405.9196,-541.5029 410.7096,-550.9532 415.5574,-545.9034"/>
</g>
<!-- SERIALBOX -->
<g id="node18" class="node">
<title>SERIALBOX</title>
<ellipse fill="#79c547" stroke="#000000" cx="324" cy="-451.3401" rx="59.5901" ry="18"/>
<text text-anchor="middle" x="324" y="-447.6401" font-family="Times,serif" font-size="14.00" fill="#000000">SERIALBOX</text>
</g>
<!-- ICON&#45;&gt;SERIALBOX -->
<g id="edge17" class="edge">
<title>ICON&#45;&gt;SERIALBOX</title>
<path fill="none" stroke="#000000" d="M195,-523.3401C183.8594,-506.8171 233.7759,-483.8239 274.7294,-468.3037"/>
<polygon fill="#000000" stroke="#000000" points="275.9493,-471.5843 284.1033,-464.8195 273.5104,-465.0229 275.9493,-471.5843"/>
</g>
<!-- MTIME -->
<g id="node19" class="node">
<title>MTIME</title>
<polygon fill="#47a1f1" stroke="#000000" points="938.5,-469.3401 875.5,-469.3401 875.5,-433.3401 938.5,-433.3401 938.5,-469.3401"/>
<text text-anchor="middle" x="907" y="-447.6401" font-family="Times,serif" font-size="14.00" fill="#000000">MTIME</text>
</g>
<!-- ICON&#45;&gt;MTIME -->
<g id="edge18" class="edge">
<title>ICON&#45;&gt;MTIME</title>
<path fill="none" stroke="#000000" d="M723,-523.3401C731.7118,-519.8752 726.4984,-510.9639 734,-505.3401 780.51,-470.4726 806.6073,-487.9501 865.5582,-469.4405"/>
<polygon fill="#000000" stroke="#000000" points="866.9553,-472.6629 875.3097,-466.1473 864.7155,-466.0309 866.9553,-472.6629"/>
</g>
<!-- YAC -->
<g id="node20" class="node">
<title>YAC</title>
<polygon fill="#79c547" stroke="#000000" points="704,-541.3401 650,-541.3401 650,-505.3401 704,-505.3401 704,-541.3401"/>
<text text-anchor="middle" x="677" y="-519.6401" font-family="Times,serif" font-size="14.00" fill="#000000">YAC</text>
</g>
<!-- ICON&#45;&gt;YAC -->
<g id="edge19" class="edge">
<title>ICON&#45;&gt;YAC</title>
<path fill="none" stroke="#000000" d="M494.7587,-586.3688C530.0136,-576.4376 587.5517,-559.4273 636,-541.3401 637.4111,-540.8133 638.8434,-540.2632 640.2856,-539.6962"/>
<polygon fill="#000000" stroke="#000000" points="641.9064,-542.8144 649.8289,-535.7799 639.2488,-536.3385 641.9064,-542.8144"/>
</g>
<!-- ICON&#45;TIXI -->
<g id="node21" class="node">
<title>ICON&#45;TIXI</title>
<polygon fill="#79c547" stroke="#000000" points="959,-325.3401 879,-325.3401 879,-289.3401 959,-289.3401 959,-325.3401"/>
<text text-anchor="middle" x="919" y="-303.6401" font-family="Times,serif" font-size="14.00" fill="#000000">ICON&#45;TIXI</text>
</g>
<!-- ICON&#45;&gt;ICON&#45;TIXI -->
<g id="edge20" class="edge">
<title>ICON&#45;&gt;ICON&#45;TIXI</title>
<path fill="none" stroke="#000000" d="M919,-379.3401C912.6002,-365.8387 912.1768,-349.2485 913.544,-335.3974"/>
<polygon fill="#000000" stroke="#000000" points="917.0198,-335.81 914.8692,-325.4358 910.081,-334.8868 917.0198,-335.81"/>
</g>
<!-- FORTRAN&#45;SUPPORT -->
<g id="node22" class="node">
<title>FORTRAN&#45;SUPPORT</title>
<polygon fill="#47a1f1" stroke="#000000" points="885.5,-541.3401 742.5,-541.3401 742.5,-505.3401 885.5,-505.3401 885.5,-541.3401"/>
<text text-anchor="middle" x="814" y="-519.6401" font-family="Times,serif" font-size="14.00" fill="#000000">FORTRAN&#45;SUPPORT</text>
</g>
<!-- ICON&#45;&gt;FORTRAN&#45;SUPPORT -->
<g id="edge21" class="edge">
<title>ICON&#45;&gt;FORTRAN&#45;SUPPORT</title>
<path fill="none" stroke="#000000" d="M494.7735,-588.7531C544.9945,-578.6444 644.0033,-558.6563 728,-541.3401 729.4473,-541.0417 730.9082,-540.7402 732.3797,-540.4361"/>
<polygon fill="#000000" stroke="#000000" points="733.1286,-543.8554 742.2107,-538.3996 731.7086,-537.0009 733.1286,-543.8554"/>
</g>
<!-- ComIn -->
<g id="node23" class="node">
<title>ComIn</title>
<polygon fill="#79c547" stroke="#000000" points="958.5,-541.3401 903.5,-541.3401 903.5,-505.3401 958.5,-505.3401 958.5,-541.3401"/>
<text text-anchor="middle" x="931" y="-519.6401" font-family="Times,serif" font-size="14.00" fill="#000000">ComIn</text>
</g>
<!-- ICON&#45;&gt;ComIn -->
<g id="edge22" class="edge">
<title>ICON&#45;&gt;ComIn</title>
<path fill="none" stroke="#000000" d="M494.6353,-592.7112C578.8633,-585.7059 802.7874,-565.6291 893.8153,-541.0467"/>
<polygon fill="#000000" stroke="#000000" points="894.8372,-544.3947 903.4778,-538.2635 892.8997,-537.6682 894.8372,-544.3947"/>
</g>
<!-- CUDA&#45;&gt;STDC++ -->
<g id="edge23" class="edge">
<title>CUDA&#45;&gt;STDC++</title>
<path fill="none" stroke="#000000" d="M71,-433.1715C71,-425.4711 71,-416.3145 71,-407.7567"/>
<polygon fill="#000000" stroke="#000000" points="74.5001,-407.7533 71,-397.7534 67.5001,-407.7534 74.5001,-407.7533"/>
</g>
<!-- ROCm&#45;&gt;STDC++ -->
<g id="edge24" class="edge">
<title>ROCm&#45;&gt;STDC++</title>
<path fill="none" stroke="#000000" d="M50.1676,-508.8099C33.4295,-495.6853 13.7014,-474.8619 17,-451.3401"/>
</g>
<!-- ROCm&#45;&gt;CUDA -->
<g id="edge25" class="edge">
<title>ROCm&#45;&gt;CUDA</title>
<path fill="none" stroke="#000000" d="M71.7477,-505.1715C71.6407,-497.4711 71.5135,-488.3145 71.3947,-479.7567"/>
<polygon fill="#000000" stroke="#000000" points="74.8944,-479.7038 71.2557,-469.7534 67.8951,-479.8011 74.8944,-479.7038"/>
</g>
<!-- HDF5&#45;&gt;MPI -->
<g id="edge26" class="edge">
<title>HDF5&#45;&gt;MPI</title>
<path fill="none" stroke="#000000" d="M424.427,-217.5424C427.3866,-209.3465 430.963,-199.4425 434.2447,-190.3547"/>
<polygon fill="#000000" stroke="#000000" points="437.5424,-191.5275 437.647,-180.9331 430.9585,-189.1499 437.5424,-191.5275"/>
</g>
<!-- HDF5&#45;&gt;ZLIB -->
<g id="edge27" class="edge">
<title>HDF5&#45;&gt;ZLIB</title>
<path fill="none" stroke="#000000" d="M447.7746,-227.9732C500.9318,-214.8209 612.0828,-187.3196 670.7885,-172.7945"/>
<polygon fill="#000000" stroke="#000000" points="671.9051,-176.1239 680.7717,-170.3244 670.2237,-169.3288 671.9051,-176.1239"/>
</g>
<!-- AEC / SZIP -->
<g id="node24" class="node">
<title>AEC / SZIP</title>
<ellipse fill="#def1d1" stroke="#000000" cx="305" cy="-163.3401" rx="53.8905" ry="18"/>
<text text-anchor="middle" x="305" y="-159.6401" font-family="Times,serif" font-size="14.00" fill="#000000">AEC / SZIP</text>
</g>
<!-- HDF5&#45;&gt;AEC / SZIP -->
<g id="edge28" class="edge">
<title>HDF5&#45;&gt;AEC / SZIP</title>
<path fill="none" stroke="#000000" d="M396.4796,-221.628C380.2272,-211.2725 357.6085,-196.8606 338.9289,-184.9585"/>
<polygon fill="#000000" stroke="#000000" points="340.7056,-181.9405 330.3913,-179.5186 336.9441,-187.844 340.7056,-181.9405"/>
</g>
<!-- NetCDF&#45;C -->
<g id="node25" class="node">
<title>NetCDF&#45;C</title>
<ellipse fill="#d1e8fc" stroke="#000000" cx="558" cy="-307.3401" rx="49.2915" ry="18"/>
<text text-anchor="middle" x="558" y="-303.6401" font-family="Times,serif" font-size="14.00" fill="#000000">NetCDF&#45;C</text>
</g>
<!-- NetCDF&#45;Fortran&#45;&gt;NetCDF&#45;C -->
<g id="edge29" class="edge">
<title>NetCDF&#45;Fortran&#45;&gt;NetCDF&#45;C</title>
<path fill="none" stroke="#000000" d="M558,-361.1715C558,-353.4711 558,-344.3145 558,-335.7567"/>
<polygon fill="#000000" stroke="#000000" points="561.5001,-335.7533 558,-325.7534 554.5001,-335.7534 561.5001,-335.7533"/>
</g>
<!-- ECRAD&#45;&gt;NetCDF&#45;Fortran -->
<g id="edge30" class="edge">
<title>ECRAD&#45;&gt;NetCDF&#45;Fortran</title>
<path fill="none" stroke="#000000" d="M567.349,-505.3206C558.0547,-490.7751 548.5199,-469.7705 555,-451.3401"/>
</g>
<!-- LAPACK&#45;&gt;BLAS -->
<g id="edge31" class="edge">
<title>LAPACK&#45;&gt;BLAS</title>
<path fill="none" stroke="#000000" d="M730.0186,-434.6409C741.2736,-424.7584 755.6663,-412.121 767.8512,-401.422"/>
<polygon fill="#000000" stroke="#000000" points="770.2793,-403.9478 775.4844,-394.7197 765.6607,-398.6877 770.2793,-403.9478"/>
</g>
<!-- RTTOV&#45;&gt;HDF5 -->
<g id="edge32" class="edge">
<title>RTTOV&#45;&gt;HDF5</title>
<path fill="none" stroke="#000000" d="M485.1787,-505.4972C481.3216,-495.0496 476.5716,-481.5496 473,-469.3401 451.5138,-395.89 432.588,-307.5973 423.5796,-263.4154"/>
<polygon fill="#000000" stroke="#000000" points="426.9708,-262.5269 421.5577,-253.4194 420.1098,-263.9148 426.9708,-262.5269"/>
</g>
<!-- RTTOV&#45;&gt;NetCDF&#45;Fortran -->
<g id="edge33" class="edge">
<title>RTTOV&#45;&gt;NetCDF&#45;Fortran</title>
<path fill="none" stroke="#000000" d="M512.1332,-507.8243C527.3307,-494.6952 546.9013,-474.374 555,-451.3401"/>
</g>
<!-- RTTOV&#45;&gt;LAPACK -->
<g id="edge34" class="edge">
<title>RTTOV&#45;&gt;LAPACK</title>
<path fill="none" stroke="#000000" d="M522.7693,-511.8C528.797,-509.6064 535.0837,-507.3653 541,-505.3401 582.7321,-491.0549 630.6539,-475.9488 664.9578,-465.3577"/>
<polygon fill="#000000" stroke="#000000" points="666.172,-468.6461 674.6994,-462.3585 664.1122,-461.956 666.172,-468.6461"/>
</g>
<!-- SCT&#45;&gt;MPI -->
<g id="edge35" class="edge">
<title>SCT&#45;&gt;MPI</title>
<path fill="none" stroke="#000000" d="M295.5711,-289.1744C284.464,-273.7761 273.3193,-251.6584 285,-235.3401"/>
</g>
<!-- SCT&#45;&gt;HDF5 -->
<g id="edge36" class="edge">
<title>SCT&#45;&gt;HDF5</title>
<path fill="none" stroke="#000000" d="M338.0006,-289.1715C353.4626,-278.7671 372.8753,-265.7044 388.7054,-255.0524"/>
<polygon fill="#000000" stroke="#000000" points="390.7409,-257.9014 397.0835,-249.4148 386.8329,-252.0938 390.7409,-257.9014"/>
</g>
<!-- YAXT&#45;&gt;MPI -->
<g id="edge37" class="edge">
<title>YAXT&#45;&gt;MPI</title>
<path fill="none" stroke="#000000" d="M627.2153,-433.0803C642.8908,-420.2236 660.9119,-401.4078 667,-379.3401"/>
<path fill="none" stroke="#000000" d="M667,-379.3401C695.3496,-276.5807 546.8014,-203.6785 477.7609,-175.8316"/>
<polygon fill="#000000" stroke="#000000" points="478.7688,-172.4667 468.182,-172.0518 476.1993,-178.9781 478.7688,-172.4667"/>
</g>
<!-- ECCODES&#45;&gt;AEC / SZIP -->
<g id="edge38" class="edge">
<title>ECCODES&#45;&gt;AEC / SZIP</title>
<path fill="none" stroke="#000000" d="M181.9104,-433.2343C193.4683,-403.159 217.6572,-341.0891 240,-289.3401 250.4833,-265.0593 254.969,-259.8112 265,-235.3401"/>
<path fill="none" stroke="#000000" d="M265,-235.3401C271.0737,-219.502 280.1073,-202.8821 288.0536,-189.6058"/>
<polygon fill="#000000" stroke="#000000" points="291.0873,-191.3538 293.3315,-180.9993 285.12,-187.6944 291.0873,-191.3538"/>
</g>
<!-- CDI&#45;&gt;MPI -->
<g id="edge39" class="edge">
<title>CDI&#45;&gt;MPI</title>
<path fill="none" stroke="#000000" d="M409.3737,-505.2794C423.3257,-492.1193 439.3104,-472.8798 443,-451.3401"/>
<path fill="none" stroke="#000000" d="M443,-451.3401C447.2955,-426.2631 428.2834,-422.4192 424,-397.3401 421.3063,-381.5685 421.2692,-377.1054 424,-361.3401 434.1489,-302.7483 468.4508,-294.8019 469,-235.3401"/>
<path fill="none" stroke="#000000" d="M469,-235.3401C467.8396,-219.7777 462.4424,-203.2732 456.9585,-189.9974"/>
<polygon fill="#000000" stroke="#000000" points="460.0355,-188.2988 452.8167,-180.5439 453.6239,-191.108 460.0355,-188.2988"/>
</g>
<!-- CDI&#45;&gt;YAXT -->
<g id="edge40" class="edge">
<title>CDI&#45;&gt;YAXT</title>
<path fill="none" stroke="#000000" d="M414.0376,-514.5742C423.2223,-511.6165 433.5507,-508.3124 443,-505.3401 494.899,-489.0154 509.0072,-488.3069 560,-469.3401 561.4117,-468.815 562.8445,-468.2663 564.2873,-467.7006"/>
<polygon fill="#000000" stroke="#000000" points="565.9062,-470.8197 573.8325,-463.7894 563.2521,-464.3424 565.9062,-470.8197"/>
</g>
<!-- CDI&#45;&gt;ECCODES -->
<g id="edge41" class="edge">
<title>CDI&#45;&gt;ECCODES</title>
<path fill="none" stroke="#000000" d="M359.7187,-514.0748C324.7549,-502.2003 263.6139,-481.4354 221.3026,-467.0655"/>
<polygon fill="#000000" stroke="#000000" points="222.3735,-463.7329 211.7791,-463.8311 220.1223,-470.3611 222.3735,-463.7329"/>
</g>
<!-- CDI&#45;&gt;AEC / SZIP -->
<g id="edge42" class="edge">
<title>CDI&#45;&gt;AEC / SZIP</title>
<path fill="none" stroke="#000000" d="M392.9682,-505.239C398.1055,-486.4309 403.224,-456.5574 393,-433.3401 364.3479,-368.2749 307.2064,-388.7212 275,-325.3401 256.7681,-289.4604 250.5895,-272.9179 265,-235.3401"/>
</g>
<!-- CDI&#45;&gt;NetCDF&#45;C -->
<g id="edge43" class="edge">
<title>CDI&#45;&gt;NetCDF&#45;C</title>
<path fill="none" stroke="#000000" d="M443,-451.3401C448.5039,-419.2088 405.3292,-401.7546 429,-379.3401"/>
</g>
<!-- PPM -->
<g id="node26" class="node">
<title>PPM</title>
<polygon fill="#def1d1" stroke="#000000" points="536,-469.3401 482,-469.3401 482,-433.3401 536,-433.3401 536,-469.3401"/>
<text text-anchor="middle" x="509" y="-447.6401" font-family="Times,serif" font-size="14.00" fill="#000000">PPM</text>
</g>
<!-- CDI&#45;&gt;PPM -->
<g id="edge44" class="edge">
<title>CDI&#45;&gt;PPM</title>
<path fill="none" stroke="#000000" d="M414.0758,-507.361C431.5291,-497.0606 454.4154,-483.554 473.3426,-472.3838"/>
<polygon fill="#000000" stroke="#000000" points="475.1667,-475.3714 481.9999,-467.2746 471.6089,-469.3429 475.1667,-475.3714"/>
</g>
<!-- SERIALBOX&#45;&gt;STDC++ -->
<g id="edge45" class="edge">
<title>SERIALBOX&#45;&gt;STDC++</title>
<path fill="none" stroke="#000000" d="M280.5077,-438.9629C234.9658,-426.0023 163.7247,-405.7282 117.196,-392.4868"/>
<polygon fill="#000000" stroke="#000000" points="117.949,-389.0622 107.3728,-389.6913 116.0329,-395.7949 117.949,-389.0622"/>
</g>
<!-- SERIALBOX&#45;&gt;NetCDF&#45;C -->
<g id="edge46" class="edge">
<title>SERIALBOX&#45;&gt;NetCDF&#45;C</title>
<path fill="none" stroke="#000000" d="M352.5198,-435.1739C374.7111,-421.8269 405.5678,-401.5287 429,-379.3401"/>
<path fill="none" stroke="#000000" d="M429,-379.3401C453.9888,-355.6775 488.2215,-337.04 515.143,-324.6604"/>
<polygon fill="#000000" stroke="#000000" points="516.6373,-327.8262 524.3334,-320.5446 513.7762,-321.4376 516.6373,-327.8262"/>
</g>
<!-- YAC&#45;&gt;MPI -->
<g id="edge47" class="edge">
<title>YAC&#45;&gt;MPI</title>
<path fill="none" stroke="#000000" d="M647,-451.3401C642.1848,-418.4794 660.6173,-411.9327 667,-379.3401"/>
</g>
<!-- YAC&#45;&gt;LAPACK -->
<g id="edge48" class="edge">
<title>YAC&#45;&gt;LAPACK</title>
<path fill="none" stroke="#000000" d="M685.5796,-505.1715C689.3936,-497.0948 693.9641,-487.4162 698.1712,-478.5069"/>
<polygon fill="#000000" stroke="#000000" points="701.4356,-479.7906 702.5409,-469.2535 695.1059,-476.8015 701.4356,-479.7906"/>
</g>
<!-- YAC&#45;&gt;YAXT -->
<g id="edge49" class="edge">
<title>YAC&#45;&gt;YAXT</title>
<path fill="none" stroke="#000000" d="M657.822,-505.1715C648.6412,-496.4739 637.4994,-485.9185 627.5224,-476.4666"/>
<polygon fill="#000000" stroke="#000000" points="629.8385,-473.8396 620.1719,-469.5029 625.0243,-478.9213 629.8385,-473.8396"/>
</g>
<!-- YAC&#45;&gt;MTIME -->
<g id="edge50" class="edge">
<title>YAC&#45;&gt;MTIME</title>
<path fill="none" stroke="#000000" d="M704.0823,-510.6505C708.6735,-508.7311 713.4331,-506.8808 718,-505.3401 779.6532,-484.5402 800.6612,-490.7682 865.8392,-469.4281"/>
<polygon fill="#000000" stroke="#000000" points="866.9787,-472.7376 875.3381,-466.2283 864.744,-466.1039 866.9787,-472.7376"/>
</g>
<!-- YAC&#45;&gt;NetCDF&#45;C -->
<g id="edge51" class="edge">
<title>YAC&#45;&gt;NetCDF&#45;C</title>
<path fill="none" stroke="#000000" d="M666.2316,-505.1601C658.6769,-491.0434 649.4968,-470.6796 647,-451.3401"/>
<path fill="none" stroke="#000000" d="M647,-451.3401C641.8469,-411.4252 657.724,-395.8404 637,-361.3401 628.0737,-346.4801 613.2996,-334.7627 598.9276,-326.0947"/>
<polygon fill="#000000" stroke="#000000" points="600.5137,-322.9707 590.0869,-321.0909 597.0657,-329.0626 600.5137,-322.9707"/>
</g>
<!-- FYAML -->
<g id="node27" class="node">
<title>FYAML</title>
<ellipse fill="#d1e8fc" stroke="#000000" cx="816" cy="-451.3401" rx="41.6928" ry="18"/>
<text text-anchor="middle" x="816" y="-447.6401" font-family="Times,serif" font-size="14.00" fill="#000000">FYAML</text>
</g>
<!-- YAC&#45;&gt;FYAML -->
<g id="edge52" class="edge">
<title>YAC&#45;&gt;FYAML</title>
<path fill="none" stroke="#000000" d="M704.1306,-509.2869C725.7525,-498.087 756.2218,-482.3044 779.9028,-470.0379"/>
<polygon fill="#000000" stroke="#000000" points="781.6682,-473.0652 788.9379,-465.3579 778.4485,-466.8496 781.6682,-473.0652"/>
</g>
<!-- XML2 -->
<g id="node28" class="node">
<title>XML2</title>
<ellipse fill="#d1e8fc" stroke="#000000" cx="916" cy="-235.3401" rx="35.194" ry="18"/>
<text text-anchor="middle" x="916" y="-231.6401" font-family="Times,serif" font-size="14.00" fill="#000000">XML2</text>
</g>
<!-- ICON&#45;TIXI&#45;&gt;XML2 -->
<g id="edge53" class="edge">
<title>ICON&#45;TIXI&#45;&gt;XML2</title>
<path fill="none" stroke="#000000" d="M918.243,-289.1715C917.9221,-281.4711 917.5406,-272.3145 917.184,-263.7567"/>
<polygon fill="#000000" stroke="#000000" points="920.6806,-263.599 916.7672,-253.7534 913.6867,-263.8905 920.6806,-263.599"/>
</g>
<!-- NetCDF&#45;C&#45;&gt;ZLIB -->
<g id="edge54" class="edge">
<title>NetCDF&#45;C&#45;&gt;ZLIB</title>
<path fill="none" stroke="#000000" d="M575.9146,-290.2559C603.0223,-264.405 654.5137,-215.3005 684.8876,-186.3347"/>
<polygon fill="#000000" stroke="#000000" points="687.6706,-188.5171 692.492,-179.0828 682.8397,-183.4513 687.6706,-188.5171"/>
</g>
<!-- NetCDF&#45;C&#45;&gt;HDF5 -->
<g id="edge55" class="edge">
<title>NetCDF&#45;C&#45;&gt;HDF5</title>
<path fill="none" stroke="#000000" d="M529.3311,-292.5961C506.5905,-280.9009 474.7831,-264.5428 450.9866,-252.3047"/>
<polygon fill="#000000" stroke="#000000" points="452.4672,-249.1304 441.9736,-247.6694 449.2658,-255.3554 452.4672,-249.1304"/>
</g>
<!-- PPM&#45;&gt;MPI -->
<g id="edge56" class="edge">
<title>PPM&#45;&gt;MPI</title>
<path fill="none" stroke="#000000" d="M496.273,-433.2559C489.8862,-423.1729 482.731,-410.1045 479,-397.3401 458.7614,-328.1003 469,-307.4772 469,-235.3401"/>
</g>
<!-- PPM&#45;&gt;NetCDF&#45;Fortran -->
<g id="edge57" class="edge">
<title>PPM&#45;&gt;NetCDF&#45;Fortran</title>
<path fill="none" stroke="#000000" d="M521.3648,-433.1715C527.0368,-424.8371 533.8698,-414.7968 540.0904,-405.6563"/>
<polygon fill="#000000" stroke="#000000" points="543.0761,-407.4899 545.8089,-397.2535 537.2891,-403.5515 543.0761,-407.4899"/>
</g>
<!-- XML2&#45;&gt;ZLIB -->
<g id="edge58" class="edge">
<title>XML2&#45;&gt;ZLIB</title>
<path fill="none" stroke="#000000" d="M886.8832,-225.0295C879.7304,-222.506 872.0909,-219.8187 865,-217.3401 823.9865,-203.0041 776.8439,-186.7111 745.2127,-175.8059"/>
<polygon fill="#000000" stroke="#000000" points="746.11,-172.4132 735.5152,-172.4638 743.8291,-179.0312 746.11,-172.4132"/>
</g>
<!-- bottomNode -->
<!-- external -->
<g id="node30" class="node">
<title>external</title>
<ellipse fill="#ffffff" stroke="#000000" cx="122" cy="-42.8701" rx="46.8387" ry="26.7407"/>
<text text-anchor="middle" x="122" y="-46.6701" font-family="Times,serif" font-size="14.00" fill="#000000">External</text>
<text text-anchor="middle" x="122" y="-31.6701" font-family="Times,serif" font-size="14.00" fill="#000000">packages</text>
</g>
<!-- bottomNode&#45;&gt;external -->
<!-- bundled -->
<g id="node31" class="node">
<title>bundled</title>
<polygon fill="#ffffff" stroke="#000000" points="261,-69.3701 187,-69.3701 187,-16.3701 261,-16.3701 261,-69.3701"/>
<text text-anchor="middle" x="224" y="-54.1701" font-family="Times,serif" font-size="14.00" fill="#000000">Optionally</text>
<text text-anchor="middle" x="224" y="-39.1701" font-family="Times,serif" font-size="14.00" fill="#000000">bundled</text>
<text text-anchor="middle" x="224" y="-24.1701" font-family="Times,serif" font-size="14.00" fill="#000000">packages</text>
</g>
<!-- external&#45;&gt;bundled -->
<!-- mandatoryIcon -->
<g id="node32" class="node">
<title>mandatoryIcon</title>
<polygon fill="#47a1f1" stroke="transparent" points="420.5,-61.8701 279.5,-61.8701 279.5,-23.8701 420.5,-23.8701 420.5,-61.8701"/>
<text text-anchor="middle" x="350" y="-46.6701" font-family="Times,serif" font-size="14.00" fill="#000000">Immediate mandatory</text>
<text text-anchor="middle" x="350" y="-31.6701" font-family="Times,serif" font-size="14.00" fill="#000000">dependencies of ICON</text>
</g>
<!-- bundled&#45;&gt;mandatoryIcon -->
<!-- optionalIcon -->
<g id="node33" class="node">
<title>optionalIcon</title>
<polygon fill="#79c547" stroke="transparent" points="579.5,-61.8701 438.5,-61.8701 438.5,-23.8701 579.5,-23.8701 579.5,-61.8701"/>
<text text-anchor="middle" x="509" y="-46.6701" font-family="Times,serif" font-size="14.00" fill="#000000">Immediate optional</text>
<text text-anchor="middle" x="509" y="-31.6701" font-family="Times,serif" font-size="14.00" fill="#000000">dependencies of ICON</text>
</g>
<!-- mandatoryIcon&#45;&gt;optionalIcon -->
<!-- mandatoryBundled -->
<g id="node34" class="node">
<title>mandatoryBundled</title>
<polygon fill="#d1e8fc" stroke="transparent" points="736.5,-69.3701 597.5,-69.3701 597.5,-16.3701 736.5,-16.3701 736.5,-69.3701"/>
<text text-anchor="middle" x="667" y="-54.1701" font-family="Times,serif" font-size="14.00" fill="#000000">Immediate mandatory</text>
<text text-anchor="middle" x="667" y="-39.1701" font-family="Times,serif" font-size="14.00" fill="#000000">dependencies of</text>
<text text-anchor="middle" x="667" y="-24.1701" font-family="Times,serif" font-size="14.00" fill="#000000">the bundled packages</text>
</g>
<!-- optionalIcon&#45;&gt;mandatoryBundled -->
<!-- optionalBundled -->
<g id="node35" class="node">
<title>optionalBundled</title>
<polygon fill="#def1d1" stroke="transparent" points="889,-69.3701 755,-69.3701 755,-16.3701 889,-16.3701 889,-69.3701"/>
<text text-anchor="middle" x="822" y="-54.1701" font-family="Times,serif" font-size="14.00" fill="#000000">Immediate optional</text>
<text text-anchor="middle" x="822" y="-39.1701" font-family="Times,serif" font-size="14.00" fill="#000000">dependencies of</text>
<text text-anchor="middle" x="822" y="-24.1701" font-family="Times,serif" font-size="14.00" fill="#000000">the bundled packages</text>
</g>
<!-- mandatoryBundled&#45;&gt;optionalBundled -->
</g>
</svg>
